<svg width="25" height="24" viewBox="0 0 25 24" fill="none" xmlns="http://www.w3.org/2000/svg">
<path d="M12.4587 20C9.64548 20 6.91503 20 4.10184 20C3.6054 20 3.35718 19.7405 3.35718 19.2216C3.35718 15.7622 3.35718 12.3027 3.35718 8.84324C3.35718 8.67027 3.43992 8.41081 3.43992 8.23784C4.0191 7.02703 4.51555 5.72973 5.09473 4.51892C5.17747 4.17297 5.4257 4 5.8394 4C10.3074 4 14.7754 4 19.2434 4C19.5744 4 19.8226 4.17297 19.9881 4.51892C20.4845 5.72973 20.981 7.02703 21.5602 8.23784C21.6429 8.41081 21.6429 8.58378 21.6429 8.75676C21.6429 12.2162 21.6429 15.6757 21.6429 19.2216C21.6429 19.7405 21.3947 20 20.8982 20C18.085 20 15.2719 20 12.4587 20ZM20.319 18.7027C20.319 15.5892 20.319 12.4757 20.319 9.36216C18.5815 9.36216 16.9267 9.36216 15.1891 9.36216C15.1891 9.44865 15.1891 9.53514 15.1891 9.62162C15.1891 11.0054 15.1891 12.4757 15.1891 13.8595C15.1891 14.0324 15.1064 14.2054 15.0236 14.3784C14.8581 14.6378 14.5272 14.7243 14.279 14.5514C13.6998 14.2919 13.2033 14.1189 12.6241 13.8595C12.5414 13.8595 12.3759 13.8595 12.2932 13.8595C11.714 14.1189 11.1348 14.2919 10.6384 14.5514C10.4729 14.6378 10.3074 14.6378 10.2247 14.6378C9.8937 14.5514 9.72822 14.2919 9.72822 13.9459C9.72822 12.4757 9.72822 11.0919 9.72822 9.62162C9.72822 9.53514 9.72822 9.44865 9.72822 9.36216C7.99066 9.36216 6.33585 9.36216 4.59829 9.36216C4.59829 12.4757 4.59829 15.5892 4.59829 18.7027C9.8937 18.7027 15.1064 18.7027 20.319 18.7027ZM5.01199 7.97838C10.0592 7.97838 15.0236 7.97838 19.9881 7.97838V7.89189C19.6571 7.11351 19.3261 6.24865 18.9124 5.47027C18.9124 5.38378 18.747 5.38378 18.747 5.38378C14.6099 5.38378 10.3901 5.38378 6.25311 5.38378C6.17036 5.38378 6.08762 5.38378 6.00488 5.55676C5.67392 6.24865 5.34296 7.02703 5.01199 7.80541C5.01199 7.89189 5.01199 7.89189 5.01199 7.97838ZM11.0521 9.36216C11.0521 10.573 11.0521 11.7838 11.0521 12.9946C11.383 12.8216 11.7967 12.7351 12.1277 12.5622C12.3759 12.3892 12.7069 12.4757 12.9551 12.5622C13.2861 12.7351 13.617 12.8216 14.0307 12.9946C14.0307 11.7838 14.0307 10.573 14.0307 9.36216C12.9551 9.36216 12.045 9.36216 11.0521 9.36216Z" fill="#282828"/>
</svg>
