<svg width="72" height="72" viewBox="0 0 72 72" fill="none" xmlns="http://www.w3.org/2000/svg">
<path d="M71.6839 43.4567V28.2321L61.929 26.3105C61.6334 25.5715 61.3378 24.8324 61.0422 24.2412L66.5109 15.9637L55.7213 5.17342L47.4444 10.6425C46.7054 10.3468 46.1142 10.0512 45.3752 9.75559L43.4538 0H28.2302L26.3087 9.75559C25.5697 10.0512 24.8307 10.3468 24.2395 10.6425L15.9626 5.17342L5.17307 15.9637L10.6417 24.2412C10.3461 24.9802 10.0505 25.5715 9.75492 26.3105L0 28.2321V43.4567L9.75492 45.3783C10.0505 46.1173 10.3461 46.8564 10.6417 47.4476L5.17307 55.7251L15.9626 66.5154L24.2395 61.0464C24.9785 61.342 25.5697 61.6376 26.3087 61.9332L28.2302 71.6888H43.4538L45.3752 61.9332C46.1142 61.6376 46.8532 61.342 47.4444 61.0464L55.7213 66.5154L66.5109 55.7251L61.0422 47.4476C61.3378 46.7086 61.6334 46.1173 61.929 45.3783L71.6839 43.4567ZM35.7681 49.9605C27.9346 49.9605 21.5791 43.6045 21.5791 35.7705C21.5791 27.9365 27.9346 21.5806 35.7681 21.5806C43.6016 21.5806 49.957 27.9365 49.957 35.7705C49.957 43.6045 43.6016 49.9605 35.7681 49.9605Z" fill="#0CBA83"/>
</svg>
