<svg width="37" height="37" viewBox="0 0 37 37" fill="none" xmlns="http://www.w3.org/2000/svg">
<path d="M36.8027 22.3196V14.4856L31.7774 13.4509C31.6296 13.1553 31.4818 12.7118 31.334 12.4162L34.1423 8.12966L28.6736 2.66062L24.3873 5.46904C24.0917 5.32123 23.6483 5.17342 23.3527 5.02561L22.3181 0H14.4846L13.45 5.02561C13.1544 5.17342 12.711 5.32123 12.4154 5.46904L8.12911 2.66062L2.66044 8.12966L5.46867 12.4162C5.32086 12.7118 5.17306 13.1553 5.02526 13.4509L0 14.4856V22.3196L5.02526 23.3543C5.17306 23.6499 5.32086 24.0934 5.46867 24.389L2.66044 28.6755L8.12911 34.1446L12.4154 31.3361C12.711 31.484 13.1544 31.6318 13.45 31.7796L14.4846 36.8052H22.3181L23.3527 31.7796C23.6483 31.6318 24.0917 31.484 24.3873 31.3361L28.6736 34.1446L34.1423 28.6755L31.334 24.389C31.4818 24.0934 31.6296 23.6499 31.7774 23.3543L36.8027 22.3196ZM18.4752 25.7193C14.4846 25.7193 11.233 22.4674 11.233 18.4765C11.233 14.4856 14.4846 11.2337 18.4752 11.2337C22.4659 11.2337 25.7175 14.4856 25.7175 18.4765C25.7175 22.4674 22.4659 25.7193 18.4752 25.7193Z" fill="#0059D6"/>
</svg>
