<svg width="90" height="77" viewBox="0 0 90 77" fill="none" xmlns="http://www.w3.org/2000/svg">
<path d="M44.9618 0.00762939C20.2789 0.00762939 0.325684 13.1629 0.325684 29.2744C0.325684 41.9862 12.741 52.7765 29.8861 56.7674V76.2786L47.7701 58.3934C71.1228 57.5065 89.598 44.7946 89.598 29.2744C89.598 13.1629 69.6448 0.00762939 44.9618 0.00762939ZM25.3042 35.4825C21.9048 35.4825 19.0965 32.6741 19.0965 29.2744C19.0965 25.8747 21.9048 23.0663 25.3042 23.0663C28.7036 23.0663 31.5119 25.8747 31.5119 29.2744C31.5119 32.6741 28.8514 35.4825 25.3042 35.4825ZM44.9618 35.4825C41.5624 35.4825 38.7542 32.6741 38.7542 29.2744C38.7542 25.8747 41.5624 23.0663 44.9618 23.0663C48.3613 23.0663 51.1695 25.8747 51.1695 29.2744C51.1695 32.6741 48.3613 35.4825 44.9618 35.4825ZM64.4717 35.4825C61.0723 35.4825 58.264 32.6741 58.264 29.2744C58.264 25.8747 61.0723 23.0663 64.4717 23.0663C67.8712 23.0663 70.6794 25.8747 70.6794 29.2744C70.6794 32.6741 67.8712 35.4825 64.4717 35.4825Z" fill="#E43438"/>
</svg>
