<svg width="716" height="716" viewBox="0 0 716 716" fill="none" xmlns="http://www.w3.org/2000/svg">
<path d="M589.296 135.262L587.204 126.314L582.497 126.956C581.173 124.104 579.335 121.593 577.13 119.496L579.254 115.231L571.448 110.381L568.565 114.177C565.708 113.13 562.643 112.592 559.498 112.671L557.988 108.167L549.04 110.258L549.682 114.967C546.829 116.29 544.318 118.13 542.223 120.334L537.956 118.209L533.107 126.016L536.902 128.898C535.855 131.754 535.319 134.821 535.396 137.965L530.892 139.475L532.983 148.423L537.69 147.78C539.015 150.634 540.854 153.145 543.059 155.241L540.934 159.507L548.741 164.356L551.625 160.562C554.479 161.608 557.546 162.144 560.69 162.066L562.201 166.571L571.149 164.479L570.506 159.772C573.36 158.448 575.87 156.608 577.967 154.405L582.234 156.528L587.081 148.722L583.287 145.84C584.334 142.983 584.869 139.917 584.791 136.772L589.296 135.262ZM562.925 149.481C556.236 151.044 549.544 146.889 547.981 140.2C546.417 133.511 550.574 126.82 557.263 125.257C563.954 123.693 570.644 127.849 572.207 134.538C573.771 141.227 569.615 147.917 562.925 149.481Z" fill="#1C215E" fill-opacity="0.05"/>
<path d="M533.631 161.513C531.166 161.45 528.765 161.871 526.525 162.691L524.266 159.719L518.151 163.517L519.815 166.861C518.088 168.503 516.645 170.471 515.607 172.707L511.919 172.204L510.28 179.215L513.81 180.398C513.749 182.862 514.171 185.265 514.99 187.504L512.017 189.763L515.815 195.879L519.157 194.214C520.802 195.941 522.768 197.383 525.005 198.421L524.501 202.11L531.513 203.749L532.695 200.218C535.16 200.28 537.563 199.859 539.802 199.039L542.06 202.013L548.177 198.214L546.513 194.871C548.239 193.227 549.681 191.26 550.719 189.025L554.408 189.528L556.047 182.517L552.516 181.333C552.577 178.869 552.157 176.465 551.337 174.228L554.311 171.968L550.511 165.852L547.169 167.516C545.526 165.789 543.558 164.347 541.321 163.311L541.826 159.621L534.815 157.983L533.631 161.513ZM542.654 183.084C541.429 188.325 536.187 191.583 530.944 190.357C525.704 189.133 522.447 183.889 523.672 178.647C524.897 173.406 530.14 170.149 535.381 171.374C540.624 172.599 543.879 177.842 542.654 183.084Z" fill="#1C215E" fill-opacity="0.05"/>
<path d="M500.381 136.039L497.574 134.641L494.383 139.779L496.881 141.676C496.191 143.557 495.84 145.576 495.891 147.644L492.925 148.639L494.301 154.526L497.4 154.103C498.272 155.982 499.481 157.635 500.933 159.014L499.535 161.822L504.672 165.014L506.569 162.516C508.449 163.205 510.469 163.558 512.539 163.506L513.532 166.473L519.422 165.095L518.998 161.997C520.877 161.127 522.529 159.914 523.909 158.464L526.718 159.862L529.908 154.723L527.409 152.827C528.099 150.946 528.451 148.929 528.4 146.858L531.366 145.864L529.99 139.976L526.89 140.399C526.019 138.522 524.809 136.868 523.357 135.488L524.757 132.68L519.619 129.488L517.721 131.987C515.841 131.298 513.823 130.945 511.753 130.996L510.76 128.031L504.87 129.408L505.294 132.507C503.415 133.377 501.761 134.589 500.381 136.039ZM520.118 145.388C521.147 149.792 518.411 154.194 514.008 155.224C509.605 156.252 505.202 153.518 504.173 149.115C503.144 144.713 505.879 140.309 510.281 139.28C514.685 138.251 519.089 140.986 520.118 145.388Z" fill="#1C215E" fill-opacity="0.05"/>
<path d="M605.862 442.923H519.976V387.064H605.862V442.923Z" fill="#80ADF1"/>
<path d="M602.722 440.131H523.12V397.537H602.722V440.131Z" fill="#FEFEFE"/>
<path d="M588.489 405.733H529.608V403.9H588.489V405.733Z" fill="#80ADF1"/>
<path d="M557.859 411.345H529.605V409.512H557.859V411.345Z" fill="#80ADF1"/>
<path d="M565.19 416.957H529.608V415.124H565.19V416.957Z" fill="#80ADF1"/>
<path d="M542.147 422.569H529.608V420.736H542.147V422.569Z" fill="#80ADF1"/>
<path d="M537.727 428.179H529.608V426.346H537.727V428.179Z" fill="#80ADF1"/>
<path d="M166.304 423.767L105.192 424.044L105.02 386.351L166.132 386.073L166.304 423.767Z" fill="#80ADF1"/>
<path d="M128.465 414.568C128.203 414.568 127.939 414.487 127.712 414.321L116.559 406.176C116.231 405.935 116.038 405.555 116.035 405.148C116.034 404.741 116.225 404.359 116.551 404.117L127.627 395.87C128.194 395.447 128.996 395.566 129.417 396.132C129.838 396.698 129.722 397.501 129.155 397.922L119.469 405.132L129.221 412.256C129.791 412.673 129.915 413.472 129.5 414.043C129.248 414.386 128.86 414.568 128.465 414.568Z" fill="#FBFCFC"/>
<path d="M142.935 414.502C142.546 414.502 142.157 414.324 141.907 413.987C141.484 413.419 141.602 412.618 142.169 412.197L151.854 404.984L142.105 397.863C141.535 397.445 141.41 396.646 141.827 396.075C142.243 395.503 143.044 395.379 143.614 395.795L154.763 403.942C155.091 404.181 155.285 404.563 155.286 404.969C155.289 405.374 155.1 405.758 154.773 406L143.697 414.247C143.468 414.419 143.201 414.502 142.935 414.502Z" fill="#FBFCFC"/>
<path d="M132.789 414.547C132.649 414.547 132.507 414.524 132.367 414.476C131.7 414.242 131.349 413.512 131.582 412.846L137.326 396.425C137.559 395.76 138.288 395.407 138.956 395.641C139.623 395.874 139.975 396.603 139.74 397.27L133.997 413.69C133.812 414.218 133.318 414.547 132.789 414.547Z" fill="#FBFCFC"/>
<path d="M611.626 504.28C611.626 512.278 500.597 518.762 363.635 518.762C226.674 518.762 115.644 512.278 115.644 504.28C115.644 496.281 226.674 489.797 363.635 489.797C500.597 489.797 611.626 496.281 611.626 504.28Z" fill="#80ADF1"/>
<path d="M292.457 503.365H206.572V447.503H292.457V503.365Z" fill="#005EBD"/>
<path d="M292.457 503.365H206.572V447.503H292.457V503.365Z" fill="#80ADF1"/>
<path d="M289.316 500.571H209.714V457.978H289.316V500.571Z" fill="#1D72D8"/>
<path d="M275.084 466.175H216.201V464.343H275.084V466.175Z" fill="#005FBE"/>
<path d="M244.454 471.787H216.201V469.955H244.454V471.787Z" fill="#FEFEFE"/>
<path d="M251.783 477.397H216.201V475.564H251.783V477.397Z" fill="#FEFEFE"/>
<path d="M228.742 483.009H216.201V481.178H228.742V483.009Z" fill="#005AB4"/>
<path d="M224.323 488.62H216.201V486.788H224.323V488.62Z" fill="#FEFEFE"/>
<path d="M398.594 504.282H328.674L340.514 411.336H386.755L398.594 504.282Z" fill="#0063C5"/>
<path d="M398.59 504.283H328.676L336.776 440.695L340.515 411.336H386.749L392.268 454.647L398.59 504.283Z" fill="#0060C0"/>
<path d="M392.268 454.647L336.778 440.695L340.515 411.336H386.749L392.268 454.647Z" fill="#060505" fill-opacity="0.1"/>
<path d="M528.457 182.149H521.47H205.796H198.807C194.149 182.149 190.372 185.927 190.372 190.586V413.752C190.372 418.41 194.149 422.189 198.807 422.189H205.796H521.47H528.457C533.116 422.189 536.894 418.41 536.894 413.752V190.586C536.894 185.927 533.116 182.149 528.457 182.149Z" fill="#1C215E"/>
<path d="M528.457 182.149H521.47H205.796H198.807C194.149 182.149 190.372 185.927 190.372 190.586V413.752C190.372 418.41 194.149 422.189 198.807 422.189H205.796H521.47H528.457C533.116 422.189 536.894 418.41 536.894 413.752V190.586C536.894 185.927 533.116 182.149 528.457 182.149Z" fill="#005AB4"/>
<path d="M525.799 405.607H201.474V190.409H525.799V405.607Z" fill="#80ADF1"/>
<path d="M422.194 497.298H305.075C304.254 497.298 303.59 497.962 303.59 498.781V502.685C303.59 503.504 304.253 504.169 305.072 504.169H422.194C423.013 504.169 423.677 503.504 423.677 502.685V498.781C423.677 497.962 423.013 497.298 422.194 497.298Z" fill="#0058AF"/>
<path d="M422.194 497.298H305.075C304.254 497.298 303.59 497.962 303.59 498.781V502.685C303.59 503.504 304.253 504.169 305.072 504.169H422.194C423.013 504.169 423.677 503.504 423.677 502.685V498.781C423.677 497.962 423.013 497.298 422.194 497.298Z" fill="#005EBB"/>
<path d="M525.799 222.689H201.474V190.615H525.799V222.689Z" fill="#060505" fill-opacity="0.2"/>
<path d="M201.474 405.607H340.457V223.07H201.474V405.607ZM0 0H716V716H0V0ZM0 716H716V0H0V716Z" fill="#FEFEFE" fill-opacity="0.4"/>
<path d="M464.581 239.035H435.484C433.988 239.035 432.772 237.821 432.772 236.323V228.974C432.772 227.476 433.986 226.263 435.484 226.263H464.581C466.079 226.263 467.293 227.478 467.293 228.974V236.323C467.293 237.821 466.079 239.035 464.581 239.035Z" fill="#FEFEFE" fill-opacity="0.7"/>
<path d="M413.418 239.035H384.323C382.825 239.035 381.611 237.821 381.611 236.323V228.974C381.611 227.476 382.825 226.263 384.323 226.263H413.418C414.916 226.263 416.131 227.478 416.131 228.974V236.323C416.131 237.821 414.916 239.035 413.418 239.035Z" fill="#FEFEFE" fill-opacity="0.7"/>
<path d="M347.551 394.55H318.454C316.956 394.55 315.743 393.336 315.743 391.838V384.491C315.743 382.993 316.956 381.778 318.454 381.778H347.551C349.049 381.778 350.263 382.993 350.263 384.491V391.838C350.263 393.336 349.049 394.55 347.551 394.55Z" fill="#FEFEFE" fill-opacity="0.7"/>
<path d="M504.398 202.019H515.192" stroke="#FEFEFE" stroke-width="1.5" stroke-linecap="round" stroke-linejoin="round"/>
<path d="M504.398 207.136H515.192" stroke="#FEFEFE" stroke-width="1.5" stroke-linecap="round" stroke-linejoin="round"/>
<path d="M504.398 212.252H515.192" stroke="#FEFEFE" stroke-width="1.5" stroke-linecap="round" stroke-linejoin="round"/>
<path d="M223.461 360.149H332.247V251.365H223.461V360.149ZM0 0H716V716H0V0ZM0 716H716V0H0V716Z" fill="#FEFEFE" fill-opacity="0.5"/>
<path d="M449.237 383.323H416.307C411.05 383.323 406.79 379.062 406.79 373.806C406.79 368.552 411.05 364.291 416.307 364.291H449.237C454.494 364.291 458.754 368.552 458.754 373.806C458.754 379.062 454.494 383.323 449.237 383.323Z" fill="#0066CC"/>
<path d="M478.172 302.168H376.438C375.29 302.168 374.359 301.237 374.359 300.089C374.359 298.94 375.29 298.008 376.438 298.008H478.172C479.322 298.008 480.253 298.94 480.253 300.089C480.253 301.237 479.322 302.168 478.172 302.168Z" fill="#FEFEFE" fill-opacity="0.7"/>
<path d="M478.172 317.358H376.438C375.29 317.358 374.359 316.428 374.359 315.279C374.359 314.131 375.29 313.198 376.438 313.198H478.172C479.322 313.198 480.253 314.131 480.253 315.279C480.253 316.428 479.322 317.358 478.172 317.358Z" fill="#FEFEFE" fill-opacity="0.7"/>
<path d="M478.171 332.551H414.807C413.659 332.551 412.728 331.62 412.728 330.47C412.728 329.321 413.659 328.391 414.807 328.391H478.171C479.321 328.391 480.251 329.321 480.251 330.47C480.251 331.62 479.321 332.551 478.171 332.551Z" fill="#FEFEFE" fill-opacity="0.7"/>
<path d="M211.717 206.692H218.904V199.506H211.717V206.692ZM0 0H716V716H0V0ZM0 716H716V0H0V716Z" fill="#060505" fill-opacity="0.4"/>
<path d="M230.817 206.692H227.752C226.614 206.692 225.692 205.768 225.692 204.63V201.567C225.692 200.427 226.614 199.505 227.752 199.505H230.817C231.955 199.505 232.878 200.429 232.878 201.567V204.63C232.878 205.768 231.955 206.692 230.817 206.692Z" fill="#060505" fill-opacity="0.4"/>
<path d="M243.258 206.692C241.273 206.692 239.665 205.083 239.665 203.099V203.098C239.665 201.113 241.273 199.505 243.258 199.505C245.243 199.505 246.851 201.113 246.851 203.099C246.851 205.083 245.243 206.692 243.258 206.692Z" fill="#060505" fill-opacity="0.4"/>
<path d="M248.906 190.41L200.839 370.012V190.41H248.906Z" fill="#FEFEFE" fill-opacity="0.1"/>
<path d="M303.149 190.409L245.554 405.607H205.879L263.461 190.409H303.149Z" fill="#FEFEFE" fill-opacity="0.1"/>
<path d="M360.834 190.409L303.239 405.607H285.293L342.888 190.409H360.834Z" fill="#FEFEFE" fill-opacity="0.1"/>
<path d="M413.953 190.409L356.357 405.607H349.936L407.531 190.409H413.953Z" fill="#FEFEFE" fill-opacity="0.1"/>
<path d="M233.438 378.041L233.865 375.272L232.46 374.918C232.411 373.962 232.176 373.043 231.792 372.198L232.877 371.233L231.223 368.975L229.975 369.718C229.286 369.099 228.481 368.598 227.583 368.261L227.668 366.815L224.9 366.388L224.546 367.793C223.587 367.843 222.669 368.078 221.826 368.461L220.86 367.376L218.601 369.03L219.346 370.278C218.725 370.968 218.224 371.773 217.889 372.67L216.443 372.585L216.016 375.353L217.42 375.707C217.469 376.666 217.704 377.584 218.089 378.427L217.002 379.393L218.658 381.652L219.906 380.907C220.594 381.528 221.399 382.029 222.298 382.364L222.212 383.812L224.98 384.239L225.335 382.833C226.293 382.784 227.212 382.549 228.055 382.164L229.02 383.251L231.278 381.595L230.535 380.347C231.155 379.659 231.656 378.854 231.992 377.955L233.438 378.041ZM224.362 379.06C222.293 378.741 220.873 376.804 221.192 374.736C221.512 372.666 223.449 371.247 225.518 371.567C227.587 371.886 229.006 373.822 228.686 375.892C228.367 377.96 226.431 379.38 224.362 379.06Z" fill="#FEFEFE" fill-opacity="0.9"/>
<path d="M245.191 383.552L244.857 381.384L243.724 381.452C243.462 380.747 243.069 380.117 242.581 379.576L243.167 378.599L241.396 377.302L240.639 378.153C239.978 377.852 239.257 377.668 238.508 377.63L238.231 376.529L236.062 376.864L236.129 377.997C235.425 378.259 234.793 378.652 234.253 379.138L233.275 378.554L231.979 380.325L232.83 381.08C232.528 381.743 232.345 382.462 232.306 383.213L231.205 383.49L231.54 385.658L232.673 385.594C232.937 386.296 233.328 386.928 233.816 387.468L233.232 388.444L235.001 389.742L235.758 388.891C236.419 389.192 237.14 389.376 237.89 389.414L238.168 390.516L240.337 390.181L240.269 389.047C240.972 388.785 241.604 388.392 242.144 387.906L243.122 388.489L244.419 386.718L243.567 385.963C243.869 385.302 244.053 384.581 244.091 383.832L245.191 383.552ZM238.651 386.458C237.03 386.708 235.512 385.596 235.262 383.976C235.012 382.352 236.124 380.836 237.746 380.586C239.367 380.336 240.885 381.446 241.135 383.07C241.385 384.69 240.273 386.208 238.651 386.458Z" fill="#FEFEFE" fill-opacity="0.6"/>
<path d="M233.546 391.724L233.827 389.902L232.902 389.67C232.87 389.039 232.714 388.434 232.463 387.878L233.176 387.244L232.087 385.756L231.267 386.246C230.814 385.838 230.282 385.508 229.692 385.287L229.749 384.337L227.926 384.055L227.694 384.979C227.063 385.012 226.458 385.166 225.902 385.418L225.267 384.704L223.78 385.795L224.271 386.614C223.862 387.068 223.532 387.598 223.312 388.19L222.36 388.133L222.079 389.955L223.002 390.188C223.035 390.819 223.19 391.424 223.444 391.978L222.728 392.614L223.817 394.1L224.638 393.61C225.092 394.02 225.622 394.35 226.214 394.57L226.157 395.522L227.98 395.803L228.212 394.878C228.842 394.846 229.448 394.692 230.003 394.437L230.638 395.152L232.124 394.063L231.635 393.242C232.042 392.79 232.373 392.26 232.594 391.668L233.546 391.724ZM227.573 392.395C226.211 392.185 225.276 390.91 225.486 389.549C225.696 388.186 226.972 387.252 228.333 387.462C229.695 387.672 230.63 388.947 230.42 390.31C230.21 391.671 228.934 392.605 227.573 392.395Z" fill="#FEFEFE" fill-opacity="0.4"/>
<path d="M481.23 269.965V272.915H477.495" stroke="#FEFEFE" stroke-width="0.927325" stroke-miterlimit="10"/>
<path d="M469.557 272.915H362.394" stroke="#FEFEFE" stroke-width="0.927325" stroke-miterlimit="10" stroke-dasharray="4.93 4.93"/>
<path d="M358.426 272.915H354.691V269.965" stroke="#FEFEFE" stroke-width="0.927325" stroke-miterlimit="10"/>
<path d="M354.691 264.199V220.955" stroke="#FEFEFE" stroke-width="0.927325" stroke-miterlimit="10" stroke-dasharray="4.53 4.53"/>
<path d="M354.691 218.072V215.122H358.426" stroke="#FEFEFE" stroke-width="0.927325" stroke-miterlimit="10"/>
<path d="M366.364 215.122H473.527" stroke="#FEFEFE" stroke-width="0.927325" stroke-miterlimit="10" stroke-dasharray="4.93 4.93"/>
<path d="M477.495 215.122H481.23V218.072" stroke="#FEFEFE" stroke-width="0.927325" stroke-miterlimit="10"/>
<path d="M481.23 223.838V267.081" stroke="#FEFEFE" stroke-width="0.927325" stroke-miterlimit="10" stroke-dasharray="4.53 4.53"/>
<path d="M479.116 216.793H483.344V213.45H479.116V216.793Z" fill="#1C215E"/>
<path d="M479.116 216.793H483.344V213.45H479.116V216.793Z" stroke="#FEFEFE" stroke-width="0.927325" stroke-miterlimit="10"/>
<path d="M479.116 274.587H483.344V271.244H479.116V274.587Z" fill="#1C215E"/>
<path d="M479.116 274.587H483.344V271.244H479.116V274.587Z" stroke="#FEFEFE" stroke-width="0.927325" stroke-miterlimit="10"/>
<path d="M352.575 216.793H356.806V213.45H352.575V216.793Z" fill="#1C215E"/>
<path d="M352.575 216.793H356.806V213.45H352.575V216.793Z" stroke="#FEFEFE" stroke-width="0.927325" stroke-miterlimit="10"/>
<path d="M352.575 274.587H356.806V271.244H352.575V274.587Z" fill="#1C215E"/>
<path d="M352.575 274.587H356.806V271.244H352.575V274.587Z" stroke="#FEFEFE" stroke-width="0.927325" stroke-miterlimit="10"/>
<path d="M415.846 216.793H420.078V213.45H415.846V216.793Z" fill="#1C215E"/>
<path d="M415.846 216.793H420.078V213.45H415.846V216.793Z" stroke="#FEFEFE" stroke-width="0.927325" stroke-miterlimit="10"/>
<path d="M415.846 274.587H420.078V271.244H415.846V274.587Z" fill="#1C215E"/>
<path d="M415.846 274.587H420.078V271.244H415.846V274.587Z" stroke="#FEFEFE" stroke-width="0.927325" stroke-miterlimit="10"/>
<path d="M479.116 245.69H483.344V242.348H479.116V245.69Z" fill="#1C215E"/>
<path d="M479.116 245.69H483.344V242.348H479.116V245.69Z" stroke="#FEFEFE" stroke-width="0.927325" stroke-miterlimit="10"/>
<path d="M352.575 245.69H356.806V242.348H352.575V245.69Z" fill="#1C215E"/>
<path d="M352.575 245.69H356.806V242.348H352.575V245.69Z" stroke="#FEFEFE" stroke-width="0.927325" stroke-miterlimit="10"/>
<path d="M313.887 262.289H317.943V258.234H313.887V262.289Z" stroke="#060505" stroke-opacity="0.8" stroke-miterlimit="10"/>
<path d="M313.887 356.12H317.943V352.064H313.887V356.12Z" stroke="#060505" stroke-opacity="0.8" stroke-miterlimit="10"/>
<path d="M266.972 309.205H271.027V305.149H266.972V309.205Z" stroke="#060505" stroke-opacity="0.8" stroke-miterlimit="10"/>
<path d="M315.915 354.094C290.004 354.094 269 333.089 269 307.178C269 281.268 290.004 260.263 315.915 260.263" stroke="#060505" stroke-miterlimit="10"/>
<path d="M269 260.263V354.093" stroke="#060505" stroke-miterlimit="10"/>
<path d="M270.051 260.263C270.051 260.843 269.58 261.313 269 261.313C268.42 261.313 267.949 260.843 267.949 260.263C267.949 259.682 268.42 259.213 269 259.213C269.58 259.213 270.051 259.682 270.051 260.263Z" stroke="#060505" stroke-miterlimit="10"/>
<path d="M270.051 354.092C270.051 354.672 269.58 355.143 269 355.143C268.42 355.143 267.949 354.672 267.949 354.092C267.949 353.51 268.42 353.041 269 353.041C269.58 353.041 270.051 353.51 270.051 354.092Z" stroke="#060505" stroke-miterlimit="10"/>
<path d="M479.692 212.475L485.117 226.978L494.192 217.904L479.692 212.475Z" fill="#1C215E"/>
<path d="M492.913 223.676L490.891 225.698L486.398 221.204L488.42 219.182L492.913 223.676Z" fill="#1C215E"/>
<path d="M494.195 217.902L479.692 212.476L485.117 226.977L488.646 223.451L490.891 225.698L492.913 223.676L490.666 221.429L494.195 217.902Z" fill="#1C215E"/>
<path d="M611.111 238.171C615.708 243.359 639.309 287.592 634.963 298.03C630.616 308.469 593.469 296.913 593.469 296.913L595.514 282.23C595.514 282.23 609.903 282.574 611.264 281.194C612.624 279.815 591.559 259.245 591.559 259.245L611.111 238.171Z" fill="#11171E"/>
<path d="M634.963 298.034C634.466 299.23 633.542 300.135 632.296 300.801C632.282 300.801 632.27 300.814 632.258 300.827C632.028 300.946 631.775 301.063 631.52 301.169C631.494 301.181 631.456 301.194 631.417 301.207C631.202 301.3 630.959 301.392 630.717 301.459C629.761 301.789 628.69 302.019 627.527 302.16C627.221 302.202 626.915 302.231 626.594 302.26C626.135 302.304 625.674 302.335 625.2 302.352C624.805 302.369 624.396 302.388 623.986 302.393C611.582 302.545 593.468 296.919 593.468 296.919L595.515 282.223C595.515 282.223 609.896 282.572 611.263 281.188C611.59 280.852 610.588 279.379 608.889 277.339L608.863 277.314C604.739 272.36 596.499 264.127 593.098 260.763C592.139 259.814 591.557 259.244 591.557 259.244L611.104 238.174C615.704 243.353 639.308 287.585 634.963 298.034Z" fill="#1D72D8"/>
<path d="M632.296 300.801C632.282 300.801 632.269 300.814 632.258 300.827C632.028 300.946 631.775 301.063 631.52 301.168C631.494 301.181 631.456 301.194 631.417 301.208C631.2 301.3 630.959 301.392 630.717 301.459C629.761 301.789 628.689 302.019 627.527 302.16C627.219 302.202 626.913 302.231 626.594 302.261C626.135 302.303 625.674 302.335 625.2 302.352C624.805 302.37 624.396 302.387 623.986 302.392C611.581 302.545 593.468 296.918 593.468 296.918L595.515 282.223C595.515 282.223 611.722 283.408 613.088 282.024C613.113 281.999 613.113 281.985 613.126 281.96C613.375 281.42 611.563 279.623 608.89 277.339L608.864 277.314C604.739 272.358 596.499 264.126 593.097 260.762L602.345 250.655L609.46 249.805C609.46 249.805 625.48 275.092 632.296 300.801Z" fill="#060505" fill-opacity="0.2"/>
<path d="M564.426 237.241C561.884 239.129 560.652 241.779 561.676 243.158L630.313 335.567C631.338 336.945 634.229 336.534 636.771 334.645C639.315 332.757 640.545 330.107 639.521 328.728L570.884 236.318C569.861 234.941 566.969 235.352 564.426 237.241Z" fill="#11171E"/>
<path d="M570.88 236.318L639.518 328.729C640.54 330.105 639.309 332.757 636.771 334.641C634.225 336.533 631.341 336.939 630.32 335.563L561.679 243.152C561.116 242.392 561.239 241.25 561.891 240.048C562.193 239.489 562.619 238.902 563.155 238.359C563.523 237.976 563.954 237.591 564.426 237.241C566.962 235.356 569.859 234.942 570.88 236.318Z" fill="#FEFEFE" fill-opacity="0.7"/>
<path d="M639.52 328.728C640.542 330.104 639.308 332.756 636.771 334.639C634.225 336.531 631.341 336.938 630.319 335.562C629.754 334.802 631.137 333.629 631.929 331.939L561.893 240.046C562.195 239.487 562.619 238.901 563.156 238.358L631.804 330.78C632.18 330.388 632.594 330.001 633.066 329.65C635.602 327.766 638.499 327.352 639.52 328.728Z" fill="#060505" fill-opacity="0.3"/>
<path d="M556.745 234.743C554.606 237.08 553.9 239.914 555.167 241.072L640.086 318.789C641.352 319.949 644.114 318.994 646.252 316.656C648.388 314.321 649.097 311.487 647.829 310.327L562.91 232.612C561.642 231.452 558.883 232.406 556.745 234.743Z" fill="#1C215E"/>
<path d="M562.909 232.614L647.826 310.329C649.091 311.486 648.383 314.324 646.25 316.655C644.109 318.995 641.353 319.941 640.089 318.784L555.171 241.068C554.473 240.43 554.376 239.284 554.789 237.98C554.98 237.374 555.286 236.717 555.709 236.084C555.997 235.637 556.349 235.177 556.747 234.742C558.879 232.412 561.644 231.457 562.909 232.614Z" fill="#80ADF1"/>
<path d="M647.826 310.329C649.091 311.486 648.383 314.324 646.251 316.654C644.109 318.994 641.353 319.94 640.089 318.783C639.391 318.145 640.526 316.73 640.983 314.92L554.788 237.979C554.979 237.374 555.286 236.717 555.71 236.082L640.638 313.807C640.935 313.35 641.268 312.892 641.665 312.457C643.797 310.127 646.561 309.172 647.826 310.329Z" fill="#060505" fill-opacity="0.3"/>
<path d="M626.162 483.313L619.846 484.445C607.518 452.773 596.044 412.258 588.598 383.958C587.449 379.572 586.39 375.469 585.44 371.751C585.39 371.559 585.353 371.379 585.303 371.2C583.429 363.816 581.988 357.931 581.09 354.2C580.401 351.277 580.018 349.675 580.018 349.675L602.873 345.951L604.074 355.555L605.846 369.667L606.192 372.434L607.395 382.05L610.616 407.842C623.413 436.972 626.162 483.313 626.162 483.313Z" fill="#FCBAA9"/>
<path d="M605.847 369.668L585.441 371.752C585.391 371.56 585.353 371.381 585.304 371.201C583.431 363.817 581.99 357.931 581.09 354.2L604.076 355.555L605.847 369.668Z" fill="#FC843F" fill-opacity="0.5"/>
<path d="M608.108 363.408L583.945 366.264L583.007 366.369L578.215 348.136C578.215 348.136 568.376 314.397 570.418 286.024C571.268 285.041 594.857 289.89 594.857 289.89C610.489 317.045 606.415 348.403 606.415 348.403L608.108 363.408Z" fill="#1C215E"/>
<path d="M583.945 366.264L583.01 366.369L578.218 348.136C578.218 348.136 589.03 330.062 585.795 320.565C586.262 321.236 597.56 338.341 583.945 366.264Z" fill="#060505" fill-opacity="0.2"/>
<path d="M606.942 506.175C608.135 505.208 609.494 504.471 610.953 503.994C610.953 503.994 615.313 499.668 617.412 486.641L623.122 485.152C625.108 484.67 627.183 485.481 628.316 487.181C628.475 487.41 628.596 487.663 628.679 487.931C628.973 489.327 629.176 490.742 629.288 492.164C629.864 496.572 629.371 506.467 629.371 506.467H628.339L627.929 497.487C627.777 494.438 625.443 498.014 624.774 501.297C624.106 504.581 622.688 508.074 616.005 508.237C608.209 508.39 604.973 508.085 606.942 506.175Z" fill="#1C215E"/>
<path d="M628.515 487.287C628.89 484.238 629.007 478.939 629.007 478.939L616.32 480.346C616.32 480.346 617.858 486.372 616.591 490.897C622.982 489.221 628.515 487.287 628.515 487.287Z" fill="#1C215E"/>
<path d="M574.229 484.947L567.819 484.989C561.599 454.348 557.351 416.459 554.755 387.886C554.349 383.406 553.979 379.169 553.658 375.212C553.51 373.33 553.361 371.526 553.223 369.786C552.536 361.196 552.076 354.386 551.796 350.176C551.595 347.104 551.496 345.415 551.496 345.415L574.646 345.633L574.374 351.528L573.475 370.987L573.375 373.21L572.767 386.06L571.758 407.935C579.409 438.821 574.229 484.947 574.229 484.947Z" fill="#FCBAA9"/>
<path d="M574.373 351.526L573.474 370.985L573.375 373.21L553.658 375.211C553.51 373.33 553.361 371.525 553.224 369.785C552.536 361.195 552.076 354.387 551.798 350.175L574.373 351.526Z" fill="#FC843F" fill-opacity="0.5"/>
<path d="M578.224 348.621C577.81 352.61 576.737 368.102 576.737 368.102L550.888 366.5C540.001 298.773 559.848 282.984 559.848 282.984L581.131 290.348C589.014 325.74 588.121 331.319 578.224 348.621Z" fill="#1C215E"/>
<path d="M555.322 506.175C556.514 505.208 557.873 504.471 559.332 503.994C559.332 503.994 563.694 499.668 565.792 486.641L571.501 485.152C573.487 484.67 575.562 485.481 576.696 487.181C576.854 487.41 576.977 487.663 577.059 487.931C577.354 489.327 577.556 490.742 577.667 492.164C578.243 496.572 577.75 506.467 577.75 506.467H576.718L576.308 497.487C576.157 494.438 573.822 498.014 573.155 501.297C572.486 504.581 571.067 508.074 564.384 508.237C556.588 508.39 553.352 508.085 555.322 506.175Z" fill="#1C215E"/>
<path d="M576.895 487.287C577.271 484.238 577.388 478.939 577.388 478.939L564.701 480.346C564.701 480.346 566.237 486.372 564.971 490.897C571.361 489.221 576.895 487.287 576.895 487.287Z" fill="#1C215E"/>
<path d="M594.736 228.65C595.579 232.837 590.148 234.462 590.148 234.462C581.364 230.561 579.788 225.835 579.788 225.835C587.218 222.095 585.237 211.186 585.237 211.186L586.727 211.946L597.231 214.155C597.231 214.155 594.228 219.72 593.822 220.993C593.822 221.004 593.811 221.015 593.811 221.027C591.737 227.681 594.736 228.65 594.736 228.65Z" fill="#FCBAA9"/>
<path d="M576.889 198.685C576.814 201.338 575.576 203.457 574.124 203.415C572.671 203.374 571.555 201.19 571.63 198.536C571.705 195.882 572.943 193.764 574.395 193.805C575.848 193.846 576.964 196.031 576.889 198.685Z" stroke="#11171E" stroke-width="0.5" stroke-linecap="round" stroke-linejoin="round"/>
<path d="M593.752 215.275C593.657 215.354 593.546 215.434 593.44 215.49C591.993 216.458 590.336 217.378 588.474 217.748C583.259 218.796 579.74 217.986 577.497 215.578L577.486 215.577C574.351 211.97 573.719 205.718 574.388 198.219C574.686 194.779 575.263 191.795 576.278 189.49C576.292 189.468 576.294 189.381 576.306 189.356C576.356 189.265 576.391 189.137 576.441 189.044C577.952 185.826 580.368 183.78 584.155 182.996C585.465 182.728 586.947 182.601 588.612 182.625C603.266 182.886 605.217 207.225 593.752 215.275Z" fill="#FCBAA9"/>
<path d="M593.441 215.49C591.994 216.458 590.344 217.173 588.481 217.543C583.267 218.592 579.752 217.613 577.51 215.168C580.036 215.803 583.454 216.11 586.826 214.67C588.95 213.767 591.269 214.326 593.441 215.49Z" fill="#060505"/>
<path d="M576.275 189.393C576.275 189.393 575.177 199.645 584.787 204.332C584.787 204.332 588.665 215.121 594.816 215.447C603.2 215.889 610.932 204.162 608.371 191.92C605.048 176.044 581.195 174.084 576.275 189.393Z" fill="#11171E"/>
<path d="M579.941 201.242C579.989 199.639 581.354 196.984 583.835 197.42C586.401 197.871 587.65 204.267 581.276 205.509C580.36 205.686 579.839 204.586 579.941 201.242Z" fill="#FDA754"/>
<path d="M594.474 178.98C594.474 178.98 584.743 176.225 579.214 180.012C572.758 184.435 570.223 189.128 577.506 196.731C577.506 196.731 594.112 191.863 599.55 193.146C604.989 194.431 608.856 196.134 608.856 196.134C610.316 185.3 600.009 176.913 594.474 178.98Z" fill="#11171E"/>
<path d="M580.011 198.769C580.011 198.769 582.293 210.691 577.929 220.665C577.929 220.665 600.968 229.395 609.186 225.241C617.402 221.087 610.399 206.155 610.303 197.657C610.206 189.162 606.872 176.514 594.474 178.981C582.078 181.449 580.011 198.769 580.011 198.769Z" fill="#11171E"/>
<path d="M571.651 197.776L581.481 198.054" stroke="#11171E" stroke-width="0.5" stroke-linecap="round" stroke-linejoin="round"/>
<path d="M565.403 227.317C565.403 227.317 577.165 223.308 594.735 228.65C612.304 233.991 612.845 241.515 612.845 241.515C612.845 241.515 601.309 266.691 599.145 295.346L553.202 292.978C553.202 292.978 548.293 252.423 565.403 227.317Z" fill="#11171E"/>
<path d="M612.851 241.509C612.851 241.509 601.314 266.688 599.143 295.349L553.203 292.983C553.203 292.983 552.516 287.333 552.56 278.955C552.578 273.109 552.947 265.927 554.128 258.396C555.813 247.803 559.132 236.518 565.403 227.319C565.403 227.319 577.163 223.315 594.727 228.655C612.304 233.994 612.851 241.509 612.851 241.509Z" fill="#0073E6"/>
<path d="M564.297 260.267C564.297 260.267 562.226 271.904 552.558 278.956C552.577 273.109 552.947 265.927 554.128 258.396L564.297 260.267Z" fill="#060505" fill-opacity="0.2"/>
<path d="M577.256 225.878C577.256 225.878 580.925 255.14 593.839 256.503C606.754 257.864 612.848 236.374 610.693 233.722C608.538 231.071 591.952 225.89 577.256 225.878Z" fill="#11171E"/>
<path d="M577.256 225.878C577.256 225.878 580.925 255.14 593.839 256.503C606.754 257.864 612.848 236.374 610.693 233.722C608.538 231.071 591.952 225.89 577.256 225.878Z" fill="#0073E6"/>
<path d="M513.159 235.756L506.204 228.065C506.204 228.065 504.794 224.495 503.571 223.808C502.346 223.122 490.644 220.021 489.323 220.232C488.002 220.443 489.226 229.005 490.758 230.272C492.29 231.539 499.687 233.664 501.553 233.72C503.418 233.776 502.491 233.586 502.491 233.586L509.011 242.98L513.159 235.756Z" fill="#FCBAA9"/>
<path d="M531.313 252.652L509.188 230.037C509.188 230.037 504.41 232.302 503.809 241.248C503.809 241.248 518.499 276.12 531.368 277.945C541.479 272.143 536.302 253.734 531.313 252.652Z" fill="#11171E"/>
<path d="M531.313 252.652L509.188 230.037C509.188 230.037 504.41 232.302 503.809 241.248C503.809 241.248 518.499 276.12 531.368 277.945C540.832 272.897 537.213 254.169 531.313 252.652Z" fill="#1D72D8"/>
<path d="M562.296 227.77C562.296 227.77 547.661 237.056 530.603 252.712C530.603 252.712 515.247 268.651 531.886 277.973C544.828 279.171 567.91 260.262 567.91 260.262C567.91 260.262 589.364 224.55 562.296 227.77Z" fill="#1D72D8"/>
<path d="M163.469 495.488L173.274 496.179L174.37 475.046L164.565 474.355L163.469 495.488Z" fill="#FCBAA9"/>
<path d="M164.567 474.357L174.372 475.048L173.797 485.947L163.992 485.257L164.567 474.357Z" fill="#FC843F"/>
<path d="M133.445 281.308L162.139 280.306C167.827 306.224 186.003 398.01 178.147 480.63L161.066 479.116C161.066 479.116 158.828 369.874 142.4 330.034C135.004 307.197 133.607 287.906 133.445 281.308Z" fill="#1C215E"/>
<path d="M180.231 484.525L159.071 482.129L159.511 476.276L181.511 478.386L180.231 484.525Z" fill="#1C215E"/>
<path d="M142.404 330.038C144.827 335.908 146.929 343.275 148.775 351.577C149.509 332.303 143.178 312.112 143.178 312.112C143.178 312.112 137.882 309.694 136.938 309.27C139.214 320.366 142.404 330.038 142.404 330.038Z" fill="#060505" fill-opacity="0.2"/>
<path d="M174.266 493.199H162.76C162.372 493.201 162.035 493.47 161.951 493.85L160.085 502.284C159.924 503.039 160.408 503.782 161.163 503.941C161.263 503.962 161.368 503.971 161.469 503.969C165.194 503.909 167.905 503.682 172.579 503.682C175.459 503.682 184.145 503.982 188.122 503.982C192.097 503.982 192.615 500.054 190.989 499.694C183.688 498.104 178.192 495.899 175.854 493.802C175.421 493.404 174.854 493.188 174.266 493.199Z" fill="#1C215E"/>
<path d="M174.917 494.512C174.827 494.488 174.76 494.411 174.748 494.319C174.733 494.23 174.777 494.143 174.856 494.103C175.194 493.885 178.254 492.006 179.302 492.549C179.543 492.662 179.695 492.909 179.687 493.175C179.75 493.632 179.573 494.087 179.218 494.379C178.685 494.743 178.043 494.913 177.399 494.862C176.561 494.836 175.729 494.72 174.917 494.512ZM175.567 494.199C176.673 494.573 177.879 494.512 178.941 494.03C179.168 493.827 179.281 493.524 179.242 493.222C179.231 493.042 179.158 492.959 179.097 492.959C179.009 492.911 178.908 492.89 178.808 492.899C177.655 493.121 176.554 493.563 175.567 494.199Z" fill="#1C215E"/>
<path d="M174.854 494.561C174.787 494.515 174.747 494.438 174.748 494.356C174.76 494.223 174.988 491.5 176.084 490.609C176.345 490.38 176.693 490.274 177.037 490.32C177.389 490.318 177.69 490.566 177.758 490.91C177.952 491.911 176.06 493.996 175.085 494.525H174.976C174.94 494.548 174.899 494.561 174.854 494.561ZM176.375 490.874C175.709 491.726 175.317 492.758 175.252 493.838C176.229 493.103 177.435 491.524 177.315 490.91C177.302 490.849 177.279 490.68 176.989 490.68H176.879C176.693 490.682 176.515 490.751 176.375 490.874Z" fill="#1C215E"/>
<path d="M114.696 494.755L124.16 494.425L124.177 472.471L114.701 472.802L114.696 494.755Z" fill="#FCBAA9"/>
<path d="M114.7 472.814L124.177 472.483L124.161 483.803L114.686 484.134L114.7 472.814Z" fill="#FC843F"/>
<path d="M111.892 280.336L147.798 279.083C146.556 304.71 146.38 303.673 142.392 328.31C141.419 349.973 140.173 373.03 138.818 385.323C135.499 415.579 128.441 481.693 128.441 481.693L111.125 482.298C111.125 482.298 112.466 419.203 113.07 389.562C113.738 357.379 112.054 286.935 111.892 280.336Z" fill="#1C215E"/>
<path d="M130.529 481.761L110.107 482.474L109.894 476.37L131.072 475.234L130.529 481.761Z" fill="#1C215E"/>
<path d="M125.47 493.499H113.964C113.576 493.502 113.24 493.771 113.155 494.15L111.289 502.585C111.129 503.338 111.613 504.081 112.368 504.24C112.468 504.262 112.571 504.272 112.674 504.27C116.397 504.21 119.109 503.981 123.784 503.981C126.663 503.981 135.35 504.282 139.326 504.282C143.302 504.282 143.82 500.355 142.193 499.993C134.893 498.403 129.398 496.198 127.061 494.102C126.627 493.705 126.059 493.487 125.47 493.499Z" fill="#1C215E"/>
<path d="M126.121 494.812C126.03 494.788 125.963 494.712 125.952 494.62C125.936 494.531 125.98 494.444 126.059 494.404C126.397 494.185 129.457 492.306 130.505 492.849C130.747 492.963 130.899 493.208 130.892 493.475C130.956 493.931 130.777 494.387 130.422 494.68C129.89 495.044 129.247 495.213 128.602 495.161C127.764 495.137 126.932 495.02 126.121 494.812ZM126.772 494.498C127.878 494.872 129.082 494.812 130.144 494.331C130.371 494.126 130.484 493.825 130.445 493.522C130.434 493.341 130.362 493.258 130.302 493.258C130.213 493.211 130.112 493.19 130.011 493.198C128.859 493.42 127.759 493.863 126.772 494.498Z" fill="#1C215E"/>
<path d="M126.059 494.862C125.992 494.816 125.952 494.739 125.953 494.657C125.966 494.526 126.192 491.799 127.289 490.908C127.55 490.679 127.898 490.576 128.241 490.62C128.594 490.619 128.894 490.867 128.963 491.21C129.156 492.211 127.265 494.295 126.289 494.825H126.181C126.145 494.848 126.103 494.862 126.059 494.862ZM127.58 491.173C126.914 492.025 126.521 493.059 126.457 494.139C127.434 493.404 128.639 491.826 128.519 491.21C128.506 491.15 128.483 490.983 128.194 490.983H128.084C127.898 490.983 127.72 491.05 127.58 491.173Z" fill="#1C215E"/>
<path d="M252.948 253.819L266.593 258.924L259.44 251.77C258.903 252.069 258.221 252.013 257.764 251.556C257.213 251.005 257.213 250.11 257.764 249.559C258.316 249.008 259.211 249.008 259.762 249.559C260.219 250.016 260.275 250.696 259.977 251.234L267.13 258.389L262.025 244.743L257.505 245.745L257.329 244.113L256.473 243.258L251.464 248.267L252.32 249.122L253.951 249.3L252.948 253.819Z" fill="#11171E"/>
<path d="M252.948 253.819L266.593 258.924L259.44 251.77C258.903 252.069 258.221 252.013 257.764 251.556C257.213 251.005 257.213 250.11 257.764 249.559C258.316 249.008 259.211 249.008 259.762 249.559C260.219 250.016 260.275 250.696 259.977 251.234L267.13 258.389L262.025 244.743L257.505 245.745L257.329 244.113L256.473 243.258L251.464 248.267L252.32 249.122L253.951 249.3L252.948 253.819Z" fill="#FEFEFE" fill-opacity="0.2"/>
<path d="M199.602 271.821C207.585 275.251 232.18 246.184 232.18 246.184C232.18 246.184 251.04 248.14 252.03 246.95C253.02 245.758 248.786 231.839 247.411 231.659C246.035 231.478 228.928 235.815 228.174 236.775C227.421 237.738 206.552 253.605 205.692 252.994C201.364 256.015 193.256 265.524 199.602 271.821Z" fill="#FCBAA9"/>
<path d="M234.811 244.459C234.977 244.444 235.132 244.425 235.277 244.394C235.201 244.339 235.136 244.284 235.072 244.229C234.992 244.315 234.913 244.389 234.811 244.459Z" fill="#CC5C44"/>
<path d="M177.271 232.995C177.271 232.995 192.512 270.241 201.007 272.068C211.31 270.166 205.222 256.421 203.348 252.418C202.386 251.985 193.396 229.815 193.396 229.815L177.271 232.995Z" fill="#FCBAA9"/>
<path d="M170.028 229.142L171.728 231.748L179.671 243.946L181.317 246.46L200.131 238.157C200.131 238.157 189.641 208.75 186.597 205.903L170.028 229.142Z" fill="#1C215E"/>
<path d="M170.028 229.142L171.728 231.748L179.671 243.946L181.317 246.46L200.131 238.157C200.131 238.157 189.641 208.75 186.597 205.903L170.028 229.142Z" fill="#80ADF1"/>
<path d="M171.728 231.745L179.67 243.945C183.25 235.214 181.082 223.847 181.082 223.847L171.728 231.745Z" fill="#060505" fill-opacity="0.2"/>
<path d="M180.387 246.535L200.529 237.224L201.26 238.941L181.101 248.025L180.387 246.535Z" fill="#1D72D8"/>
<path d="M110.366 291.219L109.714 297.364C109.714 297.364 145.146 299.051 166.947 297.151L165.852 293.052L110.366 291.219Z" fill="#0073E6"/>
<path d="M186.595 205.899C186.595 205.899 175.334 193.466 156.28 194.118C137.226 194.77 131.422 197.142 124.988 203.9C115.591 213.768 109.34 292.75 109.34 292.75C109.34 292.75 136.519 298.79 166.723 294.311C166.723 294.311 165.192 272.654 170.852 257.511C181.859 228.059 186.595 205.899 186.595 205.899Z" fill="#0073E6"/>
<path d="M109.336 292.748C109.336 292.748 136.513 298.789 166.727 294.316C166.727 294.316 166.533 291.649 166.538 287.523C166.532 285.578 166.58 283.287 166.706 280.817C166.828 278.264 167.049 275.502 167.393 272.685C167.576 271.17 167.802 269.642 168.064 268.109C168.705 264.458 169.604 260.822 170.847 257.51C171.54 255.649 172.211 253.813 172.861 252.013C173.989 248.875 175.041 245.824 176.024 242.908C178.079 236.776 179.815 231.171 181.246 226.284C182.274 222.778 183.144 219.637 183.861 216.943C184.661 213.947 185.281 211.484 185.73 209.654C186.318 207.227 186.597 205.901 186.597 205.901C186.597 205.901 185.838 205.064 184.366 203.823C180.275 200.37 170.672 193.838 156.913 194.114C156.702 194.108 156.491 194.112 156.28 194.118C141.764 194.619 134.936 196.112 129.668 199.786C128.015 200.929 126.519 202.292 124.987 203.907C123.94 205.011 122.917 206.98 121.959 209.614C120.365 213.939 118.881 220.035 117.547 226.988C117.35 228.024 117.156 229.084 116.961 230.155C116.1 234.983 115.287 240.124 114.55 245.317C114.34 246.788 114.133 248.268 113.936 249.736C113.638 251.989 113.353 254.241 113.076 256.454C112.381 262.042 111.78 267.457 111.26 272.317C110.529 279.314 109.984 285.16 109.67 288.783C109.453 291.309 109.336 292.748 109.336 292.748ZM157.447 194.771C158.789 194.71 160.102 194.708 161.267 194.765C166.469 195.033 174.59 198.487 174.55 200.448C174.5 202.408 171.931 207.588 164.219 207.009C161.556 206.815 158.919 205.821 156.575 204.523C152.135 202.084 148.766 198.573 148.364 197.375C147.886 195.961 152.79 195.009 157.447 194.771Z" fill="#80ADF1"/>
<path d="M143.199 222.063C143.199 222.063 135.09 247.201 134.714 267.537L162.151 268.793C162.151 268.793 171.676 234.956 173.354 224.478C173.354 224.478 151.484 224.071 143.199 222.063Z" fill="#0073E6"/>
<path d="M168.128 225.855L171.941 225.926L169.343 228.295L168.128 225.855Z" fill="#FEFEFE"/>
<path d="M113.936 249.738C125.558 243.766 133.39 222.349 133.39 222.349L126.22 218.772L117.547 226.99C117.351 228.026 117.156 229.085 116.961 230.155C116.1 234.983 115.288 240.124 114.549 245.317C114.341 246.787 114.133 248.269 113.936 249.738Z" fill="#060505" fill-opacity="0.2"/>
<path d="M150.915 197.204C153.443 202.903 161.3 204.956 165.334 204.97C170.994 204.99 172.273 200.446 172.273 200.446C172.273 200.446 167.519 198.546 167.761 195.938C167.904 194.421 168.494 192.902 169.292 191.425C169.703 190.644 170.184 189.882 170.682 189.139L162.077 174.028C160.995 181.016 157.048 194.498 150.915 197.204Z" fill="#FCBAA9"/>
<path d="M162.374 181.35C159.494 189.246 164.865 194.144 167.761 195.937C167.905 194.419 168.495 192.902 169.293 191.423L162.374 181.35Z" fill="#060505" fill-opacity="0.2"/>
<path d="M190.226 163.339C190.226 163.339 191.277 176.499 184.011 181.014C176.743 185.528 178.47 161.293 178.47 161.293L190.226 163.339Z" fill="#CC5C44"/>
<path d="M190.226 163.339C190.226 163.339 191.277 176.499 184.011 181.014C176.743 185.528 178.47 161.293 178.47 161.293L190.226 163.339Z" fill="#5F5755"/>
<path d="M163.211 189.931C166.22 194.989 171.597 196.641 176.452 195.478C179.573 194.733 182.476 192.814 184.399 189.896C184.657 189.516 184.889 189.109 185.113 188.691C189.08 180.977 191.754 161.445 183.116 161.322C176.04 161.22 169.374 158.36 165.185 164.077C163.984 165.694 163.198 167.583 162.862 169.576C161.165 178.805 159.734 184.151 163.211 189.931Z" fill="#FCBAA9"/>
<path d="M172.333 159.847L172.036 164.003C170.566 164.453 169.471 165.797 169.773 167.517C170.417 171.186 167.446 176.104 164.415 177.704C164.415 177.704 164.622 176.209 163.306 176.315C161.99 176.422 160.832 184.192 162.549 188.341C162.549 188.341 158.458 183.75 157.956 175.26C157.492 167.406 158.193 162.53 159.661 158.944L172.333 159.847Z" fill="#CC5C44"/>
<path d="M172.333 159.847L172.036 164.003C170.566 164.453 169.471 165.797 169.773 167.517C170.417 171.186 167.446 176.104 164.415 177.704C164.415 177.704 164.622 176.209 163.306 176.315C161.99 176.422 160.832 184.192 162.549 188.341C162.549 188.341 158.458 183.75 157.956 175.26C157.492 167.406 158.193 162.53 159.661 158.944L172.333 159.847Z" fill="#5F5755"/>
<path d="M158.378 163.481C158.378 163.481 163.593 164.823 172.034 164.004C185.118 162.732 190.1 167.996 190.1 167.996C190.1 167.996 193.406 165.685 193.397 161.951C193.388 158.22 188.326 157.079 188.326 157.079C188.326 157.079 187.194 152.77 183.922 151.171C180.649 149.573 176.928 152.381 176.928 152.381C176.928 152.381 173.094 147.865 168.044 148.535C161.84 149.358 161.404 155.151 161.404 155.151C161.404 155.151 155.553 155.169 155.382 158.157C155.211 161.146 158.378 163.481 158.378 163.481Z" fill="#11171E"/>
<path d="M181.147 176.645C180.883 179.291 178.808 181.252 176.512 181.022C174.215 180.793 172.567 178.461 172.831 175.815C173.095 173.169 175.172 171.209 177.469 171.438C179.764 171.668 181.411 173.999 181.147 176.645Z" stroke="#11171E" stroke-width="0.5" stroke-linecap="round" stroke-linejoin="round"/>
<path d="M191.538 178.401C191.274 181.047 189.199 183.007 186.903 182.778C184.607 182.549 182.961 180.217 183.225 177.571C183.489 174.925 185.564 172.965 187.86 173.194C190.155 173.423 191.802 175.755 191.538 178.401Z" stroke="#11171E" stroke-width="0.5" stroke-linecap="round" stroke-linejoin="round"/>
<path d="M181.09 177.221C181.09 177.221 182.513 176.511 183.225 177.572" stroke="#11171E" stroke-width="0.5" stroke-linecap="round" stroke-linejoin="round"/>
<path d="M172.834 175.816L165.631 174.114C164.691 173.892 163.698 174.057 162.882 174.572L162.538 174.788" stroke="#11171E" stroke-width="0.5" stroke-linecap="round" stroke-linejoin="round"/>
<path d="M157.05 176.072C157.555 178.382 158.957 180.398 160.945 181.676C163.59 183.349 165.81 181.195 165.834 178.227C165.831 175.59 164.484 171.462 161.454 171.014C158.424 170.568 156.465 173.229 157.05 176.072Z" fill="#FCBAA9"/>
<path d="M127.992 340.967L67.0586 336.319L69.9241 298.735L130.86 303.383L127.992 340.967Z" fill="#1C215E"/>
<path d="M92.3694 311.127L80.664 318.454L91.1227 327.472" stroke="#FEFEFE" stroke-width="2" stroke-linecap="round" stroke-linejoin="round"/>
<path d="M105.548 328.573L117.253 321.248L106.795 312.228" stroke="#FEFEFE" stroke-width="2" stroke-linecap="round" stroke-linejoin="round"/>
<path d="M95.4338 327.801L102.485 311.898" stroke="#FEFEFE" stroke-width="2" stroke-linecap="round" stroke-linejoin="round"/>
<path d="M94.5201 237.087C91.7829 241.767 89.8617 291.282 89.8617 291.282C89.8617 291.282 88.6523 291.815 88.6315 292.885C88.6093 293.954 89.6378 307.732 89.8895 308.354C90.1398 308.975 101.104 314.563 102.514 312.909C103.925 311.254 104.806 295.484 104.806 295.484L98.8679 290.549C98.8679 290.549 102.336 253.912 105.862 247.744C107.856 238.95 99.5049 233.051 94.5201 237.087Z" fill="#FCBAA9"/>
<path d="M118.076 207.804C118.076 207.804 97.2558 232.408 94.5187 237.088C92.4017 242.502 99.6559 250.455 105.86 247.741C109.386 241.571 124.889 227.703 124.889 227.703L118.076 207.804Z" fill="#FCBAA9"/>
<path d="M134.761 197.224C138.634 203.952 137.32 218.893 131.654 224.588C123.083 233.204 112.462 240.87 112.462 240.87L100.139 227.213C100.139 227.213 111.029 214.698 117.653 207.462C125.707 198.66 134.761 197.224 134.761 197.224Z" fill="#1C215E"/>
<path d="M134.761 197.224C138.634 203.952 137.32 218.893 131.654 224.588C123.083 233.204 112.462 240.87 112.462 240.87L100.139 227.213C100.139 227.213 111.029 214.698 117.653 207.462C125.707 198.66 134.761 197.224 134.761 197.224Z" fill="#80ADF1"/>
<path d="M100.061 226.272L98.838 228.261L111.693 242.504L113.24 241.191L100.061 226.272Z" fill="#1D72D8"/>
</svg>
