<svg width="158" height="49" viewBox="0 0 158 49" fill="none" xmlns="http://www.w3.org/2000/svg">
<path d="M7.09448 30.1536C8.2769 40.6482 17.145 48.9257 28.0824 48.9257H137.012C147.802 48.9257 156.818 40.796 158 30.1536H7.09448Z" fill="#A5ACBA"/>
<path d="M130.213 42.2742H21.1357C9.45933 42.2742 0 32.8143 0 21.1371C0 9.45997 9.45933 0 21.1357 0H130.213C141.89 0 151.349 9.45997 151.349 21.1371C151.349 32.8143 141.89 42.2742 130.213 42.2742Z" fill="#DCE6F2"/>
<path d="M128.44 34.7358H22.4659C15.0758 34.7358 9.01587 28.6755 9.01587 21.2849C9.01587 13.8943 15.0758 7.83398 22.4659 7.83398H128.44C135.83 7.83398 141.89 13.8943 141.89 21.2849C141.89 28.6755 135.83 34.7358 128.44 34.7358Z" fill="#BECBEB"/>
<path d="M34.29 26.4585L29.7081 22.1719C30.1515 21.2851 30.4471 20.2504 30.4471 19.3635C30.4471 16.1117 27.7867 13.3032 24.3873 13.3032C21.1356 13.3032 18.3274 15.9638 18.3274 19.3635C18.3274 22.6154 20.9878 25.4238 24.3873 25.4238C25.5697 25.4238 26.6043 25.1282 27.6389 24.3891L32.2208 28.6757C32.5164 28.9713 32.812 29.1191 33.2554 29.1191C33.6988 29.1191 34.1422 28.9713 34.29 28.6757C34.5856 28.38 34.7334 27.9366 34.7334 27.641C34.7334 27.0497 34.5856 26.7541 34.29 26.4585ZM27.9345 19.3635C27.9345 21.2851 26.3087 22.911 24.3873 22.911C22.4659 22.911 20.84 21.2851 20.84 19.3635C20.84 17.442 22.4659 15.816 24.3873 15.816C26.3087 15.816 27.9345 17.442 27.9345 19.3635Z" fill="#E4EBFD"/>
</svg>
