<svg width="120" height="120" viewBox="0 0 120 120" fill="none" xmlns="http://www.w3.org/2000/svg">
<path d="M89.6702 89.6763C106.178 73.1673 106.178 46.4011 89.6702 29.8921C73.1624 13.3831 46.3979 13.3831 29.8901 29.8921C13.3822 46.401 13.3822 73.1673 29.8901 89.6763C46.3979 106.185 73.1624 106.185 89.6702 89.6763Z" fill="#E4EBFD"/>
<path d="M67.1831 26.8555V51.2444L59.793 55.0876L52.4029 51.2444V26.8555C43.6826 29.9595 37.3271 38.237 37.3271 47.9926C37.3271 57.6004 43.2392 65.73 51.6639 68.9819V95.4402C54.1765 96.0315 56.9848 96.3271 59.6452 96.3271C62.4534 96.3271 65.1139 96.0315 67.6265 95.4402V68.9819C76.0512 65.73 81.9633 57.6004 81.9633 47.9926C82.1111 38.237 75.9034 29.9595 67.1831 26.8555Z" fill="#0059D6"/>
</svg>
