<svg width="638" height="404" viewBox="0 0 638 404" fill="none" xmlns="http://www.w3.org/2000/svg">
<path d="M147.026 166.462C139.66 172.761 130.856 92.409 166.52 62.9857C197.691 37.2516 230.121 58.4867 224.91 74.5031C219.61 90.5195 198.23 88 172.449 123.362C153.853 148.826 151.877 162.323 147.026 166.462Z" fill="#A5ACBA"/>
<path d="M343.039 123.452C326.42 113.194 336.571 91.2392 353.19 92.409C369.809 93.5787 376.547 120.753 369.36 127.681C362.174 134.519 349.867 127.681 343.039 123.452Z" fill="url(#paint0_linear_240_3917)"/>
<path d="M74.1724 361.358C16.2308 362.078 112.261 354.339 136.246 243.845C160.231 133.35 193.649 45.1697 327.409 119.493C461.168 193.816 490.903 138.029 547.766 154.315C604.63 170.601 573.638 269.039 610.469 320.327C638.407 359.198 595.287 408.327 418.857 403.648C300.279 400.589 211.705 359.738 74.1724 361.358Z" fill="#C1C9D9"/>
<path opacity="0.81" d="M358.311 376.385C466.417 376.385 554.054 365.83 554.054 352.81C554.054 339.79 466.417 329.235 358.311 329.235C250.204 329.235 162.567 339.79 162.567 352.81C162.567 365.83 250.204 376.385 358.311 376.385Z" fill="url(#paint1_radial_240_3917)"/>
<path opacity="0.94" d="M367.024 350.02C452.805 350.02 522.344 347.201 522.344 343.722C522.344 340.243 452.805 337.423 367.024 337.423C281.244 337.423 211.705 340.243 211.705 343.722C211.705 347.201 281.244 350.02 367.024 350.02Z" fill="url(#paint2_radial_240_3917)"/>
<path opacity="0.94" d="M450.658 358.839C499.179 358.839 538.514 355.777 538.514 352C538.514 348.223 499.179 345.162 450.658 345.162C402.137 345.162 362.802 348.223 362.802 352C362.802 355.777 402.137 358.839 450.658 358.839Z" fill="url(#paint3_radial_240_3917)"/>
<path opacity="0.94" fill-rule="evenodd" clip-rule="evenodd" d="M520.547 352C520.547 353.98 489.286 355.509 450.658 355.509C412.03 355.509 380.769 353.98 380.769 352C380.769 350.02 412.03 348.491 450.658 348.491C489.286 348.491 520.547 350.02 520.547 352Z" fill="url(#paint4_radial_240_3917)"/>
<path opacity="0.94" fill-rule="evenodd" clip-rule="evenodd" d="M598.97 343.722C598.97 345.072 578.04 346.241 552.258 346.241C526.476 346.241 505.545 345.161 505.545 343.722C505.545 342.282 526.476 341.202 552.258 341.202C578.04 341.202 598.97 342.372 598.97 343.722Z" fill="url(#paint5_radial_240_3917)"/>
<path opacity="0.94" fill-rule="evenodd" clip-rule="evenodd" d="M300.189 344.622C300.189 346.511 247.458 348.041 182.42 348.041C117.382 348.041 64.6502 346.511 64.6502 344.622C64.6502 342.732 117.382 341.202 182.42 341.202C247.458 341.202 300.189 342.732 300.189 344.622Z" fill="url(#paint6_radial_240_3917)"/>
<path d="M456.767 81.1615C456.497 82.2413 456.228 83.231 455.958 84.1308C452.455 95.1983 445.628 96.1881 442.034 114.634H421.014C417.331 95.8282 410.324 95.1983 406.91 83.411C406.73 82.6912 406.461 81.8813 406.281 81.0715C403.137 67.0347 419.666 54.7075 431.524 54.7075C443.382 54.7075 459.911 67.1247 456.767 81.1615Z" fill="url(#paint7_radial_240_3917)"/>
<g opacity="0.8">
<path opacity="0.8" d="M431.524 54.9775C438.71 54.9775 447.334 59.4764 452.365 65.865C455.06 69.1942 457.934 74.593 456.497 81.1615C455.06 87.3701 452.814 90.7893 450.299 94.3885C447.334 98.7075 443.921 103.566 441.765 114.544H431.434H421.103C418.947 103.656 415.534 98.7075 412.569 94.3885C410.144 90.7893 407.808 87.4601 406.371 81.1615C404.933 74.683 407.808 69.2842 410.503 65.865C415.713 59.3865 424.337 54.9775 431.524 54.9775ZM431.524 54.7075C419.576 54.7075 403.137 67.0347 406.281 81.0715C409.425 95.1083 417.061 94.6584 421.013 114.544H431.524H442.034C445.897 94.5685 453.622 95.0184 456.767 81.0715C459.911 67.1247 443.382 54.7075 431.524 54.7075Z" fill="url(#paint8_radial_240_3917)"/>
</g>
<path opacity="0.8" fill-rule="evenodd" clip-rule="evenodd" d="M436.015 85.3005C436.015 85.3005 436.734 93.7586 431.703 95.3783C426.583 93.7586 427.391 85.3005 427.391 85.3005L426.224 86.0204C428.02 94.8384 428.469 112.924 428.469 112.924H431.703H434.937C434.937 112.924 435.387 94.8384 437.183 86.0204L436.015 85.3005Z" fill="url(#paint9_linear_240_3917)"/>
<path opacity="0.8" fill-rule="evenodd" clip-rule="evenodd" d="M419.935 110.135C420.834 112.744 438.351 113.824 442.843 110.945L442.304 113.194L420.744 113.464L419.935 110.135Z" fill="url(#paint10_linear_240_3917)"/>
<path d="M440.417 82.0613C447.016 82.0613 452.365 76.7033 452.365 70.094C452.365 63.4846 447.016 58.1267 440.417 58.1267C433.819 58.1267 428.469 63.4846 428.469 70.094C428.469 76.7033 433.819 82.0613 440.417 82.0613Z" fill="url(#paint11_radial_240_3917)"/>
<path d="M418.678 81.8813C421.013 87.55 420.474 93.2187 417.51 94.3885C414.546 95.6482 410.234 91.959 407.898 86.2903C405.562 80.6216 406.101 74.9529 409.066 73.7831C412.03 72.5234 416.342 76.1226 418.678 81.8813Z" fill="url(#paint12_radial_240_3917)"/>
<path opacity="0.3" d="M455.958 84.1308C452.455 95.1983 445.627 96.1881 442.034 114.634H421.013C417.33 95.8282 410.323 95.1983 406.91 83.411C410.952 91.9591 420.295 95.1983 435.566 94.6585C450.748 94.1186 455.958 84.1308 455.958 84.1308Z" fill="url(#paint13_linear_240_3917)"/>
<path fill-rule="evenodd" clip-rule="evenodd" d="M418.768 113.824L420.385 128.671C420.385 128.671 427.751 126.781 442.304 128.671L444.28 114.544C444.28 114.634 433.68 110.945 418.768 113.824Z" fill="url(#paint14_radial_240_3917)"/>
<path fill-rule="evenodd" clip-rule="evenodd" d="M420.385 128.761C420.385 128.761 431.344 131.82 442.304 128.761C442.304 128.761 429.458 125.971 420.385 128.761Z" fill="url(#paint15_linear_240_3917)"/>
<path fill-rule="evenodd" clip-rule="evenodd" d="M424.337 128.761L425.415 130.92C425.415 130.92 431.254 132.27 437.183 130.92L438.261 128.851C438.171 128.761 432.063 126.961 424.337 128.761Z" fill="url(#paint16_radial_240_3917)"/>
<path opacity="0.5" fill-rule="evenodd" clip-rule="evenodd" d="M425.415 130.83C425.415 130.83 432.063 129.211 437.183 130.83C437.093 130.83 430.985 132.18 425.415 130.83Z" fill="#614881"/>
<path fill-rule="evenodd" clip-rule="evenodd" d="M420.205 126.961L418.229 125.161C418.229 125.161 430.356 118.413 445.178 119.763L443.202 122.822C443.112 122.822 430.715 119.583 420.205 126.961Z" fill="url(#paint17_radial_240_3917)"/>
<path fill-rule="evenodd" clip-rule="evenodd" d="M419.576 121.382L418.139 120.213C418.139 120.213 428.29 112.025 446.077 113.374L444.01 116.434C444.01 116.524 431.614 113.104 419.576 121.382Z" fill="url(#paint18_radial_240_3917)"/>
<path fill-rule="evenodd" clip-rule="evenodd" d="M418.229 120.303L419.396 118.863C419.396 118.863 433.32 110.945 446.166 113.464C446.077 113.374 432.242 111.125 418.229 120.303Z" fill="url(#paint19_linear_240_3917)"/>
<path fill-rule="evenodd" clip-rule="evenodd" d="M418.229 125.161L419.846 123.272C419.846 123.272 430.176 118.503 443.651 119.313L445.178 119.763C445.088 119.763 431.254 118.413 418.229 125.161Z" fill="url(#paint20_linear_240_3917)"/>
<path opacity="0.3" d="M418.229 125.161L420.205 126.961L420.385 128.131C420.385 128.131 423.708 123.542 431.793 122.732C439.878 121.922 442.753 125.161 442.753 125.161L443.112 122.822L445.088 119.763C445.088 119.763 429.817 119.043 418.229 125.161Z" fill="#614881"/>
<path opacity="0.3" d="M418.229 120.303L419.666 121.472L419.846 123.362C419.846 123.362 422.451 118.233 431.344 116.883C440.237 115.534 443.831 118.503 443.831 118.503L444.1 116.523L446.166 113.464C446.077 113.374 431.883 111.215 418.229 120.303Z" fill="#614881"/>
<path fill-rule="evenodd" clip-rule="evenodd" d="M80.5505 341.922L79.5623 303.321L236.049 304.311L234.073 341.922H80.5505Z" fill="url(#paint21_linear_240_3917)"/>
<g opacity="0.3">
<path opacity="0.3" fill-rule="evenodd" clip-rule="evenodd" d="M80.5505 341.922C80.5505 341.922 140.289 338.863 160.052 327.525C179.815 316.188 154.123 303.771 154.123 303.771H164.543C164.543 303.771 176.85 313.579 171.73 325.816C166.609 338.053 127.622 341.922 127.622 341.922H80.5505Z" fill="url(#paint22_linear_240_3917)"/>
<path opacity="0.3" fill-rule="evenodd" clip-rule="evenodd" d="M141.367 341.922C141.367 341.922 171.999 337.063 177.749 326.176C183.498 315.198 172.898 303.771 172.898 303.771H176.311C176.311 303.771 185.654 317.538 178.916 326.896C172.089 336.254 149.452 341.922 149.452 341.922H141.367Z" fill="url(#paint23_linear_240_3917)"/>
<path opacity="0.3" fill-rule="evenodd" clip-rule="evenodd" d="M163.555 341.922C163.555 341.922 201.824 334.634 205.686 304.311H212.963C212.963 304.311 209.1 328.605 176.491 341.922H163.555Z" fill="url(#paint24_linear_240_3917)"/>
<path opacity="0.3" fill-rule="evenodd" clip-rule="evenodd" d="M201.644 341.922C201.644 341.922 227.515 332.924 235.6 312.589L235.511 314.568C235.511 314.568 227.785 333.734 203.53 341.922H201.644Z" fill="url(#paint25_linear_240_3917)"/>
<path opacity="0.3" fill-rule="evenodd" clip-rule="evenodd" d="M209.01 341.922C209.01 341.922 227.605 335.084 235.331 319.157L235.241 320.597C235.241 320.597 228.683 335.084 210.178 341.922H209.01Z" fill="url(#paint26_linear_240_3917)"/>
<path opacity="0.3" fill-rule="evenodd" clip-rule="evenodd" d="M80.5505 341.922C80.5505 341.922 148.643 337.243 155.291 323.116C161.938 308.99 143.882 303.681 143.882 303.681H137.594C137.594 303.681 158.165 309.08 152.955 321.947C147.655 334.814 80.5505 338.053 80.5505 338.053V341.922Z" fill="url(#paint27_linear_240_3917)"/>
<path opacity="0.3" fill-rule="evenodd" clip-rule="evenodd" d="M80.2809 334.364C80.2809 334.364 123.49 332.024 129.599 319.427C135.707 306.83 116.483 303.501 116.483 303.501L110.734 303.771C110.734 303.771 132.922 307.37 128.341 318.078C123.76 328.785 80.2809 331.935 80.2809 331.935V334.364Z" fill="url(#paint28_linear_240_3917)"/>
<path opacity="0.3" fill-rule="evenodd" clip-rule="evenodd" d="M80.1013 327.526C80.1013 327.526 96.9897 325.636 100.493 317.268C104.086 308.9 98.2474 303.501 98.2474 303.501L92.5879 303.591C92.5879 303.591 103.008 308.54 98.6965 316.638C94.3846 324.736 80.0115 324.736 80.0115 324.736V327.526H80.1013Z" fill="url(#paint29_linear_240_3917)"/>
</g>
<path fill-rule="evenodd" clip-rule="evenodd" d="M80.5505 341.922V343.542L234.073 343.272V341.922H80.5505Z" fill="#D94A4D"/>
<g opacity="0.6">
<path opacity="0.6" fill-rule="evenodd" clip-rule="evenodd" d="M176.401 303.771C176.401 303.771 199.668 327.616 151.338 341.922H163.555C163.555 341.922 199.218 338.773 205.686 304.311L176.401 303.771Z" fill="#FFC27F"/>
<path opacity="0.6" fill-rule="evenodd" clip-rule="evenodd" d="M188.259 341.922C188.259 341.922 222.665 332.385 227.875 304.311H231.917C231.917 304.311 223.473 332.205 191.044 341.922H188.259Z" fill="#FFC27F"/>
</g>
<path d="M84.8631 305.211H84.4132V311.869H84.8631V305.211Z" fill="url(#paint30_radial_240_3917)"/>
<path d="M89.2649 305.211H88.815V311.869H89.2649V305.211Z" fill="url(#paint31_radial_240_3917)"/>
<path d="M93.5767 305.211H93.1269V311.869H93.5767V305.211Z" fill="url(#paint32_radial_240_3917)"/>
<path d="M97.9785 305.211H97.5287V316.278H97.9785V305.211Z" fill="url(#paint33_radial_240_3917)"/>
<path d="M102.111 305.211H101.661V311.869H102.111V305.211Z" fill="url(#paint34_radial_240_3917)"/>
<path d="M106.423 305.211H105.973V311.869H106.423V305.211Z" fill="url(#paint35_radial_240_3917)"/>
<path d="M110.824 305.211H110.375V311.869H110.824V305.211Z" fill="url(#paint36_radial_240_3917)"/>
<path d="M115.136 305.211H114.687V316.278H115.136V305.211Z" fill="url(#paint37_radial_240_3917)"/>
<path d="M119.269 305.211H118.819V311.869H119.269V305.211Z" fill="url(#paint38_radial_240_3917)"/>
<path d="M123.67 305.211H123.221V311.869H123.67V305.211Z" fill="url(#paint39_radial_240_3917)"/>
<path d="M127.982 305.211H127.533V311.869H127.982V305.211Z" fill="url(#paint40_radial_240_3917)"/>
<path d="M132.384 305.211H131.934V316.278H132.384V305.211Z" fill="url(#paint41_radial_240_3917)"/>
<path d="M136.516 305.211H136.067V311.869H136.516V305.211Z" fill="url(#paint42_radial_240_3917)"/>
<path d="M140.828 305.211H140.378V311.869H140.828V305.211Z" fill="url(#paint43_radial_240_3917)"/>
<path d="M145.23 305.211H144.78V311.869H145.23V305.211Z" fill="url(#paint44_radial_240_3917)"/>
<path d="M149.542 305.211H149.092V316.278H149.542V305.211Z" fill="url(#paint45_radial_240_3917)"/>
<path d="M153.674 305.211H153.224V311.869H153.674V305.211Z" fill="url(#paint46_radial_240_3917)"/>
<path d="M158.076 305.211H157.626V311.869H158.076V305.211Z" fill="url(#paint47_radial_240_3917)"/>
<path d="M162.388 305.211H161.938V311.869H162.388V305.211Z" fill="url(#paint48_radial_240_3917)"/>
<path d="M166.79 305.211H166.34V316.278H166.79V305.211Z" fill="url(#paint49_radial_240_3917)"/>
<path d="M170.922 305.211H170.472V311.869H170.922V305.211Z" fill="url(#paint50_radial_240_3917)"/>
<path d="M175.234 305.211H174.784V311.869H175.234V305.211Z" fill="url(#paint51_radial_240_3917)"/>
<path d="M179.636 305.211H179.186V311.869H179.636V305.211Z" fill="url(#paint52_radial_240_3917)"/>
<path d="M183.948 305.211H183.498V316.278H183.948V305.211Z" fill="url(#paint53_radial_240_3917)"/>
<path d="M188.08 305.211H187.63V311.869H188.08V305.211Z" fill="url(#paint54_radial_240_3917)"/>
<path d="M192.482 305.211H192.032V311.869H192.482V305.211Z" fill="url(#paint55_radial_240_3917)"/>
<path d="M196.794 305.211H196.344V311.869H196.794V305.211Z" fill="url(#paint56_radial_240_3917)"/>
<path d="M201.195 305.211H200.746V316.278H201.195V305.211Z" fill="url(#paint57_radial_240_3917)"/>
<path d="M205.148 305.211H204.698V311.869H205.148V305.211Z" fill="url(#paint58_radial_240_3917)"/>
<path d="M209.46 305.211H209.01V311.869H209.46V305.211Z" fill="url(#paint59_radial_240_3917)"/>
<path d="M213.862 305.211H213.412V311.869H213.862V305.211Z" fill="url(#paint60_radial_240_3917)"/>
<path d="M218.174 305.211H217.724V316.278H218.174V305.211Z" fill="url(#paint61_radial_240_3917)"/>
<path d="M222.306 305.211H221.856V311.869H222.306V305.211Z" fill="url(#paint62_radial_240_3917)"/>
<path d="M226.708 305.211H226.258V311.869H226.708V305.211Z" fill="url(#paint63_radial_240_3917)"/>
<path d="M231.02 305.211H230.57V311.869H231.02V305.211Z" fill="url(#paint64_radial_240_3917)"/>
<path fill-rule="evenodd" clip-rule="evenodd" d="M362.712 113.554L380.14 128.041L353.909 151.436L341.871 131.82L362.712 113.554Z" fill="#F4E5F7"/>
<path fill-rule="evenodd" clip-rule="evenodd" d="M353.909 151.436L370.618 157.284L386.428 141.358L380.14 128.041L353.909 151.436Z" fill="#DBB9E9"/>
<path d="M369.54 358.839C517.287 358.839 637.059 338.575 637.059 313.579C637.059 288.583 517.287 268.319 369.54 268.319C221.793 268.319 102.02 288.583 102.02 313.579C102.02 338.575 221.793 358.839 369.54 358.839Z" fill="url(#paint65_radial_240_3917)"/>
<path fill-rule="evenodd" clip-rule="evenodd" d="M589.628 144.327L448.592 189.137C446.256 189.857 444.999 192.376 445.807 194.716L457.755 228.728C458.563 230.888 460.809 232.057 463.055 231.427L601.845 191.027C604.091 190.397 605.438 188.057 604.81 185.808L595.197 147.476C594.479 144.957 591.964 143.517 589.628 144.327ZM453.712 197.505C452.365 197.865 450.838 197.145 450.478 195.706C450.119 194.356 450.838 192.826 452.275 192.466C453.712 192.016 455.15 192.826 455.509 194.266C455.868 195.706 455.15 197.145 453.712 197.505Z" fill="url(#paint66_linear_240_3917)"/>
<path fill-rule="evenodd" clip-rule="evenodd" d="M589.448 143.877L448.412 188.687C446.077 189.407 444.819 191.926 445.627 194.266L457.575 228.278C458.384 230.438 460.629 231.607 462.875 230.977L601.665 190.577C603.911 189.947 605.259 187.607 604.63 185.358L595.018 147.027C594.389 144.507 591.784 143.157 589.448 143.877ZM453.533 197.145C452.185 197.505 450.658 196.785 450.299 195.346C449.939 193.996 450.658 192.466 452.095 192.106C453.533 191.656 454.97 192.466 455.329 193.906C455.778 195.256 454.97 196.695 453.533 197.145Z" fill="url(#paint67_linear_240_3917)"/>
<path fill-rule="evenodd" clip-rule="evenodd" d="M488.747 218.83L471.319 223.959L460.18 190.127L477.697 184.548L488.747 218.83Z" fill="#598800"/>
<path fill-rule="evenodd" clip-rule="evenodd" d="M509.139 212.982L491.262 218.11L480.213 183.738L498.269 178.07L509.139 212.982Z" fill="#5E9339"/>
<path fill-rule="evenodd" clip-rule="evenodd" d="M529.98 206.863L511.654 212.172L500.784 177.26L519.289 171.411L529.98 206.863Z" fill="#97B368"/>
<path fill-rule="evenodd" clip-rule="evenodd" d="M551.449 200.564L532.585 206.143L521.895 170.601L540.939 164.573L551.449 200.564Z" fill="#B1CC00"/>
<path fill-rule="evenodd" clip-rule="evenodd" d="M573.458 194.176L554.144 199.845L543.634 163.673L563.217 157.464L573.458 194.176Z" fill="#E5CC00"/>
<path fill-rule="evenodd" clip-rule="evenodd" d="M596.186 187.607L576.243 193.366L566.002 156.654L586.214 150.266L596.186 187.607Z" fill="#EAD631"/>
<path fill-rule="evenodd" clip-rule="evenodd" d="M577.051 117.063L448.322 190.127C446.166 191.386 445.538 194.086 446.795 196.155L465.48 226.928C466.648 228.908 469.163 229.628 471.229 228.458L598.701 160.164C600.767 159.084 601.576 156.564 600.587 154.405L583.25 118.863C581.992 116.703 579.207 115.804 577.051 117.063ZM455.15 197.325C453.892 198.045 452.275 197.505 451.556 196.245C450.838 194.986 451.377 193.366 452.634 192.646C453.892 191.926 455.509 192.466 456.228 193.726C456.856 195.076 456.407 196.605 455.15 197.325Z" fill="url(#paint68_linear_240_3917)"/>
<path fill-rule="evenodd" clip-rule="evenodd" d="M576.782 116.703L448.053 189.767C445.897 191.027 445.268 193.726 446.526 195.795L465.211 226.568C466.379 228.548 468.894 229.268 470.96 228.098L598.431 159.804C600.498 158.724 601.306 156.204 600.318 154.045L582.98 118.503C581.723 116.344 578.938 115.444 576.782 116.703ZM454.88 196.965C453.622 197.685 452.005 197.145 451.287 195.885C450.568 194.626 451.107 193.006 452.365 192.286C453.622 191.566 455.239 192.106 455.958 193.366C456.677 194.716 456.138 196.245 454.88 196.965Z" fill="url(#paint69_linear_240_3917)"/>
<path fill-rule="evenodd" clip-rule="evenodd" d="M493.777 210.912L477.787 219.55L459.821 188.687L475.901 179.599L493.777 210.912Z" fill="#005D88"/>
<path fill-rule="evenodd" clip-rule="evenodd" d="M512.462 200.924L496.113 209.742L478.147 178.339L494.676 169.072L512.462 200.924Z" fill="#005AD9"/>
<path fill-rule="evenodd" clip-rule="evenodd" d="M531.686 190.667L514.798 199.665L496.921 167.722L513.9 158.184L531.686 190.667Z" fill="#5B5BFF"/>
<path fill-rule="evenodd" clip-rule="evenodd" d="M551.36 180.049L534.022 189.407L516.235 156.834L533.663 146.937L551.36 180.049Z" fill="#8D91FF"/>
<path fill-rule="evenodd" clip-rule="evenodd" d="M571.572 169.251L553.785 178.789L536.088 145.587L554.054 135.419L571.572 169.251Z" fill="#C2BAFF"/>
<path fill-rule="evenodd" clip-rule="evenodd" d="M592.413 158.094L574.087 167.902L556.57 133.979L574.895 123.632L592.413 158.094Z" fill="#FF8DF4"/>
<path opacity="0.5" fill-rule="evenodd" clip-rule="evenodd" d="M559.085 93.4888L447.154 190.487C445.358 192.106 445.178 194.896 446.795 196.695L471.14 223.149C472.667 224.859 475.272 225.039 477.068 223.599L588.64 131.55C590.436 130.02 590.706 127.411 589.358 125.522L565.373 94.1186C563.846 92.1391 560.972 91.8692 559.085 93.4888ZM455.239 196.155C454.161 197.055 452.455 196.965 451.556 195.796C450.658 194.716 450.838 193.006 451.916 192.106C452.994 191.207 454.7 191.387 455.599 192.466C456.497 193.636 456.407 195.256 455.239 196.155Z" fill="#914881"/>
<path fill-rule="evenodd" clip-rule="evenodd" d="M558.636 92.679L446.705 189.677C444.909 191.297 444.729 194.086 446.346 195.886L470.69 222.339C472.218 224.049 474.823 224.229 476.619 222.789L588.191 130.74C589.987 129.211 590.257 126.601 588.909 124.712L564.924 93.3088C563.397 91.3293 560.522 91.0593 558.636 92.679ZM454.79 195.346C453.712 196.245 452.005 196.155 451.107 194.986C450.209 193.906 450.388 192.196 451.466 191.297C452.544 190.397 454.251 190.577 455.15 191.656C456.138 192.826 455.958 194.446 454.79 195.346Z" fill="url(#paint70_linear_240_3917)"/>
<path fill-rule="evenodd" clip-rule="evenodd" d="M558.366 92.409L446.436 189.407C444.639 191.027 444.46 193.816 446.077 195.616L470.421 222.16C471.948 223.869 474.553 224.049 476.35 222.609L587.921 130.56C589.718 129.031 589.987 126.421 588.64 124.532L564.655 93.1289C563.127 91.0594 560.253 90.6994 558.366 92.409ZM454.521 195.076C453.443 195.976 451.736 195.886 450.838 194.716C449.939 193.636 450.119 191.926 451.197 191.027C452.275 190.127 453.982 190.307 454.88 191.387C455.778 192.466 455.689 194.176 454.521 195.076Z" fill="url(#paint71_linear_240_3917)"/>
<path fill-rule="evenodd" clip-rule="evenodd" d="M495.484 201.104L481.47 212.622L457.845 185.988L471.768 173.931L495.484 201.104Z" fill="#88005B"/>
<path fill-rule="evenodd" clip-rule="evenodd" d="M511.833 187.608L497.46 199.485L473.745 172.221L488.028 159.894L511.833 187.608Z" fill="#D9005B"/>
<path fill-rule="evenodd" clip-rule="evenodd" d="M528.542 173.751L513.81 185.898L490.094 158.094L504.827 145.407L528.542 173.751Z" fill="#FF665B"/>
<path fill-rule="evenodd" clip-rule="evenodd" d="M545.79 159.534L530.698 172.041L506.893 143.607L521.984 130.56L545.79 159.534Z" fill="#FF928D"/>
<path fill-rule="evenodd" clip-rule="evenodd" d="M563.577 144.867L547.946 157.734L524.14 128.671L539.681 115.264L563.577 144.867Z" fill="#FFC4BA"/>
<path fill-rule="evenodd" clip-rule="evenodd" d="M581.813 129.841L565.733 143.068L541.837 113.374L557.827 99.5175L581.813 129.841Z" fill="#FFD88D"/>
<path opacity="0.5" fill-rule="evenodd" clip-rule="evenodd" d="M547.587 83.4111L446.975 192.196C445.358 193.996 445.448 196.785 447.334 198.405L473.745 221.62C475.452 223.149 478.057 223.059 479.674 221.44L580.914 118.053C582.531 116.344 582.531 113.734 581.004 112.025L553.875 83.3211C552.168 81.5215 549.204 81.5215 547.587 83.4111ZM455.689 196.965C454.7 197.955 452.994 198.045 452.005 196.965C451.017 195.975 450.927 194.266 452.005 193.276C452.994 192.196 454.7 192.196 455.689 193.276C456.677 194.266 456.677 195.975 455.689 196.965Z" fill="#914881"/>
<path fill-rule="evenodd" clip-rule="evenodd" d="M547.048 82.8712L446.526 191.656C444.909 193.456 444.999 196.245 446.885 197.865L473.296 221.08C475.002 222.609 477.608 222.519 479.224 220.9L580.465 117.603C582.082 115.894 582.082 113.284 580.555 111.575L553.336 82.8712C551.629 80.9816 548.754 81.0716 547.048 82.8712ZM455.15 196.515C454.161 197.505 452.455 197.595 451.466 196.515C450.478 195.526 450.388 193.816 451.466 192.826C452.455 191.746 454.161 191.746 455.15 192.826C456.138 193.816 456.138 195.436 455.15 196.515Z" fill="url(#paint72_linear_240_3917)"/>
<path fill-rule="evenodd" clip-rule="evenodd" d="M546.688 82.6012L446.166 191.387C444.549 193.186 444.639 195.975 446.526 197.595L472.936 220.81C474.643 222.339 477.248 222.249 478.865 220.63L580.106 117.243C581.723 115.534 581.723 112.924 580.196 111.215L553.066 82.5113C551.36 80.7117 548.395 80.7117 546.688 82.6012ZM454.88 196.155C453.892 197.145 452.185 197.235 451.197 196.155C450.209 195.166 450.119 193.456 451.197 192.466C452.185 191.387 453.892 191.387 454.88 192.466C455.868 193.456 455.868 195.166 454.88 196.155Z" fill="url(#paint73_linear_240_3917)"/>
<path fill-rule="evenodd" clip-rule="evenodd" d="M449.76 191.207C448.053 193.006 448.053 195.886 449.849 197.595C451.646 199.395 454.521 199.305 456.228 197.505C457.934 195.706 457.934 192.826 456.138 191.117C454.341 189.407 451.466 189.407 449.76 191.207ZM454.611 195.976C453.712 196.875 452.275 196.875 451.377 195.976C450.478 195.076 450.478 193.636 451.377 192.736C452.275 191.836 453.712 191.836 454.611 192.736C455.509 193.636 455.509 195.076 454.611 195.976Z" fill="url(#paint74_linear_240_3917)"/>
<path fill-rule="evenodd" clip-rule="evenodd" d="M451.107 192.556C450.119 193.546 450.119 195.256 451.107 196.245C452.185 197.235 453.802 197.235 454.79 196.245C455.778 195.166 455.778 193.546 454.79 192.556C453.802 191.477 452.095 191.477 451.107 192.556ZM454.611 195.976C453.712 196.875 452.275 196.875 451.377 195.976C450.478 195.076 450.478 193.636 451.377 192.736C452.275 191.836 453.712 191.836 454.611 192.736C455.509 193.636 455.509 195.076 454.611 195.976Z" fill="url(#paint75_linear_240_3917)"/>
<path fill-rule="evenodd" clip-rule="evenodd" d="M559.804 213.342L562.858 242.585L591.964 231.787L588.011 203.804L559.804 213.342Z" fill="#F4E5F7"/>
<path fill-rule="evenodd" clip-rule="evenodd" d="M607.145 239.436L591.964 231.787L588.011 203.804L603.911 213.791L607.145 239.436Z" fill="#EBCFF0"/>
<path fill-rule="evenodd" clip-rule="evenodd" d="M562.858 242.585L588.37 249.423L607.145 239.436L591.964 231.787L562.858 242.585Z" fill="#DBB9E9"/>
<path fill-rule="evenodd" clip-rule="evenodd" d="M410.952 337.243H334.146L340.524 308.63L340.793 307.64H350.316C350.316 307.82 350.585 308.9 351.124 310.429C352.921 315.558 358.49 325.816 373.043 325.816C382.475 325.816 387.776 321.497 390.65 317.088C393.794 312.409 394.243 307.64 394.243 307.64H404.305L407 319.877L410.952 337.243Z" fill="url(#paint76_linear_240_3917)"/>
<path fill-rule="evenodd" clip-rule="evenodd" d="M310.969 337.243C310.969 337.243 309.173 340.303 312.766 343.002H429.907C429.907 343.002 434.129 340.573 433.231 337.243H310.969Z" fill="url(#paint77_linear_240_3917)"/>
<path opacity="0.5" fill-rule="evenodd" clip-rule="evenodd" d="M350.316 307.55C350.316 307.73 350.585 308.81 351.124 310.339L340.524 308.54H340.434L340.793 307.55H350.316Z" fill="#614881"/>
<path opacity="0.5" fill-rule="evenodd" clip-rule="evenodd" d="M407.089 319.787L390.74 316.998C393.884 312.319 394.333 307.55 394.333 307.55H404.395L407.089 319.787Z" fill="#614881"/>
<path fill-rule="evenodd" clip-rule="evenodd" d="M235.6 293.423L252.938 156.564C253.746 150.266 259.046 145.587 265.335 145.587H481.83C488.208 145.587 493.598 150.356 494.316 156.744L509.588 293.603C510.396 301.072 504.647 307.55 497.101 307.55H248.087C240.541 307.55 234.702 300.982 235.6 293.423Z" fill="url(#paint78_linear_240_3917)"/>
<path fill-rule="evenodd" clip-rule="evenodd" d="M235.151 292.613L253.297 149.276C253.926 144.597 257.789 141.178 262.55 141.178H484.794C489.555 141.178 493.508 144.777 494.047 149.456L510.037 292.793C510.666 298.282 506.354 303.141 500.784 303.141H244.404C238.834 303.051 234.433 298.192 235.151 292.613Z" fill="#0A1D45"/>
<path opacity="0.6" fill-rule="evenodd" clip-rule="evenodd" d="M355.526 141.178L502.76 228.008L493.957 149.456C493.957 149.456 493.238 141.178 484.704 141.178H355.526Z" fill="white"/>
<path opacity="0.6" fill-rule="evenodd" clip-rule="evenodd" d="M240.272 252.573L321.39 303.051L242.877 302.871C242.877 302.871 235.331 300.532 235.6 293.423C235.96 286.315 235.151 292.523 235.151 292.523L240.272 252.573Z" fill="white"/>
<path fill-rule="evenodd" clip-rule="evenodd" d="M257.699 155.845L485.692 151.256L503.479 285.955H241.529L257.699 155.845Z" fill="url(#paint79_linear_240_3917)"/>
<path fill-rule="evenodd" clip-rule="evenodd" d="M260.933 285.955L273.599 166.462H472.846L485.243 285.955H260.933Z" fill="white"/>
<path fill-rule="evenodd" clip-rule="evenodd" d="M242.877 285.955L259.046 157.014L485.243 152.245L502.042 285.955H503.479L485.692 151.256L257.699 155.845L241.529 285.955H242.877Z" fill="url(#paint80_linear_240_3917)"/>
<path fill-rule="evenodd" clip-rule="evenodd" d="M488.657 294.593V296.752H497.46V294.143L488.657 294.593Z" fill="url(#paint81_linear_240_3917)"/>
<path fill-rule="evenodd" clip-rule="evenodd" d="M488.657 294.593L494.496 294.323V296.752H488.657V294.593Z" fill="#FF6BFF"/>
<path fill-rule="evenodd" clip-rule="evenodd" d="M463.504 220C436.734 220 427.122 174.56 397.388 176.63C367.653 178.699 364.779 220 351.394 220C338.009 220 337.739 197.235 319.414 198.315C301.088 199.395 293.901 220 293.901 220H463.504Z" fill="url(#paint82_linear_240_3917)"/>
<path fill-rule="evenodd" clip-rule="evenodd" d="M355.167 220H463.504C463.504 220 467.277 188.687 443.651 182.838C420.025 176.99 410.952 203.444 401.43 205.243C391.908 207.043 390.111 200.294 378.792 200.924C367.474 201.644 366.665 215.231 359.748 217.57C352.831 219.91 350.495 213.251 342.231 214.781C333.966 216.311 331.181 219.91 331.181 219.91H355.167V220Z" fill="url(#paint83_linear_240_3917)"/>
<path fill-rule="evenodd" clip-rule="evenodd" d="M276.833 169.521L276.384 172.491H301.986L302.525 169.521H276.833Z" fill="url(#paint84_linear_240_3917)"/>
<path fill-rule="evenodd" clip-rule="evenodd" d="M347.8 169.521L347.351 172.491H357.772L358.311 169.521H347.8Z" fill="#DDAEE5"/>
<path fill-rule="evenodd" clip-rule="evenodd" d="M367.474 169.521L367.024 172.491H377.445L377.984 169.521H367.474Z" fill="#DDAEE5"/>
<path fill-rule="evenodd" clip-rule="evenodd" d="M387.147 169.521L386.608 172.491H397.118L397.567 169.521H387.147Z" fill="#DDAEE5"/>
<path fill-rule="evenodd" clip-rule="evenodd" d="M406.73 169.521L406.281 172.491H416.701L417.24 169.521H406.73Z" fill="#DDAEE5"/>
<path fill-rule="evenodd" clip-rule="evenodd" d="M453.263 169.521L452.814 172.491H463.234L463.773 169.521H453.263Z" fill="#DDAEE5"/>
<path fill-rule="evenodd" clip-rule="evenodd" d="M273.599 226.659L471.948 223.869L473.475 239.526L272.521 239.436L273.599 226.659Z" fill="#F0DBF4"/>
<path fill-rule="evenodd" clip-rule="evenodd" d="M328.756 282.716H296.057L300.639 242.405H331.361L328.756 282.716Z" fill="#CEECF4"/>
<path fill-rule="evenodd" clip-rule="evenodd" d="M306.837 253.292L305.4 267.329H322.108L323.186 253.292H306.837ZM319.503 264.81H308.634L309.532 255.632H320.312L319.503 264.81Z" fill="white"/>
<path fill-rule="evenodd" clip-rule="evenodd" d="M309.622 264H318.785L316.269 259.051L314.024 260.941L313.305 260.401L309.622 264Z" fill="white"/>
<path fill-rule="evenodd" clip-rule="evenodd" d="M314.383 258.601C314.293 259.411 313.574 260.131 312.676 260.131C311.778 260.131 311.149 259.411 311.239 258.601C311.329 257.791 312.047 257.072 312.946 257.072C313.844 257.072 314.473 257.791 314.383 258.601Z" fill="white"/>
<path fill-rule="evenodd" clip-rule="evenodd" d="M368.462 282.716H335.763L337.919 242.405H368.641L368.462 282.716Z" fill="#CEC4F4"/>
<path fill-rule="evenodd" clip-rule="evenodd" d="M344.836 253.292L344.207 267.329H360.916L361.185 253.292H344.836ZM358.131 264.81H347.261L347.621 255.632H358.401L358.131 264.81Z" fill="white"/>
<path fill-rule="evenodd" clip-rule="evenodd" d="M348.25 264H357.323L354.628 259.051L352.382 260.941L351.663 260.401L348.25 264Z" fill="white"/>
<path fill-rule="evenodd" clip-rule="evenodd" d="M352.651 258.601C352.651 259.411 351.933 260.131 351.034 260.131C350.136 260.131 349.507 259.411 349.507 258.601C349.507 257.791 350.226 257.072 351.124 257.072C352.022 257.072 352.651 257.791 352.651 258.601Z" fill="white"/>
<path fill-rule="evenodd" clip-rule="evenodd" d="M408.167 282.716H375.469L375.289 242.405H406.011L408.167 282.716Z" fill="#CED1F4"/>
<path fill-rule="evenodd" clip-rule="evenodd" d="M382.745 253.292L383.014 267.329H399.723L399.094 253.292H382.745ZM396.759 264.81H385.889L385.709 255.632H396.489L396.759 264.81Z" fill="white"/>
<path fill-rule="evenodd" clip-rule="evenodd" d="M386.787 264H395.95L392.896 259.051L390.83 260.941L390.021 260.401L386.787 264Z" fill="white"/>
<path fill-rule="evenodd" clip-rule="evenodd" d="M390.92 258.601C390.92 259.411 390.291 260.131 389.393 260.131C388.494 260.131 387.776 259.411 387.776 258.601C387.776 257.791 388.404 257.072 389.303 257.072C390.201 257.072 390.92 257.791 390.92 258.601Z" fill="white"/>
<path fill-rule="evenodd" clip-rule="evenodd" d="M447.873 282.716H415.174L412.569 242.405H443.292L447.873 282.716Z" fill="#FFC4F4"/>
<path fill-rule="evenodd" clip-rule="evenodd" d="M420.744 253.292L421.822 267.329H438.531L437.093 253.292H420.744ZM435.387 264.81H424.517L423.798 255.632H434.578L435.387 264.81Z" fill="white"/>
<path fill-rule="evenodd" clip-rule="evenodd" d="M425.415 264H434.488L431.164 259.051L429.188 260.941L428.38 260.401L425.415 264Z" fill="white"/>
<path fill-rule="evenodd" clip-rule="evenodd" d="M429.188 258.601C429.278 259.411 428.649 260.131 427.751 260.131C426.853 260.131 426.134 259.411 426.044 258.601C425.954 257.791 426.583 257.072 427.481 257.072C428.38 257.072 429.098 257.791 429.188 258.601Z" fill="white"/>
<path d="M352.651 206.863C357.365 206.863 361.185 203.036 361.185 198.315C361.185 193.594 357.365 189.767 352.651 189.767C347.938 189.767 344.117 193.594 344.117 198.315C344.117 203.036 347.938 206.863 352.651 206.863Z" fill="url(#paint85_linear_240_3917)"/>
<path d="M334.326 201.104C336.856 201.104 338.907 199.05 338.907 196.515C338.907 193.981 336.856 191.926 334.326 191.926C331.795 191.926 329.744 193.981 329.744 196.515C329.744 199.05 331.795 201.104 334.326 201.104Z" fill="url(#paint86_linear_240_3917)"/>
<path fill-rule="evenodd" clip-rule="evenodd" d="M293.991 213.162C293.991 214.691 292.733 215.951 291.206 215.951C289.679 215.951 288.421 214.691 288.421 213.162C288.421 211.632 289.679 210.372 291.206 210.372C292.733 210.282 293.991 211.542 293.991 213.162Z" fill="url(#paint87_linear_240_3917)"/>
<path d="M261.113 285.955H260.663L273.42 166.282H473.026V166.462L485.423 285.955H484.974L472.577 166.732H273.779L261.113 285.955Z" fill="#130025"/>
<path opacity="0.6" fill-rule="evenodd" clip-rule="evenodd" d="M386.608 154.945L492.34 213.162L485.243 152.245L386.608 154.945Z" fill="white"/>
<path opacity="0.5" fill-rule="evenodd" clip-rule="evenodd" d="M369.54 220.99L371.157 267.419H481.291L475.002 220.09L369.54 220.99Z" fill="#8148B0"/>
<path fill-rule="evenodd" clip-rule="evenodd" d="M377.984 206.863L379.242 255.632H490.453L484.884 206.863H377.984Z" fill="white"/>
<path fill-rule="evenodd" clip-rule="evenodd" d="M378.164 214.961H485.872L484.884 206.863H377.984L378.164 214.961Z" fill="url(#paint88_linear_240_3917)"/>
<path d="M490.723 255.902H379.062V255.722L377.714 206.683H485.153V206.863L490.723 255.902ZM379.511 255.452H490.274L484.794 207.043H378.164L379.511 255.452Z" fill="#130025"/>
<path fill-rule="evenodd" clip-rule="evenodd" d="M409.515 230.798H398.825L398.106 220.09H408.796L409.515 230.798Z" fill="#A900FF"/>
<path fill-rule="evenodd" clip-rule="evenodd" d="M422.002 230.798H411.312L410.593 220.09H421.283L422.002 230.798Z" fill="#FF00FF"/>
<path fill-rule="evenodd" clip-rule="evenodd" d="M434.309 230.798H423.619L422.9 220.09H433.59L434.309 230.798Z" fill="#FF60FF"/>
<path fill-rule="evenodd" clip-rule="evenodd" d="M446.615 230.798H435.925L435.207 220.09H445.897L446.615 230.798Z" fill="#FF86FF"/>
<path fill-rule="evenodd" clip-rule="evenodd" d="M458.922 230.798H448.232L447.514 220.09H458.114L458.922 230.798Z" fill="#FFB0FF"/>
<path fill-rule="evenodd" clip-rule="evenodd" d="M471.14 230.798H460.539L459.821 220.09H470.421L471.14 230.798Z" fill="#FFDBFF"/>
<path fill-rule="evenodd" clip-rule="evenodd" d="M410.413 243.845H399.723L399.005 233.137H409.695L410.413 243.845Z" fill="#2F56FF"/>
<path fill-rule="evenodd" clip-rule="evenodd" d="M422.9 243.845H412.21L411.491 233.137H422.091L422.9 243.845Z" fill="#2E8EFF"/>
<path fill-rule="evenodd" clip-rule="evenodd" d="M435.207 243.845H424.517L423.798 233.137H434.398L435.207 243.845Z" fill="#7F97FF"/>
<path fill-rule="evenodd" clip-rule="evenodd" d="M447.424 243.845H436.824L436.105 233.137H446.705L447.424 243.845Z" fill="#CEC2FF"/>
<path fill-rule="evenodd" clip-rule="evenodd" d="M459.731 243.845H449.131L448.412 233.137H459.012L459.731 243.845Z" fill="#2FE7FF"/>
<path fill-rule="evenodd" clip-rule="evenodd" d="M472.038 243.845H461.438L460.719 233.137H471.319L472.038 243.845Z" fill="#B0BFFF"/>
<path fill-rule="evenodd" clip-rule="evenodd" d="M475.362 207.853L475.991 213.881H484.614L483.986 207.853H475.362Z" fill="#DDC2FF"/>
<path opacity="0.6" fill-rule="evenodd" clip-rule="evenodd" d="M351.124 313.669C351.124 313.669 357.412 326.536 371.965 326.536C386.518 326.536 392.806 315.738 392.806 315.738C392.806 315.738 386.248 327.706 371.965 327.706C357.053 327.706 351.124 313.669 351.124 313.669Z" fill="white"/>
<path fill-rule="evenodd" clip-rule="evenodd" d="M377.625 325.996C377.625 325.996 381.218 325.546 385.889 322.577C385.799 322.577 382.745 326.806 377.625 325.996Z" fill="white"/>
<path d="M478.424 208.741L477.834 209.42L482.036 213.082L482.625 212.403L478.424 208.741Z" fill="white"/>
<path d="M481.708 208.745L478.024 212.435L478.659 213.072L482.344 209.382L481.708 208.745Z" fill="white"/>
<path fill-rule="evenodd" clip-rule="evenodd" d="M382.386 334.094L391.279 351.91L490.454 353.89C490.454 353.89 493.867 349.121 493.867 348.761C493.688 340.932 487.04 319.607 456.767 313.669C421.193 306.74 382.386 334.094 382.386 334.094Z" fill="url(#paint89_radial_240_3917)"/>
<path fill-rule="evenodd" clip-rule="evenodd" d="M382.386 334.094C446.526 307.46 429.637 360.728 493.598 347.141C493.598 347.141 490.993 316.908 449.131 313.039C412.569 309.71 382.386 334.094 382.386 334.094Z" fill="url(#paint90_radial_240_3917)"/>
<path opacity="0.5" fill-rule="evenodd" clip-rule="evenodd" d="M391.279 351.91C417.151 351.91 463.055 350.83 476.619 349.301C490.274 347.771 493.777 348.761 493.777 348.761L490.364 353.89L391.279 351.91Z" fill="#614881"/>
<path opacity="0.8" fill-rule="evenodd" clip-rule="evenodd" d="M385.44 339.403C385.44 339.403 398.645 333.284 418.678 338.413C438.71 343.542 449.67 348.041 450.838 349.301C452.006 350.56 449.4 351.46 449.4 351.46L473.206 349.66C473.206 349.66 467.008 350.74 451.287 345.341C435.656 339.943 425.236 317.358 382.386 334.004L385.44 339.403Z" fill="url(#paint91_linear_240_3917)"/>
<g opacity="0.5">
<path opacity="0.5" d="M476.799 350.11C471.679 350.11 465.48 349.571 458.204 348.041C452.005 346.781 447.155 343.002 442.034 339.133C430.356 330.135 417.061 320.057 382.655 334.544L382.296 333.734C417.151 318.978 430.625 329.325 442.573 338.413C447.604 342.282 452.455 345.971 458.384 347.231C481.021 352 493.418 346.871 493.508 346.871L493.867 347.681C493.687 347.591 487.848 350.11 476.799 350.11Z" fill="#614881"/>
</g>
<path d="M387.686 333.914C395.232 328.425 404.754 326.086 414.007 326.896C418.678 327.346 423.169 328.425 427.481 330.225C431.793 332.024 435.656 334.634 439.339 337.423C443.022 340.213 446.705 343.002 450.927 345.072C452.994 346.061 455.15 346.871 457.395 347.591C459.641 348.221 461.887 348.671 464.133 349.031C468.714 349.661 473.385 349.75 477.967 349.571C482.548 349.391 487.22 348.941 491.801 348.401C482.638 349.661 473.296 350.47 464.133 349.301C461.797 348.941 459.551 348.491 457.305 347.861C455.06 347.231 452.904 346.421 450.748 345.341C446.526 343.362 442.753 340.483 439.07 337.783C435.387 334.994 431.524 332.384 427.302 330.585C423.08 328.785 418.498 327.616 413.917 327.166C409.335 326.716 404.664 327.076 400.172 328.245C395.86 329.415 391.459 331.215 387.686 333.914Z" fill="#614881"/>
<path fill-rule="evenodd" clip-rule="evenodd" d="M428.2 315.288L433.77 314.568C433.77 314.568 421.013 308.63 411.312 315.018C411.312 315.018 419.935 312.049 428.2 315.288Z" fill="url(#paint92_radial_240_3917)"/>
<g opacity="0.5">
<path opacity="0.5" d="M395.411 326.896L395.232 326.536C417.51 314.568 432.422 313.849 444.01 314.658V315.108C432.422 314.209 417.6 314.928 395.411 326.896Z" fill="#614881"/>
</g>
<path fill-rule="evenodd" clip-rule="evenodd" d="M403.137 322.667C403.137 322.667 411.94 307.64 428.2 315.288C428.2 315.288 417.061 316.908 403.137 322.667Z" fill="url(#paint93_radial_240_3917)"/>
<g opacity="0.5">
<path opacity="0.5" d="M416.522 327.076L416.252 326.716C416.522 326.536 441.226 309.35 461.887 314.658L461.797 315.108C441.315 309.8 416.701 326.896 416.522 327.076Z" fill="#614881"/>
</g>
<path fill-rule="evenodd" clip-rule="evenodd" d="M447.604 315.468C447.604 315.468 468.175 316.998 482.009 338.143H484.614C484.614 338.143 473.655 318.078 448.951 315.198L447.604 315.468Z" fill="url(#paint94_linear_240_3917)"/>
<path fill-rule="evenodd" clip-rule="evenodd" d="M413.737 313.669C413.737 313.669 421.103 310.159 430.895 314.928L432.512 314.748C432.512 314.658 422.72 309.89 413.737 313.669Z" fill="url(#paint95_linear_240_3917)"/>
<path opacity="0.5" fill-rule="evenodd" clip-rule="evenodd" d="M438.71 319.427C439.249 322.937 431.254 327.166 420.744 328.875C410.234 330.585 401.25 329.235 400.711 325.726C400.172 322.217 408.167 317.988 418.678 316.278C429.098 314.568 438.081 316.008 438.71 319.427Z" fill="url(#paint96_radial_240_3917)"/>
<path fill-rule="evenodd" clip-rule="evenodd" d="M395.591 331.125L398.825 334.004C398.825 334.004 414.186 330.765 427.122 336.703L431.254 334.004C431.164 333.914 414.276 324.106 395.591 331.125Z" fill="url(#paint97_radial_240_3917)"/>
<g opacity="0.5">
<path opacity="0.5" d="M413.418 328.123L412.523 328.203L412.975 333.311L413.87 333.232L413.418 328.123Z" fill="#614881"/>
</g>
<path fill-rule="evenodd" clip-rule="evenodd" d="M227.156 111.845C227.156 111.845 221.946 109.775 216.736 113.464C212.154 117.783 213.232 123.362 213.232 123.362L239.553 151.616L244.045 146.577L249.884 143.067L227.156 111.845Z" fill="url(#paint98_linear_240_3917)"/>
<path fill-rule="evenodd" clip-rule="evenodd" d="M240.361 159.804C240.361 159.804 244.763 147.296 258.148 145.137C258.148 145.047 253.387 152.155 240.361 159.804Z" fill="url(#paint99_linear_240_3917)"/>
<path fill-rule="evenodd" clip-rule="evenodd" d="M240.361 159.804L236.678 156.025C236.678 156.025 241.17 142.618 255.633 140.998L258.058 145.137C258.148 145.047 245.662 147.926 240.361 159.804Z" fill="url(#paint100_linear_240_3917)"/>
<path fill-rule="evenodd" clip-rule="evenodd" d="M213.232 123.362C213.232 123.362 216.826 114.364 227.156 111.845C227.156 111.845 220.868 110.135 216.736 113.464C212.603 116.703 213.232 123.362 213.232 123.362Z" fill="url(#paint101_linear_240_3917)"/>
<path fill-rule="evenodd" clip-rule="evenodd" d="M278.27 185.178C278.72 185.268 279.079 185.358 279.438 185.448C285.547 187.337 282.133 191.926 282.133 191.926C282.133 191.926 277.642 194.176 276.474 189.137C276.294 188.507 276.204 187.697 276.204 186.798C276.204 186.798 272.252 186.618 269.916 185.628C267.581 184.638 244.494 155.395 244.494 155.395C244.494 155.395 245.302 153.505 248.446 150.986C251.321 148.646 253.567 148.016 253.567 148.016C253.567 148.016 277.911 176.27 278.36 178.789C278.809 181.309 278.27 185.178 278.27 185.178Z" fill="url(#paint102_linear_240_3917)"/>
<path fill-rule="evenodd" clip-rule="evenodd" d="M258.867 171.591C258.867 171.591 261.562 167.362 265.514 164.213C265.514 164.213 276.384 176.81 277.013 178.789C277.642 180.769 277.552 184.188 276.564 185.178C275.576 186.168 271.982 186.168 269.826 184.368C267.67 182.568 258.867 171.591 258.867 171.591Z" fill="url(#paint103_linear_240_3917)"/>
<path fill-rule="evenodd" clip-rule="evenodd" d="M277.462 186.887C276.474 188.147 278.72 193.006 281.325 191.117C284.02 189.137 279.349 184.548 277.462 186.887Z" fill="url(#paint104_linear_240_3917)"/>
<path opacity="0.5" fill-rule="evenodd" clip-rule="evenodd" d="M247.638 159.534C247.638 159.534 250.962 153.055 256.801 151.975L254.555 149.096L258.058 145.047C258.058 145.047 245.931 147.926 240.272 159.714L245.033 156.744L247.638 159.534Z" fill="#BD4881"/>
<path opacity="0.5" fill-rule="evenodd" clip-rule="evenodd" d="M278.271 185.178C278.72 185.268 279.079 185.358 279.438 185.448C279.169 185.448 276.115 185.088 276.474 189.137C276.294 188.507 276.204 187.697 276.204 186.798C276.204 186.798 272.252 186.618 269.916 185.628C269.916 185.628 275.845 182.838 278.271 178.699C278.81 181.309 278.271 185.178 278.271 185.178Z" fill="#BD4881"/>
<path opacity="0.5" fill-rule="evenodd" clip-rule="evenodd" d="M236.049 147.836C236.049 147.836 237.756 150.266 243.326 145.677C248.895 141.088 246.56 138.568 246.56 138.568L249.434 142.528C249.434 142.528 243.595 144.327 239.104 151.166L236.049 147.836Z" fill="#FFA2BF"/>
<path opacity="0.5" fill-rule="evenodd" clip-rule="evenodd" d="M232.816 129.66C238.385 136.409 241.35 143.067 239.463 144.597C237.577 146.127 231.558 141.898 226.078 135.239C220.509 128.491 217.544 121.832 219.431 120.303C221.227 118.683 227.246 122.912 232.816 129.66Z" fill="url(#paint105_radial_240_3917)"/>
<path opacity="0.5" fill-rule="evenodd" clip-rule="evenodd" d="M238.206 127.501C243.595 134.339 247.189 140.458 246.38 141.088C245.572 141.718 240.541 136.679 235.241 129.75C229.851 122.912 226.258 116.793 227.066 116.164C227.875 115.534 232.816 120.573 238.206 127.501Z" fill="url(#paint106_radial_240_3917)"/>
<path fill-rule="evenodd" clip-rule="evenodd" d="M258.867 171.591C258.867 171.591 263.628 171.321 265.514 164.213C265.514 164.303 260.843 167.272 258.867 171.591Z" fill="url(#paint107_linear_240_3917)"/>
<path fill-rule="evenodd" clip-rule="evenodd" d="M514.439 63.5255C500.694 82.7811 470.87 119.313 470.87 119.313L471.948 120.123L441.765 160.613L440.687 159.804L438.98 162.053L437.542 173.84L438.98 174.92L440.417 176L451.377 171.231L453.083 168.982L452.005 168.172L482.189 127.681L483.267 128.491C483.267 128.491 509.677 89.4396 524.23 70.8139C524.23 70.8139 522.523 66.7648 520.547 65.5051C518.751 64.0654 514.439 63.5255 514.439 63.5255Z" fill="url(#paint108_radial_240_3917)"/>
<path fill-rule="evenodd" clip-rule="evenodd" d="M440.687 159.804L440.417 158.724C440.417 158.724 458.743 137.579 469.972 119.043C469.972 119.043 476.799 121.472 484.075 129.031C484.075 129.031 466.379 150.086 453.982 169.341L453.083 169.071C453.173 169.071 443.831 162.953 440.687 159.804Z" fill="url(#paint109_linear_240_3917)"/>
<path fill-rule="evenodd" clip-rule="evenodd" d="M437.992 174.2L436.375 176.36C436.015 176.81 436.195 177.62 436.734 177.979C437.273 178.429 438.081 178.339 438.441 177.889L440.058 175.73L437.992 174.2Z" fill="url(#paint110_radial_240_3917)"/>
<path opacity="0.5" fill-rule="evenodd" clip-rule="evenodd" d="M471.409 118.683C471.409 118.683 479.404 121.652 484.435 126.961L483.447 128.311C483.447 128.311 477.428 121.562 470.87 119.313L471.409 118.683Z" fill="#614881"/>
<path opacity="0.5" fill-rule="evenodd" clip-rule="evenodd" d="M516.864 64.0654C518.391 64.5153 476.44 117.423 475.541 118.773C474.553 120.123 472.307 119.043 472.307 119.043C472.307 119.043 476.44 120.933 478.326 122.192C478.326 122.192 476.35 120.213 476.709 119.223C477.069 118.233 517.044 65.955 517.852 65.5051C518.571 64.9652 520.098 65.3251 520.098 65.3251C520.098 65.3251 518.391 64.3354 516.864 64.0654Z" fill="url(#paint111_linear_240_3917)"/>
<path fill-rule="evenodd" clip-rule="evenodd" d="M507.611 72.8834C507.611 72.8834 513.091 74.8629 517.313 80.1717L517.762 79.6319C517.762 79.6319 514.618 74.593 508.15 72.3435L507.611 72.8834Z" fill="url(#paint112_linear_240_3917)"/>
<path opacity="0.5" fill-rule="evenodd" clip-rule="evenodd" d="M438.98 162.053C438.98 162.053 443.022 168.352 451.377 171.321L440.417 176.09L437.453 173.93L438.98 162.053Z" fill="url(#paint113_linear_240_3917)"/>
<path fill-rule="evenodd" clip-rule="evenodd" d="M443.831 156.294C443.831 156.294 444.729 157.644 446.256 158.724L466.738 131.28L464.492 129.571C464.402 129.661 452.365 145.047 443.831 156.294Z" fill="url(#paint114_linear_240_3917)"/>
<path fill-rule="evenodd" clip-rule="evenodd" d="M444.19 156.834L453.712 144.057L454.7 144.147L454.341 143.247L464.762 129.93L466.648 131.37L446.166 158.814C446.256 158.724 444.549 157.644 444.19 156.834Z" fill="url(#paint115_radial_240_3917)"/>
<path fill-rule="evenodd" clip-rule="evenodd" d="M466.648 131.28L456.138 144.417L454.341 143.157L454.7 144.057L453.712 143.967L455.599 145.407L446.256 158.724L466.648 131.28Z" fill="#614881"/>
<path d="M113.698 296.573H97.888L95.3727 304.041H84.5929L99.9542 261.571H111.902L127.263 304.041H116.304L113.698 296.573ZM111.093 288.564L105.793 272.998L100.583 288.564H111.093Z" fill="url(#paint116_linear_240_3917)"/>
<path d="M106.512 296.213H89.893L87.198 304.041H75.9691L92.049 259.501H104.536L120.616 304.041H109.117L106.512 296.213ZM103.727 287.845L98.2474 271.558L92.7676 287.845H103.727Z" fill="url(#paint117_linear_240_3917)"/>
<path d="M104.536 259.591L111.812 261.571L127.173 304.131H120.615L104.536 259.591Z" fill="#7C77FF"/>
<path d="M128.521 277.497C129.868 274.798 131.665 272.728 134 271.288C136.336 269.849 134.45 268.229 137.234 268.229C139.66 268.229 146.218 269.579 148.104 270.568C149.901 271.558 151.338 272.818 152.326 274.438V269.579H162.926V304.041H152.326V299.182C151.338 300.802 149.901 302.061 148.014 303.051C146.218 304.041 138.223 304.491 135.797 304.491C133.012 304.491 136.246 303.771 134 302.331C131.665 300.892 129.868 298.822 128.521 296.123C127.173 293.423 126.544 290.274 126.544 286.765C126.455 283.256 127.173 280.106 128.521 277.497ZM150.08 280.646C148.643 279.117 146.846 278.397 144.78 278.397C142.714 278.397 140.918 279.117 139.48 280.646C138.043 282.176 137.324 284.245 137.324 286.855C137.324 289.464 138.043 291.624 139.48 293.153C140.918 294.683 142.714 295.493 144.78 295.493C146.846 295.493 148.643 294.773 150.08 293.243C151.518 291.714 152.236 289.644 152.236 287.035C152.236 284.245 151.518 282.086 150.08 280.646Z" fill="url(#paint118_linear_240_3917)"/>
<path d="M122.322 276.777C123.67 273.988 125.556 271.918 127.892 270.478C130.228 269.039 132.922 268.229 135.797 268.229C138.312 268.229 140.468 268.769 142.355 269.759C144.241 270.748 145.679 272.098 146.667 273.718V268.679H157.447V304.041H146.667V299.002C145.589 300.622 144.151 301.971 142.265 302.961C140.379 303.951 138.223 304.491 135.707 304.491C132.833 304.491 130.228 303.771 127.892 302.241C125.556 300.712 123.67 298.642 122.322 295.853C120.975 293.063 120.256 289.914 120.256 286.225C120.256 282.716 120.975 279.476 122.322 276.777ZM144.511 280.016C142.984 278.487 141.187 277.677 139.031 277.677C136.875 277.677 135.078 278.487 133.551 280.016C132.024 281.546 131.305 283.705 131.305 286.405C131.305 289.104 132.024 291.264 133.551 292.793C135.078 294.413 136.875 295.133 139.031 295.133C141.187 295.133 142.984 294.323 144.511 292.793C146.038 291.264 146.757 289.104 146.757 286.405C146.757 283.705 145.948 281.546 144.511 280.016Z" fill="url(#paint119_linear_240_3917)"/>
<path d="M157.536 268.679L162.837 269.579V304.131H157.536V268.679Z" fill="#9A0054"/>
<path opacity="0.5" d="M89.9828 296.213L96.6304 300.352L97.9779 296.213H89.9828Z" fill="#B15A93"/>
<path opacity="0.5" d="M95.5524 279.746L101.302 286.405L102.29 283.525L98.2474 271.558L95.5524 279.746Z" fill="#B15A93"/>
<path opacity="0.5" d="M132.563 281.366L137.594 283.705C137.594 283.705 138.492 279.476 142.624 278.577C142.714 278.577 136.695 275.427 132.563 281.366Z" fill="#B15A93"/>
<path fill-rule="evenodd" clip-rule="evenodd" d="M519.289 255.902L518.661 251.673C518.661 251.673 551.629 242.765 576.782 251.673L575.794 255.542C575.704 255.542 549.293 250.953 519.289 255.902Z" fill="url(#paint120_radial_240_3917)"/>
<path opacity="0.5" fill-rule="evenodd" clip-rule="evenodd" d="M519.289 255.902L518.661 251.673C518.661 251.673 550.821 242.765 575.973 251.673L575.794 255.542C575.704 255.542 549.293 250.953 519.289 255.902Z" fill="url(#paint121_linear_240_3917)"/>
<path fill-rule="evenodd" clip-rule="evenodd" d="M515.517 267.689C515.517 267.689 551.18 261.211 580.824 268.049L583.429 257.162C583.429 257.162 552.527 248.704 513.81 257.162L515.517 267.689Z" fill="url(#paint122_radial_240_3917)"/>
<path opacity="0.5" fill-rule="evenodd" clip-rule="evenodd" d="M515.517 267.689C515.517 267.689 551.18 261.211 580.824 268.049V257.162C580.824 257.162 552.527 248.704 513.81 257.162L515.517 267.689Z" fill="url(#paint123_linear_240_3917)"/>
<path fill-rule="evenodd" clip-rule="evenodd" d="M515.517 267.689C515.517 267.689 546.688 273.898 580.824 268.049C580.824 268.049 554.773 259.321 515.517 267.689Z" fill="url(#paint124_linear_240_3917)"/>
<path d="M518.571 267.689C518.571 267.689 551.898 262.56 576.692 267.689L569.146 343.182H523.871L518.571 267.689Z" fill="url(#paint125_linear_240_3917)"/>
<path d="M522.164 343.182C522.164 343.182 522.074 341.023 523.871 340.123H569.416C569.416 340.123 571.482 340.393 571.212 343.182H522.164Z" fill="url(#paint126_linear_240_3917)"/>
<path opacity="0.5" fill-rule="evenodd" clip-rule="evenodd" d="M519.2 277.227C519.2 277.227 526.925 266.789 548.215 266.789C569.506 266.789 576.063 275.248 576.063 275.248L576.782 267.689C576.782 267.689 551.809 261.571 518.661 267.689L519.2 277.227Z" fill="#CD4860"/>
<path d="M513.9 257.162C513.9 257.162 547.317 248.973 583.519 257.162C583.43 257.162 555.672 247.264 513.9 257.162Z" fill="url(#paint127_linear_240_3917)"/>
<path d="M518.571 251.673C518.571 251.673 549.024 242.765 576.692 251.673C576.782 251.673 554.863 241.865 518.571 251.673Z" fill="url(#paint128_linear_240_3917)"/>
<g opacity="0.5">
<path opacity="0.5" d="M523.781 340.213C523.781 340.213 544.712 295.043 575.255 282.176L574.356 291.444C574.356 291.444 547.317 313.669 532.854 340.303H523.781V340.213Z" fill="#FF7897"/>
<path opacity="0.5" d="M543.634 340.213C543.634 340.213 559.534 314.928 573.099 304.581L571.841 317.448C571.841 317.448 560.253 327.076 554.144 340.213H543.634Z" fill="#FF7897"/>
<path opacity="0.5" d="M522.613 324.736C522.613 324.736 544.532 281.276 573.638 267.059L560.163 265.44C560.163 265.44 537.076 276.327 521.895 314.389L522.613 324.736Z" fill="#FF7897"/>
<path opacity="0.5" d="M520.817 299.722C520.817 299.722 529.62 276.867 545.7 265.08L534.022 265.71C534.022 265.71 523.601 275.517 519.918 287.125L520.817 299.722Z" fill="#FF7897"/>
</g>
<path opacity="0.5" d="M493.957 149.366L511.923 217.121L501.862 220.09L493.957 149.366Z" fill="#963C98"/>
<path d="M53.7805 353.08C43.2702 357.939 27.1005 360.278 12.9969 355.599C-0.388099 351.19 -4.87969 334.454 6.43913 327.256C21.3512 317.808 41.2041 333.644 56.4755 334.184C73.1842 334.904 69.591 345.791 53.7805 353.08Z" fill="url(#paint129_linear_240_3917)"/>
<path fill-rule="evenodd" clip-rule="evenodd" d="M204.878 213.072L206.135 201.014H218.802L217.005 213.072H204.878Z" fill="url(#paint130_linear_240_3917)"/>
<path fill-rule="evenodd" clip-rule="evenodd" d="M177.389 343.452H255.004C264.077 343.452 271.443 336.253 271.803 327.166L275.576 230.797C275.845 221.35 268.299 213.431 258.777 213.431H173.616L177.389 343.452Z" fill="url(#paint131_linear_240_3917)"/>
<path fill-rule="evenodd" clip-rule="evenodd" d="M176.221 343.092H253.836C262.909 343.092 270.275 335.894 270.635 326.806L274.408 230.438C274.677 220.99 267.131 213.072 257.609 213.072H172.448L176.221 343.092Z" fill="url(#paint132_linear_240_3917)"/>
<path fill-rule="evenodd" clip-rule="evenodd" d="M176.042 340.843H251.051C259.765 340.843 266.952 333.914 267.221 325.186L270.814 232.057C271.084 222.879 263.808 215.321 254.645 215.321H172.448L176.042 340.843Z" fill="url(#paint133_linear_240_3917)"/>
<path opacity="0.5" fill-rule="evenodd" clip-rule="evenodd" d="M267.131 326.536L261.202 326.446L264.167 228.638C264.167 228.638 263.089 222.699 258.867 219.01L250.962 340.753C251.051 340.843 264.526 341.113 267.131 326.536Z" fill="#B15A93"/>
<path fill-rule="evenodd" clip-rule="evenodd" d="M165.082 343.452H242.697C251.77 343.452 259.136 336.253 259.496 327.166L263.269 230.797C263.538 221.35 255.992 213.431 246.47 213.431H161.309L165.082 343.452Z" fill="url(#paint134_linear_240_3917)"/>
<path fill-rule="evenodd" clip-rule="evenodd" d="M163.825 343.092H241.439C250.512 343.092 257.879 335.894 258.238 326.806L262.011 230.438C262.28 220.99 254.735 213.072 245.212 213.072H160.052L163.825 343.092Z" fill="url(#paint135_linear_240_3917)"/>
<path fill-rule="evenodd" clip-rule="evenodd" d="M237.038 213.072L235.241 343.092C235.241 343.092 243.955 343.452 248.087 343.452L247.638 344.262H224.551V211.272C224.551 211.272 238.295 212.712 244.404 212.082L245.212 213.072H237.038Z" fill="url(#paint136_linear_240_3917)"/>
<path opacity="0.5" fill-rule="evenodd" clip-rule="evenodd" d="M236.319 212.172L234.073 344.262H247.728L248.177 343.452L236.409 343.092L237.756 213.072H245.302L244.494 212.082C244.404 212.082 239.373 212.262 236.319 212.172Z" fill="#B15A93"/>
<path fill-rule="evenodd" clip-rule="evenodd" d="M180.174 213.072L178.377 204.074H192.93L195.535 213.072H180.174Z" fill="url(#paint137_linear_240_3917)"/>
<path opacity="0.5" fill-rule="evenodd" clip-rule="evenodd" d="M158.614 304.041L152.416 343.452L163.825 343.092L162.747 304.041H158.614Z" fill="#963C98"/>
<path fill-rule="evenodd" clip-rule="evenodd" d="M269.377 34.7321L282.493 45.0797H250.423L239.373 33.9222L269.377 34.7321Z" fill="#F4E5F7"/>
<path fill-rule="evenodd" clip-rule="evenodd" d="M282.493 45.0797L277.282 71.0838H250.423V45.0797H282.493Z" fill="#DBB9E9"/>
<path fill-rule="evenodd" clip-rule="evenodd" d="M239.373 33.9222L240.002 60.4662L250.423 71.0838V45.0797L239.373 33.9222Z" fill="#EBCFF0"/>
<path fill-rule="evenodd" clip-rule="evenodd" d="M145.14 14.1268L153.494 40.5808L178.377 25.1943L169.484 0L145.14 14.1268Z" fill="#F4E5F7"/>
<path fill-rule="evenodd" clip-rule="evenodd" d="M197.152 31.1329L178.377 25.1943L169.484 0L186.552 7.82822L197.152 31.1329Z" fill="#EBCFF0"/>
<path fill-rule="evenodd" clip-rule="evenodd" d="M153.494 40.5808L178.377 42.1105L197.152 31.133L178.377 25.1943L153.494 40.5808Z" fill="#DBB9E9"/>
<path fill-rule="evenodd" clip-rule="evenodd" d="M304.501 70.0941L277.821 77.2925L292.015 102.847L317.527 95.0184L304.501 70.0941Z" fill="#F4E5F7"/>
<path fill-rule="evenodd" clip-rule="evenodd" d="M287.254 118.143L292.015 102.847L317.527 95.0184L310.52 111.305L287.254 118.143Z" fill="#EBCFF0"/>
<path fill-rule="evenodd" clip-rule="evenodd" d="M277.821 77.2925L275.216 102.127L287.254 118.143L292.015 102.847L277.821 77.2925Z" fill="#DBB9E9"/>
<path fill-rule="evenodd" clip-rule="evenodd" d="M283.301 93.3987L282.043 116.074L247.728 108.875L256.262 87.4601L283.301 93.3987Z" fill="#F4E5F7"/>
<path fill-rule="evenodd" clip-rule="evenodd" d="M247.728 108.875L252.938 125.791L275.126 128.941L282.043 116.074L247.728 108.875Z" fill="#DBB9E9"/>
<path fill-rule="evenodd" clip-rule="evenodd" d="M132.024 175.91L117.112 188.687L151.069 186.258L162.118 175.1L132.024 175.91Z" fill="#F4E5F7"/>
<path fill-rule="evenodd" clip-rule="evenodd" d="M117.112 188.687L123.849 214.601L152.326 213.881L151.069 186.258L117.112 188.687Z" fill="#DBB9E9"/>
<path fill-rule="evenodd" clip-rule="evenodd" d="M162.118 175.1L161.489 201.644L152.326 213.881L151.069 186.258L162.118 175.1Z" fill="#EBCFF0"/>
<defs>
<linearGradient id="paint0_linear_240_3917" x1="342.776" y1="124.082" x2="366.757" y2="100.602" gradientUnits="userSpaceOnUse">
<stop offset="0.0263563" stop-color="#FF69DF"/>
<stop offset="1" stop-color="#A990FF"/>
</linearGradient>
<radialGradient id="paint1_radial_240_3917" cx="0" cy="0" r="1" gradientUnits="userSpaceOnUse" gradientTransform="translate(358.31 352.841) scale(195.78 23.5425)">
<stop offset="0.00558659" stop-color="#FF8BFF"/>
<stop offset="0.0863859" stop-color="#E07AE0"/>
<stop offset="0.2771" stop-color="#9D569D"/>
<stop offset="0.4583" stop-color="#653765"/>
<stop offset="0.6246" stop-color="#391F39"/>
<stop offset="0.773" stop-color="#1A0E1A"/>
<stop offset="0.8983" stop-color="#070407"/>
<stop offset="0.9851"/>
</radialGradient>
<radialGradient id="paint2_radial_240_3917" cx="0" cy="0" r="1" gradientUnits="userSpaceOnUse" gradientTransform="translate(367.005 343.721) scale(155.273 6.33618)">
<stop offset="0.00558659" stop-color="#74409C"/>
<stop offset="0.9385" stop-color="white"/>
</radialGradient>
<radialGradient id="paint3_radial_240_3917" cx="0" cy="0" r="1" gradientUnits="userSpaceOnUse" gradientTransform="translate(450.662 351.982) scale(87.8149 6.80837)">
<stop offset="0.00558659" stop-color="#74409C"/>
<stop offset="0.9385" stop-color="white"/>
</radialGradient>
<radialGradient id="paint4_radial_240_3917" cx="0" cy="0" r="1" gradientUnits="userSpaceOnUse" gradientTransform="translate(450.662 351.982) scale(69.8732 3.50452)">
<stop offset="0.6201" stop-color="#74409C"/>
<stop offset="0.9385" stop-color="white"/>
</radialGradient>
<radialGradient id="paint5_radial_240_3917" cx="0" cy="0" r="1" gradientUnits="userSpaceOnUse" gradientTransform="translate(552.247 343.721) scale(46.7347 2.49023)">
<stop offset="0.00558659" stop-color="#74409C"/>
<stop offset="0.9385" stop-color="white"/>
</radialGradient>
<radialGradient id="paint6_radial_240_3917" cx="0" cy="0" r="1" gradientUnits="userSpaceOnUse" gradientTransform="translate(182.416 344.606) scale(117.806 3.37508)">
<stop offset="0.00558659" stop-color="#74409C"/>
<stop offset="0.9385" stop-color="white"/>
</radialGradient>
<radialGradient id="paint7_radial_240_3917" cx="0" cy="0" r="1" gradientUnits="userSpaceOnUse" gradientTransform="translate(434.433 70.9843) scale(32.3779 45.8285)">
<stop offset="0.2484" stop-color="#FFFEAE"/>
<stop offset="0.2919" stop-color="#FFF9A8"/>
<stop offset="0.4838" stop-color="#FFE795"/>
<stop offset="0.6775" stop-color="#FFDD89"/>
<stop offset="0.8743" stop-color="#FFD985"/>
<stop offset="0.893" stop-color="#FFD385"/>
<stop offset="0.9422" stop-color="#FFC884"/>
<stop offset="1" stop-color="#FFC584"/>
</radialGradient>
<radialGradient id="paint8_radial_240_3917" cx="0" cy="0" r="1" gradientUnits="userSpaceOnUse" gradientTransform="translate(431.5 84.6835) scale(27.8483 27.894)">
<stop offset="0.0614525" stop-color="white"/>
<stop offset="0.1536" stop-color="#FEFBFD"/>
<stop offset="0.9944" stop-color="#FFBEDE"/>
</radialGradient>
<linearGradient id="paint9_linear_240_3917" x1="431.652" y1="112.888" x2="431.652" y2="85.3137" gradientUnits="userSpaceOnUse">
<stop offset="0.00558659" stop-color="#D486C2"/>
<stop offset="0.9385" stop-color="#FFDDD1"/>
</linearGradient>
<linearGradient id="paint10_linear_240_3917" x1="431.393" y1="113.504" x2="431.393" y2="110.146" gradientUnits="userSpaceOnUse">
<stop offset="0.00558659" stop-color="#D486C2"/>
<stop offset="0.9385" stop-color="#FFDDD1"/>
</linearGradient>
<radialGradient id="paint11_radial_240_3917" cx="0" cy="0" r="1" gradientUnits="userSpaceOnUse" gradientTransform="translate(440.462 70.1359) scale(11.9464 11.966)">
<stop offset="0.00558659" stop-color="#FFFFA9"/>
<stop offset="0.0863859" stop-color="#E0E095"/>
<stop offset="0.2771" stop-color="#9D9D68"/>
<stop offset="0.4583" stop-color="#656543"/>
<stop offset="0.6246" stop-color="#393926"/>
<stop offset="0.773" stop-color="#1A1A11"/>
<stop offset="0.8983" stop-color="#070705"/>
<stop offset="0.9851"/>
</radialGradient>
<radialGradient id="paint12_radial_240_3917" cx="0" cy="0" r="1" gradientUnits="userSpaceOnUse" gradientTransform="translate(413.255 84.0789) rotate(-22.2618) scale(5.85333 11.1574)">
<stop offset="0.00558659" stop-color="#FFFFA9"/>
<stop offset="0.0863859" stop-color="#E0E095"/>
<stop offset="0.2771" stop-color="#9D9D68"/>
<stop offset="0.4583" stop-color="#656543"/>
<stop offset="0.6246" stop-color="#393926"/>
<stop offset="0.773" stop-color="#1A1A11"/>
<stop offset="0.8983" stop-color="#070705"/>
<stop offset="0.9851"/>
</radialGradient>
<linearGradient id="paint13_linear_240_3917" x1="431.391" y1="114.626" x2="431.391" y2="83.4229" gradientUnits="userSpaceOnUse">
<stop offset="0.00558659" stop-color="#D486C2"/>
<stop offset="0.9385" stop-color="white"/>
</linearGradient>
<radialGradient id="paint14_radial_240_3917" cx="0" cy="0" r="1" gradientUnits="userSpaceOnUse" gradientTransform="translate(430.823 114.928) scale(10.6355 12.6056)">
<stop stop-color="#B3B0D3"/>
<stop offset="0.4644" stop-color="#B1AED1"/>
<stop offset="0.6918" stop-color="#ACA6CB"/>
<stop offset="0.8671" stop-color="#A399C1"/>
<stop offset="0.9792" stop-color="#998CB6"/>
</radialGradient>
<linearGradient id="paint15_linear_240_3917" x1="431.317" y1="130.095" x2="431.317" y2="127.507" gradientUnits="userSpaceOnUse">
<stop stop-color="#7F7BB5"/>
<stop offset="0.9792" stop-color="#685491"/>
</linearGradient>
<radialGradient id="paint16_radial_240_3917" cx="0" cy="0" r="1" gradientUnits="userSpaceOnUse" gradientTransform="translate(431.264 129.706) scale(5.05098 9.40674)">
<stop stop-color="#474B72"/>
<stop offset="0.4163" stop-color="#474870"/>
<stop offset="0.6894" stop-color="#454068"/>
<stop offset="0.9208" stop-color="#43315A"/>
<stop offset="0.9848" stop-color="#422B55"/>
</radialGradient>
<radialGradient id="paint17_radial_240_3917" cx="0" cy="0" r="1" gradientUnits="userSpaceOnUse" gradientTransform="translate(431.652 123.269) scale(9.87001 18.3815)">
<stop stop-color="#9490C1"/>
<stop offset="0.4546" stop-color="#938EBF"/>
<stop offset="0.6772" stop-color="#8D86B9"/>
<stop offset="0.8488" stop-color="#8579AE"/>
<stop offset="0.9792" stop-color="#7A69A0"/>
</radialGradient>
<radialGradient id="paint18_radial_240_3917" cx="0" cy="0" r="1" gradientUnits="userSpaceOnUse" gradientTransform="translate(432.145 117.321) scale(10.2789 19.143)">
<stop stop-color="#9490C1"/>
<stop offset="0.4546" stop-color="#938EBF"/>
<stop offset="0.6772" stop-color="#8D86B9"/>
<stop offset="0.8488" stop-color="#8579AE"/>
<stop offset="0.9792" stop-color="#7A69A0"/>
</radialGradient>
<linearGradient id="paint19_linear_240_3917" x1="432.145" y1="120.259" x2="432.145" y2="112.888" gradientUnits="userSpaceOnUse">
<stop offset="0.0207697" stop-color="#B1ACC7"/>
<stop offset="1" stop-color="#CCCAE2"/>
</linearGradient>
<linearGradient id="paint20_linear_240_3917" x1="431.652" y1="125.13" x2="431.652" y2="119.203" gradientUnits="userSpaceOnUse">
<stop offset="0.0207697" stop-color="#B1ACC7"/>
<stop offset="1" stop-color="#CCCAE2"/>
</linearGradient>
<linearGradient id="paint21_linear_240_3917" x1="157.813" y1="341.95" x2="157.813" y2="303.329" gradientUnits="userSpaceOnUse">
<stop stop-color="#FF6E61"/>
<stop offset="0.0712487" stop-color="#FF745E"/>
<stop offset="0.3211" stop-color="#FF8455"/>
<stop offset="0.6061" stop-color="#FF8D51"/>
<stop offset="1" stop-color="#FF904F"/>
</linearGradient>
<linearGradient id="paint22_linear_240_3917" x1="126.794" y1="341.95" x2="126.794" y2="303.793" gradientUnits="userSpaceOnUse">
<stop offset="0.00558659" stop-color="#FF90BD"/>
<stop offset="0.9385" stop-color="#F0E2D1"/>
</linearGradient>
<linearGradient id="paint23_linear_240_3917" x1="161.43" y1="341.95" x2="161.43" y2="303.793" gradientUnits="userSpaceOnUse">
<stop offset="0.00558659" stop-color="#FF90BD"/>
<stop offset="0.9385" stop-color="#F0E2D1"/>
</linearGradient>
<linearGradient id="paint24_linear_240_3917" x1="188.224" y1="341.95" x2="188.224" y2="304.302" gradientUnits="userSpaceOnUse">
<stop offset="0.00558659" stop-color="#FF90BD"/>
<stop offset="0.9385" stop-color="#F0E2D1"/>
</linearGradient>
<linearGradient id="paint25_linear_240_3917" x1="218.64" y1="341.95" x2="218.64" y2="312.656" gradientUnits="userSpaceOnUse">
<stop offset="0.00558659" stop-color="#FF90BD"/>
<stop offset="0.9385" stop-color="#F0E2D1"/>
</linearGradient>
<linearGradient id="paint26_linear_240_3917" x1="222.125" y1="341.95" x2="222.125" y2="319.188" gradientUnits="userSpaceOnUse">
<stop offset="0.00558659" stop-color="#FF90BD"/>
<stop offset="0.9385" stop-color="#F0E2D1"/>
</linearGradient>
<linearGradient id="paint27_linear_240_3917" x1="118.722" y1="341.95" x2="118.722" y2="303.69" gradientUnits="userSpaceOnUse">
<stop offset="0.00558659" stop-color="#FF90BD"/>
<stop offset="0.9385" stop-color="#F0E2D1"/>
</linearGradient>
<linearGradient id="paint28_linear_240_3917" x1="105.591" y1="334.378" x2="105.591" y2="303.559" gradientUnits="userSpaceOnUse">
<stop offset="0.00558659" stop-color="#FF90BD"/>
<stop offset="0.9385" stop-color="#F0E2D1"/>
</linearGradient>
<linearGradient id="paint29_linear_240_3917" x1="90.9202" y1="327.516" x2="90.9202" y2="303.446" gradientUnits="userSpaceOnUse">
<stop offset="0.00558659" stop-color="#FF90BD"/>
<stop offset="0.9385" stop-color="#F0E2D1"/>
</linearGradient>
<radialGradient id="paint30_radial_240_3917" cx="0" cy="0" r="1" gradientUnits="userSpaceOnUse" gradientTransform="translate(84.6625 308.531) scale(2.35937 2.35962)">
<stop stop-color="#391B5C"/>
<stop offset="0.9848" stop-color="#2A164A"/>
</radialGradient>
<radialGradient id="paint31_radial_240_3917" cx="0" cy="0" r="1" gradientUnits="userSpaceOnUse" gradientTransform="translate(89.0229 308.531) scale(2.35937 2.35962)">
<stop stop-color="#391B5C"/>
<stop offset="0.9848" stop-color="#2A164A"/>
</radialGradient>
<radialGradient id="paint32_radial_240_3917" cx="0" cy="0" r="1" gradientUnits="userSpaceOnUse" gradientTransform="translate(93.3838 308.531) scale(2.35937 2.35962)">
<stop stop-color="#391B5C"/>
<stop offset="0.9848" stop-color="#2A164A"/>
</radialGradient>
<radialGradient id="paint33_radial_240_3917" cx="0" cy="0" r="1" gradientUnits="userSpaceOnUse" gradientTransform="translate(97.7443 310.743) scale(3.9207 3.92112)">
<stop stop-color="#391B5C"/>
<stop offset="0.9848" stop-color="#2A164A"/>
</radialGradient>
<radialGradient id="paint34_radial_240_3917" cx="0" cy="0" r="1" gradientUnits="userSpaceOnUse" gradientTransform="translate(101.863 308.531) scale(2.35937 2.35962)">
<stop stop-color="#391B5C"/>
<stop offset="0.9848" stop-color="#2A164A"/>
</radialGradient>
<radialGradient id="paint35_radial_240_3917" cx="0" cy="0" r="1" gradientUnits="userSpaceOnUse" gradientTransform="translate(106.223 308.531) scale(2.35937 2.35962)">
<stop stop-color="#391B5C"/>
<stop offset="0.9848" stop-color="#2A164A"/>
</radialGradient>
<radialGradient id="paint36_radial_240_3917" cx="0" cy="0" r="1" gradientUnits="userSpaceOnUse" gradientTransform="translate(110.584 308.531) scale(2.35937 2.35962)">
<stop stop-color="#391B5C"/>
<stop offset="0.9848" stop-color="#2A164A"/>
</radialGradient>
<radialGradient id="paint37_radial_240_3917" cx="0" cy="0" r="1" gradientUnits="userSpaceOnUse" gradientTransform="translate(114.944 310.743) scale(3.9207 3.92112)">
<stop stop-color="#391B5C"/>
<stop offset="0.9848" stop-color="#2A164A"/>
</radialGradient>
<radialGradient id="paint38_radial_240_3917" cx="0" cy="0" r="1" gradientUnits="userSpaceOnUse" gradientTransform="translate(119.064 308.531) scale(2.35937 2.35962)">
<stop stop-color="#391B5C"/>
<stop offset="0.9848" stop-color="#2A164A"/>
</radialGradient>
<radialGradient id="paint39_radial_240_3917" cx="0" cy="0" r="1" gradientUnits="userSpaceOnUse" gradientTransform="translate(123.424 308.531) scale(2.35937 2.35962)">
<stop stop-color="#391B5C"/>
<stop offset="0.9848" stop-color="#2A164A"/>
</radialGradient>
<radialGradient id="paint40_radial_240_3917" cx="0" cy="0" r="1" gradientUnits="userSpaceOnUse" gradientTransform="translate(127.784 308.531) scale(2.35937 2.35962)">
<stop stop-color="#391B5C"/>
<stop offset="0.9848" stop-color="#2A164A"/>
</radialGradient>
<radialGradient id="paint41_radial_240_3917" cx="0" cy="0" r="1" gradientUnits="userSpaceOnUse" gradientTransform="translate(132.145 310.743) scale(3.9207 3.92112)">
<stop stop-color="#391B5C"/>
<stop offset="0.9848" stop-color="#2A164A"/>
</radialGradient>
<radialGradient id="paint42_radial_240_3917" cx="0" cy="0" r="1" gradientUnits="userSpaceOnUse" gradientTransform="translate(136.264 308.531) scale(2.35937 2.35962)">
<stop stop-color="#391B5C"/>
<stop offset="0.9848" stop-color="#2A164A"/>
</radialGradient>
<radialGradient id="paint43_radial_240_3917" cx="0" cy="0" r="1" gradientUnits="userSpaceOnUse" gradientTransform="translate(140.625 308.531) scale(2.35937 2.35962)">
<stop stop-color="#391B5C"/>
<stop offset="0.9848" stop-color="#2A164A"/>
</radialGradient>
<radialGradient id="paint44_radial_240_3917" cx="0" cy="0" r="1" gradientUnits="userSpaceOnUse" gradientTransform="translate(144.985 308.531) scale(2.35937 2.35962)">
<stop stop-color="#391B5C"/>
<stop offset="0.9848" stop-color="#2A164A"/>
</radialGradient>
<radialGradient id="paint45_radial_240_3917" cx="0" cy="0" r="1" gradientUnits="userSpaceOnUse" gradientTransform="translate(149.345 310.743) scale(3.9207 3.92112)">
<stop stop-color="#391B5C"/>
<stop offset="0.9848" stop-color="#2A164A"/>
</radialGradient>
<radialGradient id="paint46_radial_240_3917" cx="0" cy="0" r="1" gradientUnits="userSpaceOnUse" gradientTransform="translate(153.464 308.531) scale(2.35937 2.35962)">
<stop stop-color="#391B5C"/>
<stop offset="0.9848" stop-color="#2A164A"/>
</radialGradient>
<radialGradient id="paint47_radial_240_3917" cx="0" cy="0" r="1" gradientUnits="userSpaceOnUse" gradientTransform="translate(157.825 308.531) scale(2.35937 2.35962)">
<stop stop-color="#391B5C"/>
<stop offset="0.9848" stop-color="#2A164A"/>
</radialGradient>
<radialGradient id="paint48_radial_240_3917" cx="0" cy="0" r="1" gradientUnits="userSpaceOnUse" gradientTransform="translate(162.185 308.531) scale(2.35937 2.35962)">
<stop stop-color="#391B5C"/>
<stop offset="0.9848" stop-color="#2A164A"/>
</radialGradient>
<radialGradient id="paint49_radial_240_3917" cx="0" cy="0" r="1" gradientUnits="userSpaceOnUse" gradientTransform="translate(166.546 310.743) scale(3.9207 3.92112)">
<stop stop-color="#391B5C"/>
<stop offset="0.9848" stop-color="#2A164A"/>
</radialGradient>
<radialGradient id="paint50_radial_240_3917" cx="0" cy="0" r="1" gradientUnits="userSpaceOnUse" gradientTransform="translate(170.665 308.531) scale(2.35937 2.35962)">
<stop stop-color="#391B5C"/>
<stop offset="0.9848" stop-color="#2A164A"/>
</radialGradient>
<radialGradient id="paint51_radial_240_3917" cx="0" cy="0" r="1" gradientUnits="userSpaceOnUse" gradientTransform="translate(175.025 308.531) scale(2.35937 2.35962)">
<stop stop-color="#391B5C"/>
<stop offset="0.9848" stop-color="#2A164A"/>
</radialGradient>
<radialGradient id="paint52_radial_240_3917" cx="0" cy="0" r="1" gradientUnits="userSpaceOnUse" gradientTransform="translate(179.385 308.531) scale(2.35937 2.35962)">
<stop stop-color="#391B5C"/>
<stop offset="0.9848" stop-color="#2A164A"/>
</radialGradient>
<radialGradient id="paint53_radial_240_3917" cx="0" cy="0" r="1" gradientUnits="userSpaceOnUse" gradientTransform="translate(183.746 310.743) scale(3.9207 3.92112)">
<stop stop-color="#391B5C"/>
<stop offset="0.9848" stop-color="#2A164A"/>
</radialGradient>
<radialGradient id="paint54_radial_240_3917" cx="0" cy="0" r="1" gradientUnits="userSpaceOnUse" gradientTransform="translate(187.865 308.531) scale(2.35937 2.35962)">
<stop stop-color="#391B5C"/>
<stop offset="0.9848" stop-color="#2A164A"/>
</radialGradient>
<radialGradient id="paint55_radial_240_3917" cx="0" cy="0" r="1" gradientUnits="userSpaceOnUse" gradientTransform="translate(192.226 308.531) scale(2.35937 2.35962)">
<stop stop-color="#391B5C"/>
<stop offset="0.9848" stop-color="#2A164A"/>
</radialGradient>
<radialGradient id="paint56_radial_240_3917" cx="0" cy="0" r="1" gradientUnits="userSpaceOnUse" gradientTransform="translate(196.586 308.531) scale(2.35937 2.35962)">
<stop stop-color="#391B5C"/>
<stop offset="0.9848" stop-color="#2A164A"/>
</radialGradient>
<radialGradient id="paint57_radial_240_3917" cx="0" cy="0" r="1" gradientUnits="userSpaceOnUse" gradientTransform="translate(200.947 310.743) scale(3.9207 3.92112)">
<stop stop-color="#391B5C"/>
<stop offset="0.9848" stop-color="#2A164A"/>
</radialGradient>
<radialGradient id="paint58_radial_240_3917" cx="0" cy="0" r="1" gradientUnits="userSpaceOnUse" gradientTransform="translate(204.911 308.531) scale(2.35937 2.35962)">
<stop stop-color="#391B5C"/>
<stop offset="0.9848" stop-color="#2A164A"/>
</radialGradient>
<radialGradient id="paint59_radial_240_3917" cx="0" cy="0" r="1" gradientUnits="userSpaceOnUse" gradientTransform="translate(209.271 308.531) scale(2.35937 2.35962)">
<stop stop-color="#391B5C"/>
<stop offset="0.9848" stop-color="#2A164A"/>
</radialGradient>
<radialGradient id="paint60_radial_240_3917" cx="0" cy="0" r="1" gradientUnits="userSpaceOnUse" gradientTransform="translate(213.632 308.531) scale(2.35937 2.35962)">
<stop stop-color="#391B5C"/>
<stop offset="0.9848" stop-color="#2A164A"/>
</radialGradient>
<radialGradient id="paint61_radial_240_3917" cx="0" cy="0" r="1" gradientUnits="userSpaceOnUse" gradientTransform="translate(217.992 310.743) scale(3.9207 3.92112)">
<stop stop-color="#391B5C"/>
<stop offset="0.9848" stop-color="#2A164A"/>
</radialGradient>
<radialGradient id="paint62_radial_240_3917" cx="0" cy="0" r="1" gradientUnits="userSpaceOnUse" gradientTransform="translate(222.111 308.531) scale(2.35937 2.35962)">
<stop stop-color="#391B5C"/>
<stop offset="0.9848" stop-color="#2A164A"/>
</radialGradient>
<radialGradient id="paint63_radial_240_3917" cx="0" cy="0" r="1" gradientUnits="userSpaceOnUse" gradientTransform="translate(226.472 308.531) scale(2.35937 2.35962)">
<stop stop-color="#391B5C"/>
<stop offset="0.9848" stop-color="#2A164A"/>
</radialGradient>
<radialGradient id="paint64_radial_240_3917" cx="0" cy="0" r="1" gradientUnits="userSpaceOnUse" gradientTransform="translate(230.832 308.531) scale(2.35937 2.35962)">
<stop stop-color="#391B5C"/>
<stop offset="0.9848" stop-color="#2A164A"/>
</radialGradient>
<radialGradient id="paint65_radial_240_3917" cx="0" cy="0" r="1" gradientUnits="userSpaceOnUse" gradientTransform="translate(369.562 313.567) scale(267.567 45.2324)">
<stop offset="0.00558659" stop-color="#74409C"/>
<stop offset="0.6899" stop-color="#DBC7E0"/>
<stop offset="1" stop-color="white"/>
</radialGradient>
<linearGradient id="paint66_linear_240_3917" x1="566.733" y1="227.509" x2="486.848" y2="149.264" gradientUnits="userSpaceOnUse">
<stop offset="0.0207697" stop-color="#C289B0"/>
<stop offset="1" stop-color="#FF93AC"/>
</linearGradient>
<linearGradient id="paint67_linear_240_3917" x1="566.571" y1="227.113" x2="486.686" y2="148.868" gradientUnits="userSpaceOnUse">
<stop offset="0.0207697" stop-color="#FFDBE7"/>
<stop offset="1" stop-color="#FFE8DE"/>
</linearGradient>
<linearGradient id="paint68_linear_240_3917" x1="555.956" y1="204.008" x2="493.961" y2="143.285" gradientUnits="userSpaceOnUse">
<stop offset="0.0207697" stop-color="#C289B0"/>
<stop offset="1" stop-color="#FF93AC"/>
</linearGradient>
<linearGradient id="paint69_linear_240_3917" x1="555.716" y1="203.654" x2="493.721" y2="142.931" gradientUnits="userSpaceOnUse">
<stop offset="0.0207697" stop-color="#FFDBE7"/>
<stop offset="1" stop-color="#FFE8DE"/>
</linearGradient>
<linearGradient id="paint70_linear_240_3917" x1="540.204" y1="179.796" x2="497.43" y2="137.899" gradientUnits="userSpaceOnUse">
<stop offset="0.0207697" stop-color="#C289B0"/>
<stop offset="1" stop-color="#FF93AC"/>
</linearGradient>
<linearGradient id="paint71_linear_240_3917" x1="539.899" y1="179.496" x2="497.125" y2="137.6" gradientUnits="userSpaceOnUse">
<stop offset="0.0207697" stop-color="#FFDBE7"/>
<stop offset="1" stop-color="#FFE8DE"/>
</linearGradient>
<linearGradient id="paint72_linear_240_3917" x1="529.664" y1="169.439" x2="495.256" y2="135.737" gradientUnits="userSpaceOnUse">
<stop offset="0.0207697" stop-color="#C289B0"/>
<stop offset="1" stop-color="#FF93AC"/>
</linearGradient>
<linearGradient id="paint73_linear_240_3917" x1="529.367" y1="169.147" x2="494.959" y2="135.445" gradientUnits="userSpaceOnUse">
<stop offset="0.0207697" stop-color="#FFE5EE"/>
<stop offset="1" stop-color="#FFE8DE"/>
</linearGradient>
<linearGradient id="paint74_linear_240_3917" x1="456.208" y1="197.527" x2="449.739" y2="191.191" gradientUnits="userSpaceOnUse">
<stop offset="0.0207697" stop-color="#B1ACC7"/>
<stop offset="1" stop-color="#CCCAE2"/>
</linearGradient>
<linearGradient id="paint75_linear_240_3917" x1="454.853" y1="196.196" x2="451.098" y2="192.518" gradientUnits="userSpaceOnUse">
<stop stop-color="#A6A3CC"/>
<stop offset="0.9792" stop-color="#8C7DAC"/>
</linearGradient>
<linearGradient id="paint76_linear_240_3917" x1="372.55" y1="337.252" x2="372.55" y2="307.59" gradientUnits="userSpaceOnUse">
<stop stop-color="#A6A3CC"/>
<stop offset="0.9792" stop-color="#8C7DAC"/>
</linearGradient>
<linearGradient id="paint77_linear_240_3917" x1="371.966" y1="343.04" x2="371.966" y2="337.254" gradientUnits="userSpaceOnUse">
<stop offset="0.0207697" stop-color="#B1ACC7"/>
<stop offset="1" stop-color="#CCCAE2"/>
</linearGradient>
<linearGradient id="paint78_linear_240_3917" x1="235.532" y1="226.626" x2="509.657" y2="226.626" gradientUnits="userSpaceOnUse">
<stop stop-color="#D4D2E6"/>
<stop offset="0.1157" stop-color="#8F87AE"/>
<stop offset="0.9146" stop-color="#8F87AE"/>
<stop offset="1" stop-color="#E7E6F1"/>
</linearGradient>
<linearGradient id="paint79_linear_240_3917" x1="278.577" y1="323.03" x2="468.173" y2="133.746" gradientUnits="userSpaceOnUse">
<stop offset="0.0263563" stop-color="#BB86FF"/>
<stop offset="1" stop-color="#7C9FFF"/>
</linearGradient>
<linearGradient id="paint80_linear_240_3917" x1="241.556" y1="218.621" x2="503.455" y2="218.621" gradientUnits="userSpaceOnUse">
<stop offset="0.0151831" stop-color="#1A0018"/>
<stop offset="1" stop-color="#0B0425"/>
</linearGradient>
<linearGradient id="paint81_linear_240_3917" x1="491.05" y1="298.503" x2="495.347" y2="292.599" gradientUnits="userSpaceOnUse">
<stop offset="0.0263563" stop-color="#BD5AC9"/>
<stop offset="1" stop-color="#A45CFF"/>
</linearGradient>
<linearGradient id="paint82_linear_240_3917" x1="348.963" y1="259.971" x2="409.193" y2="177.207" gradientUnits="userSpaceOnUse">
<stop offset="0.0263563" stop-color="#FF9DDF"/>
<stop offset="1" stop-color="#E0C7FF"/>
</linearGradient>
<linearGradient id="paint83_linear_240_3917" x1="374.477" y1="251.545" x2="432.233" y2="172.181" gradientUnits="userSpaceOnUse">
<stop offset="0.0263563" stop-color="#FF6BCF"/>
<stop offset="1" stop-color="#B67CFF"/>
</linearGradient>
<linearGradient id="paint84_linear_240_3917" x1="284.22" y1="178.191" x2="294.65" y2="163.859" gradientUnits="userSpaceOnUse">
<stop offset="0.0263563" stop-color="#FF6BCF"/>
<stop offset="1" stop-color="#B67CFF"/>
</linearGradient>
<linearGradient id="paint85_linear_240_3917" x1="347.652" y1="205.204" x2="357.677" y2="191.428" gradientUnits="userSpaceOnUse">
<stop offset="0.0263563" stop-color="#FF6BCF"/>
<stop offset="1" stop-color="#B67CFF"/>
</linearGradient>
<linearGradient id="paint86_linear_240_3917" x1="331.692" y1="200.153" x2="337.038" y2="192.807" gradientUnits="userSpaceOnUse">
<stop offset="0.0263563" stop-color="#FF9DDF"/>
<stop offset="1" stop-color="#E0C7FF"/>
</linearGradient>
<linearGradient id="paint87_linear_240_3917" x1="289.532" y1="215.386" x2="292.831" y2="210.853" gradientUnits="userSpaceOnUse">
<stop offset="0.0263563" stop-color="#FF9DDF"/>
<stop offset="1" stop-color="#E0C7FF"/>
</linearGradient>
<linearGradient id="paint88_linear_240_3917" x1="377.957" y1="210.88" x2="485.848" y2="210.88" gradientUnits="userSpaceOnUse">
<stop offset="0.0263563" stop-color="#BB86FF"/>
<stop offset="1" stop-color="#7C9FFF"/>
</linearGradient>
<radialGradient id="paint89_radial_240_3917" cx="0" cy="0" r="1" gradientUnits="userSpaceOnUse" gradientTransform="translate(418.701 350.725) scale(53.4172 22.7931)">
<stop stop-color="#2F3460"/>
<stop offset="0.9848" stop-color="#270C3D"/>
</radialGradient>
<radialGradient id="paint90_radial_240_3917" cx="0" cy="0" r="1" gradientUnits="userSpaceOnUse" gradientTransform="translate(435.905 316.624) scale(51.3066 20.0887)">
<stop stop-color="#2F3460"/>
<stop offset="0.6397" stop-color="#391B5C"/>
<stop offset="0.9848" stop-color="#2A164A"/>
</radialGradient>
<linearGradient id="paint91_linear_240_3917" x1="382.393" y1="339.782" x2="473.167" y2="339.782" gradientUnits="userSpaceOnUse">
<stop offset="0.00558659" stop-color="#542F83"/>
<stop offset="0.9385" stop-color="white"/>
</linearGradient>
<radialGradient id="paint92_radial_240_3917" cx="0" cy="0" r="1" gradientUnits="userSpaceOnUse" gradientTransform="translate(414.473 313.705) scale(8.33146 8.3452)">
<stop stop-color="#635272"/>
<stop offset="0.3142" stop-color="#614F70"/>
<stop offset="0.523" stop-color="#594669"/>
<stop offset="0.701" stop-color="#4C375E"/>
<stop offset="0.8609" stop-color="#3A224E"/>
<stop offset="0.9848" stop-color="#270C3D"/>
</radialGradient>
<radialGradient id="paint93_radial_240_3917" cx="0" cy="0" r="1" gradientUnits="userSpaceOnUse" gradientTransform="translate(406.69 317.985) scale(9.45796 9.47348)">
<stop stop-color="#2F1160"/>
<stop offset="0.9848" stop-color="#1D002C"/>
</radialGradient>
<linearGradient id="paint94_linear_240_3917" x1="447.577" y1="326.73" x2="484.625" y2="326.73" gradientUnits="userSpaceOnUse">
<stop offset="0.071049" stop-color="#F92CFF"/>
<stop offset="0.6034" stop-color="#009FFF"/>
<stop offset="0.9916" stop-color="#00FF90"/>
</linearGradient>
<linearGradient id="paint95_linear_240_3917" x1="413.775" y1="313.567" x2="432.556" y2="313.567" gradientUnits="userSpaceOnUse">
<stop stop-color="#009FFF"/>
<stop offset="0.929" stop-color="#F92CFF"/>
</linearGradient>
<radialGradient id="paint96_radial_240_3917" cx="0" cy="0" r="1" gradientUnits="userSpaceOnUse" gradientTransform="translate(419.693 322.625) rotate(-9.47514) scale(19.2639 6.376)">
<stop offset="0.00558659" stop-color="#003772"/>
<stop offset="0.0857136" stop-color="#003064"/>
<stop offset="0.368" stop-color="#001C39"/>
<stop offset="0.622" stop-color="#000D1A"/>
<stop offset="0.8363" stop-color="#000307"/>
<stop offset="0.9851"/>
</radialGradient>
<radialGradient id="paint97_radial_240_3917" cx="0" cy="0" r="1" gradientUnits="userSpaceOnUse" gradientTransform="translate(412.722 329.437) scale(15.3198 5.99838)">
<stop stop-color="#0F062D"/>
<stop offset="0.9848" stop-color="#0E0020"/>
</radialGradient>
<linearGradient id="paint98_linear_240_3917" x1="223.774" y1="136.147" x2="237.684" y2="124.672" gradientUnits="userSpaceOnUse">
<stop offset="0.3324" stop-color="#FFB848"/>
<stop offset="0.984" stop-color="#FF7F2C"/>
</linearGradient>
<linearGradient id="paint99_linear_240_3917" x1="239.757" y1="159.009" x2="257.524" y2="144.352" gradientUnits="userSpaceOnUse">
<stop stop-color="#FF6E31"/>
<stop offset="0.0548212" stop-color="#FF7B20"/>
<stop offset="0.1295" stop-color="#FF8710"/>
<stop offset="0.2147" stop-color="#FF8E07"/>
<stop offset="0.3324" stop-color="#FF9004"/>
<stop offset="0.984" stop-color="#FF7540"/>
</linearGradient>
<linearGradient id="paint100_linear_240_3917" x1="237.365" y1="156.796" x2="256.067" y2="141.368" gradientUnits="userSpaceOnUse">
<stop offset="0.3324" stop-color="#FFD157"/>
<stop offset="0.984" stop-color="#FF9340"/>
</linearGradient>
<linearGradient id="paint101_linear_240_3917" x1="211.514" y1="121.285" x2="225.423" y2="109.81" gradientUnits="userSpaceOnUse">
<stop stop-color="#DEBD95"/>
<stop offset="0.2042" stop-color="#9D8669"/>
<stop offset="0.4039" stop-color="#655644"/>
<stop offset="0.5874" stop-color="#393126"/>
<stop offset="0.7512" stop-color="#1A1611"/>
<stop offset="0.8893" stop-color="#070605"/>
<stop offset="0.9851"/>
</linearGradient>
<linearGradient id="paint102_linear_240_3917" x1="260.519" y1="175.394" x2="269.924" y2="167.635" gradientUnits="userSpaceOnUse">
<stop stop-color="#FFC6B0"/>
<stop offset="1" stop-color="#FFEECC"/>
</linearGradient>
<linearGradient id="paint103_linear_240_3917" x1="276.481" y1="185.24" x2="261.716" y2="167.401" gradientUnits="userSpaceOnUse">
<stop offset="0.0263563" stop-color="#C3005A"/>
<stop offset="1" stop-color="#FF224D"/>
</linearGradient>
<linearGradient id="paint104_linear_240_3917" x1="281.444" y1="191.025" x2="277.753" y2="186.566" gradientUnits="userSpaceOnUse">
<stop stop-color="#FF224D"/>
<stop offset="0.9736" stop-color="#C3005A"/>
</linearGradient>
<radialGradient id="paint105_radial_240_3917" cx="0" cy="0" r="1" gradientUnits="userSpaceOnUse" gradientTransform="translate(229.413 132.415) rotate(-39.6145) scale(4.37484 15.7843)">
<stop offset="0.00558659" stop-color="#FFA93B"/>
<stop offset="0.0863859" stop-color="#E09534"/>
<stop offset="0.2771" stop-color="#9D6824"/>
<stop offset="0.4583" stop-color="#654317"/>
<stop offset="0.6246" stop-color="#39260D"/>
<stop offset="0.773" stop-color="#1A1106"/>
<stop offset="0.8983" stop-color="#070502"/>
<stop offset="0.9851"/>
</radialGradient>
<radialGradient id="paint106_radial_240_3917" cx="0" cy="0" r="1" gradientUnits="userSpaceOnUse" gradientTransform="translate(236.72 128.629) rotate(-37.9886) scale(1.88909 15.787)">
<stop offset="0.00558659" stop-color="#FFA93B"/>
<stop offset="0.0863859" stop-color="#E09534"/>
<stop offset="0.2771" stop-color="#9D6824"/>
<stop offset="0.4583" stop-color="#654317"/>
<stop offset="0.6246" stop-color="#39260D"/>
<stop offset="0.773" stop-color="#1A1106"/>
<stop offset="0.8983" stop-color="#070502"/>
<stop offset="0.9851"/>
</radialGradient>
<linearGradient id="paint107_linear_240_3917" x1="262.707" y1="170.989" x2="261.68" y2="164.907" gradientUnits="userSpaceOnUse">
<stop stop-color="#FF5973"/>
<stop offset="1" stop-color="#FF427E"/>
</linearGradient>
<radialGradient id="paint108_radial_240_3917" cx="0" cy="0" r="1" gradientUnits="userSpaceOnUse" gradientTransform="translate(481.041 111.587) rotate(-53.2978) scale(56.6762 6.81853)">
<stop stop-color="#2F3460"/>
<stop offset="0.6397" stop-color="#391B5C"/>
<stop offset="0.9848" stop-color="#2A164A"/>
</radialGradient>
<linearGradient id="paint109_linear_240_3917" x1="469.056" y1="149.152" x2="455.208" y2="138.829" gradientUnits="userSpaceOnUse">
<stop offset="0.0263563" stop-color="#9A007E"/>
<stop offset="0.3827" stop-color="#CD0558"/>
<stop offset="1" stop-color="#FF224D"/>
</linearGradient>
<radialGradient id="paint110_radial_240_3917" cx="0" cy="0" r="1" gradientUnits="userSpaceOnUse" gradientTransform="translate(437.072 175.883) rotate(-53.2979) scale(2.15128 0.986052)">
<stop stop-color="#2F3460"/>
<stop offset="0.6397" stop-color="#391B5C"/>
<stop offset="0.9848" stop-color="#2A164A"/>
</radialGradient>
<linearGradient id="paint111_linear_240_3917" x1="474.998" y1="121.066" x2="517.931" y2="63.6606" gradientUnits="userSpaceOnUse">
<stop offset="0.00558659" stop-color="#6052A9"/>
<stop offset="0.0565189" stop-color="#594C9C"/>
<stop offset="0.292" stop-color="#393165"/>
<stop offset="0.5108" stop-color="#211C39"/>
<stop offset="0.7061" stop-color="#0F0D1A"/>
<stop offset="0.8708" stop-color="#040307"/>
<stop offset="0.9851"/>
</linearGradient>
<linearGradient id="paint112_linear_240_3917" x1="517.798" y1="79.4918" x2="508.076" y2="72.2445" gradientUnits="userSpaceOnUse">
<stop offset="0.433" stop-color="#D8D9FF"/>
<stop offset="0.8352" stop-color="#80618E"/>
<stop offset="0.9637" stop-color="#E3DCE6"/>
</linearGradient>
<linearGradient id="paint113_linear_240_3917" x1="448.365" y1="175.479" x2="435.916" y2="166.199" gradientUnits="userSpaceOnUse">
<stop offset="0.0148933"/>
<stop offset="0.1292" stop-color="#040307"/>
<stop offset="0.2939" stop-color="#0F0D1A"/>
<stop offset="0.4892" stop-color="#211C39"/>
<stop offset="0.708" stop-color="#393165"/>
<stop offset="0.9435" stop-color="#594C9C"/>
<stop offset="0.9944" stop-color="#6052A9"/>
</linearGradient>
<linearGradient id="paint114_linear_240_3917" x1="456.434" y1="145.015" x2="453.719" y2="142.991" gradientUnits="userSpaceOnUse">
<stop offset="0.0263563" stop-color="#930045"/>
<stop offset="1" stop-color="#6B004D"/>
</linearGradient>
<radialGradient id="paint115_radial_240_3917" cx="0" cy="0" r="1" gradientUnits="userSpaceOnUse" gradientTransform="translate(455.312 144.187) rotate(-53.2978) scale(12.1443 12.1387)">
<stop stop-color="#391B5C"/>
<stop offset="0.9848" stop-color="#2A164A"/>
</radialGradient>
<linearGradient id="paint116_linear_240_3917" x1="105.864" y1="304.088" x2="105.864" y2="261.598" gradientUnits="userSpaceOnUse">
<stop offset="0.0263563" stop-color="#9042FF"/>
<stop offset="1" stop-color="#6E7CFF"/>
</linearGradient>
<linearGradient id="paint117_linear_240_3917" x1="98.3075" y1="304.088" x2="98.3075" y2="259.593" gradientUnits="userSpaceOnUse">
<stop offset="0.0263563" stop-color="#BB86FF"/>
<stop offset="1" stop-color="#7C9FFF"/>
</linearGradient>
<linearGradient id="paint118_linear_240_3917" x1="144.657" y1="304.595" x2="144.657" y2="268.213" gradientUnits="userSpaceOnUse">
<stop stop-color="#7C004D"/>
<stop offset="0.9736" stop-color="#AF0059"/>
</linearGradient>
<linearGradient id="paint119_linear_240_3917" x1="138.909" y1="304.595" x2="138.909" y2="268.213" gradientUnits="userSpaceOnUse">
<stop offset="0.0263563" stop-color="#C3005A"/>
<stop offset="1" stop-color="#FF224D"/>
</linearGradient>
<radialGradient id="paint120_radial_240_3917" cx="0" cy="0" r="1" gradientUnits="userSpaceOnUse" gradientTransform="translate(565.206 250.157) scale(20.7491 21.593)">
<stop stop-color="#D80E4D"/>
<stop offset="0.4395" stop-color="#D50C4F"/>
<stop offset="0.8093" stop-color="#CA0555"/>
<stop offset="0.9736" stop-color="#C3005A"/>
</radialGradient>
<linearGradient id="paint121_linear_240_3917" x1="518.591" y1="251.842" x2="575.913" y2="251.842" gradientUnits="userSpaceOnUse">
<stop offset="0.00558659" stop-color="#FFA990"/>
<stop offset="0.0128157" stop-color="#F6A38B"/>
<stop offset="0.0522865" stop-color="#C88571"/>
<stop offset="0.09677" stop-color="#9D6859"/>
<stop offset="0.1446" stop-color="#774F43"/>
<stop offset="0.1966" stop-color="#573931"/>
<stop offset="0.2541" stop-color="#3B2722"/>
<stop offset="0.319" stop-color="#251915"/>
<stop offset="0.3949" stop-color="#140E0C"/>
<stop offset="0.4886" stop-color="#090605"/>
<stop offset="0.6201" stop-color="#020101"/>
<stop offset="0.9851"/>
</linearGradient>
<radialGradient id="paint122_radial_240_3917" cx="0" cy="0" r="1" gradientUnits="userSpaceOnUse" gradientTransform="translate(560.265 260.162) scale(25.1087 26.1298)">
<stop stop-color="#FF224D"/>
<stop offset="0.2791" stop-color="#FC204E"/>
<stop offset="0.5143" stop-color="#F11A50"/>
<stop offset="0.7335" stop-color="#E01054"/>
<stop offset="0.942" stop-color="#C70359"/>
<stop offset="0.9736" stop-color="#C3005A"/>
</radialGradient>
<linearGradient id="paint123_linear_240_3917" x1="513.863" y1="260.723" x2="580.859" y2="260.723" gradientUnits="userSpaceOnUse">
<stop offset="0.00558659" stop-color="#FFA990"/>
<stop offset="0.0128157" stop-color="#F6A38B"/>
<stop offset="0.0522865" stop-color="#C88571"/>
<stop offset="0.09677" stop-color="#9D6859"/>
<stop offset="0.1446" stop-color="#774F43"/>
<stop offset="0.1966" stop-color="#573931"/>
<stop offset="0.2541" stop-color="#3B2722"/>
<stop offset="0.319" stop-color="#251915"/>
<stop offset="0.3949" stop-color="#140E0C"/>
<stop offset="0.4886" stop-color="#090605"/>
<stop offset="0.6201" stop-color="#020101"/>
<stop offset="0.9851"/>
</linearGradient>
<linearGradient id="paint124_linear_240_3917" x1="548.2" y1="270.536" x2="548.2" y2="264.053" gradientUnits="userSpaceOnUse">
<stop offset="0.0263563" stop-color="#930045"/>
<stop offset="1" stop-color="#9C004D"/>
</linearGradient>
<linearGradient id="paint125_linear_240_3917" x1="518.591" y1="304.316" x2="576.749" y2="304.316" gradientUnits="userSpaceOnUse">
<stop stop-color="#FFE3C9"/>
<stop offset="0.2163" stop-color="#FFAEA6"/>
<stop offset="0.3175" stop-color="#FFC0B2"/>
<stop offset="0.4908" stop-color="#FFDAC3"/>
<stop offset="0.595" stop-color="#FFE3C9"/>
<stop offset="1" stop-color="#FFE8DE"/>
</linearGradient>
<linearGradient id="paint126_linear_240_3917" x1="522.135" y1="341.709" x2="571.171" y2="341.709" gradientUnits="userSpaceOnUse">
<stop stop-color="#FFE8CD"/>
<stop offset="0.1828" stop-color="#FF959C"/>
<stop offset="1" stop-color="#FFE8CD"/>
</linearGradient>
<linearGradient id="paint127_linear_240_3917" x1="513.863" y1="254.947" x2="583.467" y2="254.947" gradientUnits="userSpaceOnUse">
<stop stop-color="#FF5973"/>
<stop offset="1" stop-color="#FF427E"/>
</linearGradient>
<linearGradient id="paint128_linear_240_3917" x1="518.591" y1="249.505" x2="576.749" y2="249.505" gradientUnits="userSpaceOnUse">
<stop stop-color="#FF5973"/>
<stop offset="1" stop-color="#FF427E"/>
</linearGradient>
<linearGradient id="paint129_linear_240_3917" x1="9.73703" y1="356.836" x2="54.4144" y2="321.987" gradientUnits="userSpaceOnUse">
<stop offset="0.0263563" stop-color="#FF69DF"/>
<stop offset="1" stop-color="#A990FF"/>
</linearGradient>
<linearGradient id="paint130_linear_240_3917" x1="207.29" y1="214.471" x2="216.01" y2="199.391" gradientUnits="userSpaceOnUse">
<stop offset="0.0335196" stop-color="#FFBD00"/>
<stop offset="1" stop-color="#FFE727"/>
</linearGradient>
<linearGradient id="paint131_linear_240_3917" x1="224.571" y1="343.431" x2="224.571" y2="213.439" gradientUnits="userSpaceOnUse">
<stop stop-color="#2D2F76"/>
<stop offset="0.9792" stop-color="#531D68"/>
</linearGradient>
<linearGradient id="paint132_linear_240_3917" x1="223.368" y1="343.049" x2="223.368" y2="213.057" gradientUnits="userSpaceOnUse">
<stop stop-color="#593C9C"/>
<stop offset="0.9792" stop-color="#5C0C77"/>
</linearGradient>
<linearGradient id="paint133_linear_240_3917" x1="221.651" y1="340.858" x2="221.651" y2="215.249" gradientUnits="userSpaceOnUse">
<stop stop-color="#FFA0AA"/>
<stop offset="1" stop-color="#FFCCA9"/>
</linearGradient>
<linearGradient id="paint134_linear_240_3917" x1="212.251" y1="343.431" x2="212.251" y2="213.439" gradientUnits="userSpaceOnUse">
<stop stop-color="#2D2F76"/>
<stop offset="0.9792" stop-color="#531D68"/>
</linearGradient>
<linearGradient id="paint135_linear_240_3917" x1="211.048" y1="343.049" x2="211.048" y2="213.057" gradientUnits="userSpaceOnUse">
<stop offset="0.0207697" stop-color="#6B2289"/>
<stop offset="1" stop-color="#594A9C"/>
</linearGradient>
<linearGradient id="paint136_linear_240_3917" x1="236.328" y1="344.262" x2="236.328" y2="211.277" gradientUnits="userSpaceOnUse">
<stop offset="0.0263563" stop-color="#BB86FF"/>
<stop offset="1" stop-color="#7C9FFF"/>
</linearGradient>
<linearGradient id="paint137_linear_240_3917" x1="183.304" y1="214.849" x2="190.403" y2="202.572" gradientUnits="userSpaceOnUse">
<stop stop-color="#FE0173"/>
<stop offset="1" stop-color="#D842FF"/>
</linearGradient>
</defs>
</svg>
