<svg width="585" height="456" viewBox="0 0 585 456" fill="none" xmlns="http://www.w3.org/2000/svg">
<path d="M472.966 452.009H114.546V456H472.966V452.009Z" fill="#1D0030"/>
<path d="M522.184 72.428V363.47C522.184 374.408 513.316 383.129 502.526 383.129H360.489" stroke="#C370FF" stroke-width="1.335" stroke-miterlimit="10" stroke-dasharray="2.67 2.67"/>
<path d="M80.1086 340.116V72.428C80.1086 61.4899 88.9768 52.769 99.7663 52.769H242.1" stroke="#C370FF" stroke-width="1.335" stroke-miterlimit="10" stroke-dasharray="2.67 2.67"/>
<path d="M331.52 339.081H270.773L231.754 441.958H370.392L331.52 339.081Z" fill="#C1C9D9"/>
<path d="M378.225 456H223.92L217.269 441.662H384.876L378.225 456Z" fill="#DCE6F2"/>
<path d="M257.767 373.521L358.863 411.361L340.24 362.435H261.905L257.767 373.521Z" fill="#A5ACBA"/>
<path d="M502.379 373.373H99.9142C94.4455 373.373 90.0115 368.939 90.0115 363.47V72.4278C90.0115 66.9588 94.4455 62.5244 99.9142 62.5244H502.379C507.848 62.5244 512.282 66.9588 512.282 72.4278V363.47C512.282 368.939 507.848 373.373 502.379 373.373Z" fill="#C1C9D9"/>
<path d="M307.724 74.6451C307.724 78.3404 304.768 81.2966 301.22 81.2966C297.525 81.2966 294.717 78.3404 294.717 74.6451C294.717 70.9498 297.673 68.1414 301.22 68.1414C304.768 68.1414 307.724 71.0976 307.724 74.6451Z" fill="#0A1D45"/>
<path d="M488.648 339.134L488.648 86.2273L113.822 86.2273L113.822 339.134L488.648 339.134Z" fill="#0A1D45"/>
<path d="M366.992 116.771H143.368C137.899 116.771 133.465 121.206 133.465 126.675V132.587V348.393H376.747V132.587V126.675C376.747 121.058 372.313 116.771 366.992 116.771Z" fill="#A5ACBA"/>
<path d="M366.844 106.277C366.844 100.808 362.41 96.3735 356.942 96.3735H133.465C127.997 96.3735 123.562 100.808 123.562 106.277V112.189H366.844V106.277Z" fill="#0059D6"/>
<path d="M366.844 112.189H123.562V327.995H366.844V112.189Z" fill="#E4EBFD"/>
<path d="M349.404 128.597H284.814V138.648H349.404V128.597Z" fill="#BECBEB"/>
<path d="M349.404 146.63H284.814V156.681H349.404V146.63Z" fill="#BECBEB"/>
<path d="M349.404 164.663H284.814V174.714H349.404V164.663Z" fill="#BECBEB"/>
<path d="M349.404 182.696H284.814V192.747H349.404V182.696Z" fill="#BECBEB"/>
<path d="M349.404 200.581H284.814V210.632H349.404V200.581Z" fill="#BECBEB"/>
<path d="M353.69 223.344H282.597V321.048H353.69V223.344Z" stroke="#0068FA" stroke-width="0.6675" stroke-miterlimit="10" stroke-dasharray="2.67 2.67"/>
<path d="M348.665 228.37H287.623V316.022H348.665V228.37Z" fill="white"/>
<path d="M342.309 233.395H293.83V310.701H342.309V233.395Z" fill="#2FCBE0"/>
<path d="M315.114 243.742H319.991L330.042 300.502H325.46L323.538 288.973H312.158L310.384 300.502H305.95L315.114 243.742ZM322.947 284.982L317.774 252.907L313.044 284.982H322.947Z" fill="black"/>
<path d="M270.182 222.309H135.978V232.361H270.182V222.309Z" fill="#BECBEB"/>
<path d="M270.182 242.116H135.978V252.167H270.182V242.116Z" fill="#BECBEB"/>
<path d="M216.234 262.071H135.978V272.122H216.234V262.071Z" fill="#BECBEB"/>
<path d="M199.385 281.877H135.978V291.929H199.385V281.877Z" fill="#BECBEB"/>
<path d="M235.153 301.684H218.599V311.736H235.153V301.684Z" fill="#ED1E79"/>
<path d="M211.357 301.684H135.978V311.736H211.357V301.684Z" fill="#BECBEB"/>
<path d="M255.106 262.071H222.59V272.122H255.106V262.071Z" fill="#FBB03B"/>
<path d="M270.182 281.877H208.992V291.929H270.182V281.877Z" fill="#BECBEB"/>
<path d="M270.33 301.684H244.464V311.736H270.33V301.684Z" fill="#BECBEB"/>
<path d="M261.018 136.874H145.289V204.424H261.018V136.874Z" fill="#0A1D45"/>
<path d="M214.756 162.298L201.602 190.086L181.205 146.63L153.862 204.424H208.401V204.276H234.709L214.756 162.298Z" fill="#133785"/>
<path d="M242.247 144.265C236.631 144.265 232.049 148.847 232.049 154.464C232.049 160.081 236.631 164.663 242.247 164.663C247.864 164.663 252.446 160.081 252.446 154.464C252.446 148.847 247.864 144.265 242.247 144.265Z" fill="#FBB03B"/>
<path d="M270.182 128.597H135.978V212.554H270.182V128.597Z" stroke="#0068FA" stroke-width="0.6675" stroke-miterlimit="10" stroke-dasharray="2.67 2.67"/>
<path d="M272.547 126.379H267.965V130.962H272.547V126.379Z" fill="#0A1D45"/>
<path d="M138.343 126.379H133.761V130.962H138.343V126.379Z" fill="#0A1D45"/>
<path d="M272.547 210.337H267.965V214.919H272.547V210.337Z" fill="#0A1D45"/>
<path d="M138.343 210.337H133.761V214.919H138.343V210.337Z" fill="#0A1D45"/>
<path d="M471.931 104.355H383.546V192.747H471.931V104.355Z" stroke="#0068FA" stroke-width="0.6675" stroke-miterlimit="10" stroke-dasharray="2.67 2.67"/>
<path d="M464.098 112.189H391.379V184.913H464.098V112.189Z" fill="#103173"/>
<path d="M443.427 164.223C452.085 155.564 452.085 141.526 443.427 132.867C434.769 124.209 420.732 124.209 412.074 132.867C403.416 141.526 403.416 155.564 412.074 164.223C420.732 172.881 434.769 172.881 443.427 164.223Z" fill="#0A1D45"/>
<path d="M422.861 134.804V162.15L440.45 148.551L422.861 134.804Z" fill="#ED1E79"/>
<path d="M347.482 62.5244C348.665 73.0191 357.533 81.2965 368.47 81.2965H477.4C488.19 81.2965 497.206 73.1669 498.388 62.5244H347.482Z" fill="#A5ACBA"/>
<path d="M470.601 74.6451H361.524C349.847 74.6451 340.388 65.1851 340.388 53.508C340.388 41.8308 349.847 32.3708 361.524 32.3708H470.601C482.278 32.3708 491.737 41.8308 491.737 53.508C491.737 65.1851 482.278 74.6451 470.601 74.6451Z" fill="#DCE6F2"/>
<path d="M468.828 67.1066H362.854C355.464 67.1066 349.404 61.0463 349.404 53.6557C349.404 46.2651 355.464 40.2048 362.854 40.2048H468.828C476.218 40.2048 482.278 46.2651 482.278 53.6557C482.278 61.0463 476.218 67.1066 468.828 67.1066Z" fill="#BECBEB"/>
<path d="M374.678 58.8291L370.096 54.5426C370.539 53.6557 370.835 52.621 370.835 51.7341C370.835 48.4823 368.175 45.6738 364.775 45.6738C361.524 45.6738 358.715 48.3344 358.715 51.7341C358.715 54.986 361.376 57.7944 364.775 57.7944C365.958 57.7944 366.992 57.4988 368.027 56.7597L372.609 61.0463C372.904 61.3419 373.2 61.4897 373.643 61.4897C374.087 61.4897 374.53 61.3419 374.678 61.0463C374.974 60.7507 375.121 60.3072 375.121 60.0116C375.121 59.4203 374.974 59.1247 374.678 58.8291ZM368.322 51.7341C368.322 53.6557 366.697 55.2816 364.775 55.2816C362.854 55.2816 361.228 53.6557 361.228 51.7341C361.228 49.8126 362.854 48.1866 364.775 48.1866C366.697 48.1866 368.322 49.8126 368.322 51.7341Z" fill="#E4EBFD"/>
<path d="M512.281 242.116H408.377C406.16 242.116 404.386 243.89 404.386 246.107V307.744C404.386 309.962 406.16 311.735 408.377 311.735H512.281V242.116Z" fill="#A5ACBA"/>
<path d="M540.364 299.763V301.832H538.442" stroke="#0068FA" stroke-width="0.6675" stroke-miterlimit="10"/>
<path d="M534.452 301.832H388.424" stroke="#0068FA" stroke-width="0.6675" stroke-miterlimit="10" stroke-dasharray="2.64 2.64"/>
<path d="M386.502 301.832H384.433V299.763" stroke="#0068FA" stroke-width="0.6675" stroke-miterlimit="10"/>
<path d="M384.433 296.067V222.309" stroke="#0068FA" stroke-width="0.6675" stroke-miterlimit="10" stroke-dasharray="2.56 2.56"/>
<path d="M384.433 220.388V218.466H386.502" stroke="#0068FA" stroke-width="0.6675" stroke-miterlimit="10"/>
<path d="M390.345 218.466H536.521" stroke="#0068FA" stroke-width="0.6675" stroke-miterlimit="10" stroke-dasharray="2.64 2.64"/>
<path d="M538.442 218.466H540.364V220.388" stroke="#0068FA" stroke-width="0.6675" stroke-miterlimit="10"/>
<path d="M540.364 224.231V297.989" stroke="#0068FA" stroke-width="0.6675" stroke-miterlimit="10" stroke-dasharray="2.56 2.56"/>
<path d="M542.581 216.101H537.999V220.683H542.581V216.101Z" fill="#DCE6F2"/>
<path d="M386.798 216.101H382.216V220.683H386.798V216.101Z" fill="#DCE6F2"/>
<path d="M542.581 299.467H537.999V304.049H542.581V299.467Z" fill="#DCE6F2"/>
<path d="M386.798 299.467H382.216V304.049H386.798V299.467Z" fill="#DCE6F2"/>
<path d="M529.574 294.885H395.37C393.153 294.885 391.379 293.111 391.379 290.894V229.256C391.379 227.039 393.153 225.265 395.37 225.265H529.574C531.791 225.265 533.565 227.039 533.565 229.256V290.894C533.417 293.111 531.643 294.885 529.574 294.885Z" fill="#DCE6F2"/>
<path d="M488.042 235.908H444.145V244.481H488.042V235.908Z" fill="#BECBEB"/>
<path d="M500.162 249.95H444.145V258.523H500.162V249.95Z" fill="#BECBEB"/>
<path d="M528.835 249.95H505.039V258.523H528.835V249.95Z" fill="#E43438"/>
<path d="M491.339 244.437H503.607V235.864H491.339V244.437Z" fill="#BECBEB"/>
<path d="M506.637 244.437H525.703V235.864H506.637V244.437Z" fill="#BECBEB"/>
<path d="M488.042 264.14H444.145V272.713H488.042V264.14Z" fill="#BECBEB"/>
<path d="M528.687 278.33H444.145V286.903H528.687V278.33Z" fill="#BECBEB"/>
<path d="M491.339 272.755H503.607V264.182H491.339V272.755Z" fill="#ED1E79"/>
<path d="M506.637 272.755H525.703V264.182H506.637V272.755Z" fill="#BECBEB"/>
<path d="M417.836 237.534C410.003 237.534 403.795 243.89 403.795 251.576V256.01H408.229V251.133C408.229 245.811 412.515 241.525 417.836 241.525C423.157 241.525 427.443 245.811 427.443 251.133V256.01H431.877V251.576C432.025 243.89 425.67 237.534 417.836 237.534Z" fill="#0A1D45"/>
<path d="M431.877 256.01H403.943C402.908 256.01 402.021 256.897 402.021 257.932V280.843C402.021 281.878 402.908 282.764 403.943 282.764H431.877C432.912 282.764 433.799 281.878 433.799 280.843V257.932C433.799 256.897 432.912 256.01 431.877 256.01ZM420.053 274.339H415.767L416.358 269.609C415.619 269.166 415.028 268.131 415.028 267.244C415.028 265.618 416.358 264.288 417.984 264.288C419.61 264.288 420.94 265.618 420.94 267.244C420.94 268.279 420.349 269.166 419.61 269.609L420.053 274.339Z" fill="#FBBF62"/>
<path d="M144.698 62.5244L155.192 73.0191L163.469 67.55C164.208 67.8456 164.799 68.1413 165.538 68.4369L167.46 78.1925H182.683L184.605 68.4369C185.344 68.1413 186.083 67.8456 186.674 67.55L194.951 73.0191L205.445 62.5244H144.698Z" fill="#A5ACBA"/>
<path d="M151.497 262.219H90.3069V331.395H151.497C153.714 331.395 155.488 330.212 155.488 328.734V264.879C155.34 263.401 153.566 262.219 151.497 262.219Z" fill="#A5ACBA"/>
<path d="M143.663 320.9H7.39007C5.61645 320.9 4.13843 319.422 4.13843 317.648V256.749C4.13843 254.976 5.61645 253.498 7.39007 253.498H143.663C145.437 253.498 146.915 254.976 146.915 256.749V317.796C146.915 319.57 145.437 320.9 143.663 320.9Z" fill="#DCE6F2"/>
<path d="M73.4636 310.811H135.393V302.09H73.4636V310.811Z" fill="#BECBEB"/>
<path d="M73.4636 297.661H135.393V288.94H73.4636V297.661Z" fill="#BECBEB"/>
<path d="M73.4095 284.512H111.247V275.791H73.4095V284.512Z" fill="#BECBEB"/>
<path d="M117.971 284.512H135.411V275.791H117.971V284.512Z" fill="#0CBA83"/>
<path d="M73.4636 271.363H135.393V262.642H73.4636V271.363Z" fill="#BECBEB"/>
<path d="M64.5894 262.071H15.667V310.996H64.5894V262.071Z" fill="#0059D6"/>
<path d="M24.2395 287.051V284.686L33.8466 280.399V282.912L26.6043 285.868L33.8466 288.825V291.338L24.2395 287.051Z" fill="white"/>
<path d="M42.1235 277.443H45.3752L38.2807 294.441H35.0291L42.1235 277.443Z" fill="white"/>
<path d="M46.4097 288.825L53.652 285.868L46.4097 282.912V280.399L56.0168 284.686V287.051L46.4097 291.338V288.825Z" fill="white"/>
<path d="M110.704 155.646H90.0115V212.11H110.704V155.646Z" fill="#A5ACBA"/>
</svg>
