<svg width="126" height="28" viewBox="0 0 126 28" fill="none" xmlns="http://www.w3.org/2000/svg">
<rect width="28" height="28" rx="14" fill="white"/>
<path d="M21.131 6.86896V9.94625L9.94619 21.131H6.8689V18.0833L18.0833 6.86896H21.131Z" fill="#282828"/>
<path d="M21.5157 6.4843V9.70954L9.70956 21.5157H6.48431V18.2905L18.2905 6.4843H21.5157Z" stroke="#282828" stroke-width="0.295894" stroke-miterlimit="10"/>
<path d="M10.5676 6.4843L6.48431 10.5676V6.4843H10.5676Z" fill="#282828"/>
<path d="M21.5156 17.4619V21.5157H17.4619L21.5156 17.4619Z" fill="#282828"/>
<path d="M45.1534 12.0398C45.0436 11.6951 44.8958 11.3864 44.7102 11.1136C44.5284 10.8371 44.3106 10.6023 44.0568 10.4091C43.803 10.2121 43.5133 10.0625 43.1875 9.96023C42.8655 9.85795 42.5114 9.80682 42.125 9.80682C41.4697 9.80682 40.8788 9.97538 40.3523 10.3125C39.8258 10.6496 39.4091 11.1439 39.1023 11.7955C38.7992 12.4432 38.6477 13.2367 38.6477 14.1761C38.6477 15.1193 38.8011 15.9167 39.108 16.5682C39.4148 17.2197 39.8352 17.714 40.3693 18.0511C40.9034 18.3883 41.5114 18.5568 42.1932 18.5568C42.8258 18.5568 43.3769 18.428 43.8466 18.1705C44.3201 17.9129 44.6856 17.5492 44.9432 17.0795C45.2045 16.6061 45.3352 16.0492 45.3352 15.4091L45.7898 15.4943H42.4602V14.0455H47.0341V15.3693C47.0341 16.3466 46.8258 17.1951 46.4091 17.9148C45.9962 18.6307 45.4242 19.1837 44.6932 19.5739C43.9659 19.964 43.1326 20.1591 42.1932 20.1591C41.1402 20.1591 40.2159 19.9167 39.4205 19.4318C38.6288 18.947 38.0114 18.2595 37.5682 17.3693C37.125 16.4754 36.9034 15.4148 36.9034 14.1875C36.9034 13.2595 37.0322 12.4261 37.2898 11.6875C37.5473 10.9489 37.9091 10.322 38.375 9.80682C38.8447 9.28788 39.3958 8.89205 40.0284 8.61932C40.6648 8.3428 41.3598 8.20455 42.1136 8.20455C42.7424 8.20455 43.3277 8.29735 43.8693 8.48295C44.4148 8.66856 44.8996 8.93182 45.3239 9.27273C45.7519 9.61364 46.1061 10.0189 46.3864 10.4886C46.6667 10.9545 46.8561 11.4716 46.9545 12.0398H45.1534ZM53.1278 20.1761C52.2679 20.1761 51.5274 19.9924 50.9062 19.625C50.2888 19.2538 49.8115 18.733 49.4744 18.0625C49.141 17.3883 48.9744 16.5985 48.9744 15.6932C48.9744 14.7992 49.141 14.0114 49.4744 13.3295C49.8115 12.6477 50.2812 12.1155 50.8835 11.733C51.4895 11.3504 52.1979 11.1591 53.0085 11.1591C53.5009 11.1591 53.9782 11.2405 54.4403 11.4034C54.9024 11.5663 55.3172 11.822 55.6846 12.1705C56.052 12.5189 56.3418 12.9716 56.5539 13.5284C56.766 14.0814 56.8721 14.7538 56.8721 15.5455V16.1477H49.9346V14.875H55.2073C55.2073 14.428 55.1164 14.0322 54.9346 13.6875C54.7528 13.339 54.4971 13.0644 54.1676 12.8636C53.8418 12.6629 53.4592 12.5625 53.0198 12.5625C52.5426 12.5625 52.1259 12.6799 51.7698 12.9148C51.4176 13.1458 51.1448 13.4489 50.9516 13.8239C50.7623 14.1951 50.6676 14.5985 50.6676 15.0341V16.0284C50.6676 16.6117 50.7698 17.108 50.9744 17.517C51.1827 17.9261 51.4725 18.2386 51.8437 18.4545C52.2149 18.6667 52.6486 18.7727 53.1448 18.7727C53.4668 18.7727 53.7604 18.7273 54.0255 18.6364C54.2907 18.5417 54.5198 18.4015 54.713 18.2159C54.9062 18.0303 55.0539 17.8011 55.1562 17.5284L56.7641 17.8182C56.6354 18.2917 56.4043 18.7064 56.071 19.0625C55.7414 19.4148 55.3266 19.6894 54.8266 19.8864C54.3304 20.0795 53.7641 20.1761 53.1278 20.1761ZM60.6959 14.8182V20H58.997V11.2727H60.6277V12.6932H60.7357C60.9364 12.2311 61.2508 11.8598 61.6789 11.5795C62.1107 11.2992 62.6542 11.1591 63.3095 11.1591C63.9042 11.1591 64.4251 11.2841 64.872 11.5341C65.319 11.7803 65.6656 12.1477 65.9118 12.6364C66.158 13.125 66.2811 13.7292 66.2811 14.4489V20H64.5823V14.6534C64.5823 14.0208 64.4175 13.5265 64.088 13.1705C63.7584 12.8106 63.3058 12.6307 62.73 12.6307C62.3361 12.6307 61.9857 12.7159 61.6789 12.8864C61.3758 13.0568 61.1353 13.3068 60.9573 13.6364C60.783 13.9621 60.6959 14.3561 60.6959 14.8182ZM73.1091 20V18.8295L79.2285 9.875H73.058V8.36364H81.3762V9.53409L75.2569 18.4886H81.4273V20H73.1091ZM87.7695 9.875V8.36364H96.7752V9.875H93.1445V20H91.3945V9.875H87.7695ZM101.365 20.1761C100.505 20.1761 99.7643 19.9924 99.1431 19.625C98.5256 19.2538 98.0484 18.733 97.7113 18.0625C97.3779 17.3883 97.2113 16.5985 97.2113 15.6932C97.2113 14.7992 97.3779 14.0114 97.7113 13.3295C98.0484 12.6477 98.5181 12.1155 99.1203 11.733C99.7264 11.3504 100.435 11.1591 101.245 11.1591C101.738 11.1591 102.215 11.2405 102.677 11.4034C103.139 11.5663 103.554 11.822 103.921 12.1705C104.289 12.5189 104.579 12.9716 104.791 13.5284C105.003 14.0814 105.109 14.7538 105.109 15.5455V16.1477H98.1715V14.875H103.444C103.444 14.428 103.353 14.0322 103.171 13.6875C102.99 13.339 102.734 13.0644 102.404 12.8636C102.079 12.6629 101.696 12.5625 101.257 12.5625C100.779 12.5625 100.363 12.6799 100.007 12.9148C99.6544 13.1458 99.3817 13.4489 99.1885 13.8239C98.9991 14.1951 98.9044 14.5985 98.9044 15.0341V16.0284C98.9044 16.6117 99.0067 17.108 99.2113 17.517C99.4196 17.9261 99.7094 18.2386 100.081 18.4545C100.452 18.6667 100.885 18.7727 101.382 18.7727C101.704 18.7727 101.997 18.7273 102.262 18.6364C102.528 18.5417 102.757 18.4015 102.95 18.2159C103.143 18.0303 103.291 17.8011 103.393 17.5284L105.001 17.8182C104.872 18.2917 104.641 18.7064 104.308 19.0625C103.978 19.4148 103.564 19.6894 103.064 19.8864C102.567 20.0795 102.001 20.1761 101.365 20.1761ZM110.91 20.1761C110.065 20.1761 109.338 19.9848 108.728 19.6023C108.122 19.2159 107.656 18.6837 107.331 18.0057C107.005 17.3277 106.842 16.5511 106.842 15.6761C106.842 14.7898 107.009 14.0076 107.342 13.3295C107.675 12.6477 108.145 12.1155 108.751 11.733C109.357 11.3504 110.071 11.1591 110.893 11.1591C111.556 11.1591 112.147 11.2822 112.666 11.5284C113.185 11.7708 113.603 12.1117 113.921 12.5511C114.243 12.9905 114.435 13.5038 114.495 14.0909H112.842C112.751 13.6818 112.543 13.3295 112.217 13.0341C111.895 12.7386 111.463 12.5909 110.921 12.5909C110.448 12.5909 110.033 12.7159 109.677 12.9659C109.325 13.2121 109.05 13.5644 108.853 14.0227C108.656 14.4773 108.558 15.0152 108.558 15.6364C108.558 16.2727 108.654 16.822 108.848 17.2841C109.041 17.7462 109.313 18.1042 109.666 18.358C110.022 18.6117 110.44 18.7386 110.921 18.7386C111.243 18.7386 111.535 18.6799 111.796 18.5625C112.062 18.4413 112.283 18.2689 112.461 18.0455C112.643 17.822 112.77 17.553 112.842 17.2386H114.495C114.435 17.803 114.251 18.3068 113.944 18.75C113.637 19.1932 113.226 19.5417 112.711 19.7955C112.2 20.0492 111.599 20.1761 110.91 20.1761ZM118.251 14.8182V20H116.552V8.36364H118.228V12.6932H118.336C118.541 12.2235 118.853 11.8504 119.274 11.5739C119.694 11.2973 120.243 11.1591 120.921 11.1591C121.52 11.1591 122.043 11.2822 122.49 11.5284C122.94 11.7746 123.289 12.142 123.535 12.6307C123.785 13.1155 123.91 13.7216 123.91 14.4489V20H122.211V14.6534C122.211 14.0133 122.046 13.517 121.717 13.1648C121.387 12.8087 120.929 12.6307 120.342 12.6307C119.94 12.6307 119.58 12.7159 119.262 12.8864C118.948 13.0568 118.7 13.3068 118.518 13.6364C118.34 13.9621 118.251 14.3561 118.251 14.8182Z" fill="white"/>
</svg>
